<?xml version="1.0" standalone="no"?>
<!DOCTYPE svg PUBLIC "-//W3C//DTD SVG 1.1//EN" "http://www.w3.org/Graphics/SVG/1.1/DTD/svg11.dtd" >
<svg xmlns="http://www.w3.org/2000/svg" xmlns:xlink="http://www.w3.org/1999/xlink" version="1.1">
<metadata></metadata>
<defs>
<font id="ephesisregular" horiz-adv-x="0" >
<font-face units-per-em="2048" ascent="1638" descent="-410" />
<missing-glyph horiz-adv-x="389" />
<glyph unicode="&#xfb01;" horiz-adv-x="937" d="M244 -100q-88 0 -88 108q0 90 55 244q10 33 47 120t98 230l-88 -14q-27 -4 -43 -7t-24 -1q-6 4 -6 12q0 45 18 49l172 25q27 45 63.5 105t86.5 136q63 84 118 117q27 12 65 21.5t89 9.5q78 0 104 -62q8 -18 9 -39q0 -41 -31 -41q-35 0 -58 60q-12 35 -51 35 q-57 0 -102 -52q-14 -14 -35.5 -44.5t-54.5 -77.5q-35 -51 -58.5 -91.5t-37.5 -68.5q6 2 26.5 4t52.5 4q25 2 47.5 3t43.5 1q86 0 81 -8q-20 -18 -280 -64q-63 -111 -141 -303q-98 -236 -99 -334q0 -39 21.5 -50t21.5 -13q1 -14 -22 -14zM991 719q-33 -4 -70.5 8t-37.5 31 q0 12 8 25.5t20 27.5q35 43 41 54.5t23 11.5q47 0 74 -46q2 -2 2 -8q0 -18 -21 -53q-27 -49 -39 -51zM682 -20q-119 27 -119 94q0 33 80 231q23 39 60.5 114t95.5 183q10 16 45 16q31 0 60.5 -9t23.5 -17q-270 -383 -271 -531q0 -43 29 -43q55 0 174 78q141 96 238 232 q20 33 41 32q6 0 6 -6q0 -10 -19 -39q-90 -141 -249 -249q-144 -98 -195 -86z" />
<glyph unicode="&#xfb02;" horiz-adv-x="886" d="M244 -100q-88 0 -88 108q0 90 55 244q10 33 47 120t98 230l-88 -14q-27 -4 -43 -7t-24 -1q-6 4 -6 12q0 45 18 49l172 25q27 45 63.5 105t86.5 136q63 84 118 117q27 12 65 21.5t89 9.5q78 0 104 -62q8 -18 9 -39q0 -41 -31 -41q-35 0 -58 60q-12 35 -51 35 q-57 0 -102 -52q-14 -14 -35.5 -44.5t-54.5 -77.5q-35 -51 -58.5 -91.5t-37.5 -68.5q6 2 26.5 4t52.5 4q25 2 47.5 3t43.5 1q86 0 81 -8q-20 -18 -280 -64q-63 -111 -141 -303q-98 -236 -99 -334q0 -39 21.5 -50t21.5 -13q1 -14 -22 -14zM729 -39q-145 31 -145 135 q0 61 39 178q29 88 79 202t125 253q182 342 277 356q8 2 26 2q100 0 101 -94q0 -129 -217 -366q-121 -135 -267 -240q-86 -205 -86 -301q0 -63 39 -76q31 -8 144 74q129 94 221 229q14 20 27 21q8 0 8 -8t-11 -25q-78 -125 -202 -238q-121 -110 -158 -102zM770 442 q74 55 123 111l121 143q168 199 168 293q0 18 -21 19q-35 0 -110 -101q-23 -33 -47.5 -63.5t-49.5 -63.5q-31 -45 -56.5 -88t-47.5 -88q-6 -8 -25.5 -49t-54.5 -113z" />
<glyph />
<glyph horiz-adv-x="682" />
<glyph unicode="&#xd;" horiz-adv-x="356" />
<glyph unicode=" "  horiz-adv-x="389" />
<glyph unicode="&#x09;" horiz-adv-x="389" />
<glyph unicode="&#xa0;" horiz-adv-x="389" />
<glyph unicode="!" horiz-adv-x="688" d="M459 250q-27 0 -60 39q-41 43 -32 76l8 96q8 45 25.5 100t45.5 123q78 188 240 467q10 18 -4 18q-6 0 -26.5 -5t-28.5 -5q-6 0 -11 6q-6 27 60 43l72 13q53 25 75 24q27 0 27 -24q2 -6 -107 -193q-68 -113 -118 -204t-84 -160q-111 -217 -111 -310q0 -31 12 -47 q25 -33 25 -49q0 -8 -8 -8zM373 14q-35 -4 -75 8.5t-34 32.5q6 23 26.5 49.5t41.5 53.5q10 12 26 12q41 0 72 -45q2 -2 2 -8q0 -18 -20 -54q-27 -49 -39 -49z" />
<glyph unicode="&#x22;" horiz-adv-x="782" d="M285 655q-6 0 -6 4q0 8 25.5 33t49.5 57q18 27 31.5 55.5t13.5 51.5t-9 33t-28 20q-14 10 -27 23.5t-13 36.5q0 37 53 69q16 12 33 12q35 0 67.5 -20t32.5 -70q0 -37 -22.5 -88t-57.5 -100t-72.5 -83t-70.5 -34zM545 655q-6 0 -6 4q0 8 25.5 33t49.5 57q18 27 31.5 55.5 t13.5 51.5t-9 33t-28 20q-14 10 -27 23.5t-13 36.5q0 37 53 69q16 12 33 12q35 0 67.5 -20t32.5 -70q0 -37 -22.5 -88t-57.5 -100t-72.5 -83t-70.5 -34z" />
<glyph unicode="#" horiz-adv-x="1472" d="M811 20q-14 0 -43 23t-25 35q20 111 47 242t60 280l-297 -37q-29 -145 -50.5 -272t-37.5 -234q-2 -8 -14 -8q-23 0 -52.5 14.5t-27.5 26.5q20 98 46.5 214t59.5 249q-186 -20 -330 -31q-6 16 -6 33q0 27 12.5 50.5t26.5 23.5q84 6 164 11t156 9l73 293l-421 -33 q-8 0 -9 13q0 18 14.5 46.5t26.5 28.5q190 12 410 19q31 115 55.5 201t44.5 143q2 14 17 14q20 0 16 -22q-20 -78 -39.5 -162t-40.5 -174q66 2 140.5 2h162.5q51 211 86 315q4 12 15 13q23 0 16 -21q-16 -72 -34.5 -148.5t-35.5 -158.5l478 -2q16 0 16 -17q0 -16 -16 -16 q-113 0 -234 -3t-254 -11q-14 -68 -27.5 -142.5t-29.5 -158.5q137 4 273 7t272 3q16 0 16 -16t-16 -17q-231 0 -555 -37l-101 -583q-4 -5 -8 -5zM571 653q152 10 295 13q16 78 35 152.5t37 148.5l-305 -21q-16 -72 -32 -145.5t-30 -147.5z" />
<glyph unicode="$" horiz-adv-x="1212" d="M344 47q-121 0 -171 44t-50 108q0 63 37 135t93 135t117.5 103t110.5 40q14 0 15 -10q0 -4 -4.5 -10t-8.5 -14q-276 -182 -276 -351q0 -139 211 -139h2l338 651q-82 41 -145.5 88t-63.5 121q0 66 37 112t97 74.5t130 41t133 12.5q18 0 35 -2q16 33 29.5 59.5t25.5 46.5 q57 111 85 156t42 45q6 0 7 -6t1 -10q-4 -23 -141 -299q51 -10 88 -37t37 -74q0 -76 -63 -111q-10 4 -11 17q0 10 13.5 43t13.5 53q0 37 -39 49q-31 10 -59 17l-76 -152t-88 -178q68 -35 135.5 -75t112.5 -91t45 -121q0 -90 -58.5 -168t-156 -138t-215 -100t-236.5 -57 q-33 -68 -57.5 -116t-34.5 -68l-33 -64q-6 -10 -29 -10q-18 0 -24 8q-14 16 -4 33l108 211q-28 -2 -55 -2zM655 956q0 -37 43 -67.5t105 -61.5l67 131l66 138q10 20 22 43h-6q-113 0 -207 -60q-90 -53 -90 -123zM1057 481q0 57 -37 99.5t-95.5 75t-121.5 61.5 q-84 -168 -166 -333t-145 -292q94 12 192 49t183 90.5t137.5 117.5t52.5 132z" />
<glyph unicode="%" horiz-adv-x="942" d="M66 -14q-20 0 -21 20q0 6 2 8q104 207 220 403.5t241 379.5l352 479q4 6 10 6q16 0 35 -18.5t19 -32.5q0 -8 -2 -10q-90 -117 -182.5 -234t-184.5 -233q-139 -186 -257 -375t-214 -381q-6 -12 -18 -12zM315 905q-96 0 -96 90q0 47 27 95q49 94 172 143q23 6 41 6 q53 0 91 -31.5t38 -85.5q0 -74 -72 -135q-99 -82 -201 -82zM313 930q68 0 148 67q72 61 71 136q0 47 -26.5 61t-52.5 14q-76 0 -154 -133q-33 -53 -33 -98q0 -47 47 -47zM512 150q-96 0 -96 90q0 47 26 94q49 94 172 143q23 6 43 6q53 0 90 -31.5t37 -84.5q0 -74 -71 -136 q-99 -81 -201 -81zM510 174q68 0 147 68q72 61 72 135q0 47 -25.5 61.5t-54.5 14.5q-76 0 -153 -134q-31 -55 -31 -98q0 -47 45 -47z" />
<glyph unicode="&#x26;" horiz-adv-x="1224" d="M1100 -31q-4 0 -8 4q-27 33 -64 79t-84 110q-59 -35 -129 -65.5t-147 -53.5q-162 -49 -297 -49q-156 0 -240 72q-76 63 -76 170q0 104 71 218.5t193 202.5q51 33 132 86.5t190 124.5q-8 43 -12 82t-4 72q0 285 264 317q6 0 11 1t11 1q53 0 84 -31.5t31 -84.5 q0 -92 -82 -183q-45 -49 -106.5 -103t-139.5 -114q4 -63 19 -129q45 10 102.5 19.5t128.5 15.5q88 8 137.5 13.5t57.5 7.5q63 10 110 20t76 21q147 49 150 135q0 31 24 30q23 0 23 -57q0 -90 -185 -145q-100 -31 -227 -49q90 -35 90 -156q0 -14 -1 -29.5t-3 -32.5 q-20 -164 -209 -296l131 -162q4 -8 4 -17q1 -45 -26 -45zM694 905q244 174 260 299v8q0 25 -14 48q-20 37 -68 36q-8 0 -16 -1t-16 -3q-72 -18 -113 -139q-33 -101 -33 -248zM459 51q59 0 133 12q172 29 323 138q-162 215 -221 422q-137 -70 -137 -183q0 -51 49 -92 q20 -18 10 -24l-10 -5q-6 0 -18 9q-35 29 -56.5 48t-31.5 30q-33 35 -29 73q18 145 205 207l-6 31l-17 76q-88 -63 -258 -203q-70 -61 -123 -160q-59 -109 -59 -199q0 -180 246 -180zM958 236q141 117 164 249q2 16 3 30.5t1 29.5q0 131 -118 149l-66 -8 q-61 -8 -113.5 -19.5t-95.5 -27.5q29 -96 85 -197.5t140 -205.5z" />
<glyph unicode="'" horiz-adv-x="620" d="M285 649q-6 0 -6 4q0 8 25.5 33t49.5 57q18 27 31.5 55.5t13.5 51.5t-9 33t-28 20q-14 10 -27 23.5t-13 36.5q0 37 53 69q16 12 33 12q35 0 67.5 -20t32.5 -70q0 -37 -22.5 -88t-57.5 -100t-72.5 -83t-70.5 -34z" />
<glyph unicode="(" horiz-adv-x="561" d="M387 -150q-10 0 -18.5 1.5t-16.5 3.5q-156 53 -246 202q-80 139 -79 324q0 174 71 340q178 408 576 541h2q6 0 15 -5.5t9 -13.5q0 -12 -32 -20q-152 -41 -285 -195q-106 -123 -184 -303q-72 -168 -72 -326q0 -193 94 -342q80 -129 162 -149q78 -10 78 -29q0 -29 -74 -29z " />
<glyph unicode=")" horiz-adv-x="720" d="M37 -170q-8 0 -16.5 5t-8.5 11q0 14 31 23q156 41 287 192q106 123 184 304q72 168 72 327q0 193 -94 342q-82 129 -162 150q-78 10 -78 28q0 27 74 27q10 0 18 -1t16 -3q158 -53 244 -201q82 -137 82 -325q0 -172 -72 -338q-178 -412 -575 -541h-2z" />
<glyph unicode="*" horiz-adv-x="892" d="M334 551q-39 0 -31 37q29 129 92 356l-119 -47q-66 -31 -104 -72q-10 -10 -22 -10q-31 0 -31 31q0 12 8 20q49 57 192 113q-72 -2 -133 -3t-112 -1q-31 0 -31 31t31 30q53 0 122.5 1t153.5 3l-157 179q-8 8 -9 20q0 31 31 31q12 0 23 -10l188 -211q53 178 74 276 q6 23 28 23q41 0 31 -37q-10 -45 -26.5 -107.5t-38.5 -140.5q43 25 86 53.5t86 61.5q10 6 18 6q31 0 31 -31q0 -14 -13 -25q-29 -20 -57.5 -40.5t-56.5 -38.5q76 2 138 3t114 1q31 0 30 -31q0 -31 -30 -31q-59 0 -148.5 -2t-208.5 -6l66 -72q45 -51 86 -84.5t76 -52.5 q16 -10 16 -26q0 -31 -31 -31q-2 0 -14 4q-39 20 -84 58t-94 91l-51 56q-33 -113 -54.5 -200t-36.5 -151q-1 -24 -28 -24z" />
<glyph unicode="+" horiz-adv-x="606" d="M309 188q-12 0 -18 14.5t-8 26.5q0 6 4 33t9 59.5t10 61.5t5 37q-8 0 -40.5 1t-71.5 5t-67 11t-28 20q0 16 8.5 27.5t22.5 11.5q49 0 97.5 2t95.5 2q12 70 25.5 141.5t21.5 142.5q16 0 19 -34.5t3 -59.5q0 -49 -2 -96t-6 -94q29 0 56.5 -1t54.5 -1q59 0 114 6v-8 q0 -12 -30.5 -23.5t-72.5 -21t-79 -15.5t-49 -8q-2 -12 -9 -50t-18.5 -82t-24 -76t-22.5 -32z" />
<glyph unicode="," horiz-adv-x="452" d="M133 -332l21 35q25 31 41 53.5t24 36.5q41 59 41 98q0 35 -37 56q-37 20 -39 30v15q0 25 11 37q4 8 16 16t33 23q6 6 20 6q31 0 60.5 -16.5t35.5 -39.5v-20q0 -31 -17 -76t-54 -102q-84 -138 -156 -152z" />
<glyph unicode="-" horiz-adv-x="655" d="M242 444q-49 0 -54 2q-12 6 -18 27q-2 6 -2 14q0 12 8 15q18 10 227 10q313 0 314 -27q-2 -2 -3 -5t-5 -5q-18 -16 -260 -24q-141 -7 -207 -7z" />
<glyph unicode="." horiz-adv-x="436" d="M240 14q-31 -4 -69 7.5t-38 29.5q0 12 8.5 25.5t20.5 27.5q35 43 42 54.5t23 11.5q39 0 72 -45q2 -2 2 -8q0 -14 -22 -54q-27 -49 -39 -49z" />
<glyph unicode="/" horiz-adv-x="1198" d="M-92 -281q-14 0 -14 11q10 74 92 202q33 53 107.5 150.5t176 222.5t215 262.5t225 269.5t209 243.5t167 188.5t96.5 99q14 14 47 14q31 0 58.5 -13t21.5 -34q-147 -166 -309 -341t-322 -349t-304.5 -342t-258.5 -321q-45 -59 -72 -109.5t-31 -81.5q0 -18 -19.5 -34.5 t-44 -27t-40.5 -10.5z" />
<glyph unicode="0" horiz-adv-x="1179" d="M340 -6q-39 0 -80 6q-102 14 -158.5 106.5t-56.5 235.5q0 174 84 373q72 168 227 323q76 78 156 136.5t162 99.5q-16 10 -17 18q0 18 58 19h24.5t28.5 -2q55 20 160 20q141 0 151 -53q0 -14 -10 -14q-4 0 -47 14t-84 16h-26.5t-24.5 -2q78 -20 155 -80q168 -131 168 -368 q0 -289 -225 -531q-301 -317 -645 -317zM317 33q141 0 295 86q145 84 277 221q221 233 221 512q0 113 -37 207q-35 86 -78 115q-59 41 -111.5 64.5t-97.5 31.5q-180 -57 -356 -264q-63 -76 -114.5 -153t-90.5 -159q-92 -197 -92 -393q0 -254 143 -266q10 -2 21.5 -2h19.5z " />
<glyph unicode="1" horiz-adv-x="856" d="M184 -45q-14 -6 -27.5 16.5t-13.5 44.5q0 16 11 21q35 14 83 33.5t111 42.5q59 160 148.5 400.5t208.5 561.5q-119 -82 -279 -147q-4 -2 -12 -2q-16 0 -17 22q0 12 15 19q127 53 346 250l8 20q12 37 80 37q59 0 59 -29q0 -6 -4 -10l-469 -1110q68 14 142.5 21.5 t156.5 7.5q20 0 21 -21q0 -20 -21 -20q-137 0 -282 -50q-31 -10 -97 -36.5t-168 -71.5z" />
<glyph unicode="2" horiz-adv-x="1327" d="M1049 -80q-76 0 -178.5 24.5t-231.5 69.5q-131 47 -217 71t-127 24q-113 -49 -181.5 -75t-93.5 -26q-49 0 -49 37q0 29 31 61.5t72 45.5q61 18 162 18h33.5t35.5 -2q217 133 365.5 233.5t228.5 165.5q66 55 114 103.5t77 89.5q84 111 96 244q12 147 -156 147 q-133 0 -321 -86q-193 -86 -287 -184q-8 -6 -14 -7q-18 0 -19 23q4 12 10 16q145 129 365 228q221 98 379 98q199 0 198 -158q0 -145 -159 -325q-39 -43 -104.5 -102.5t-155.5 -137.5q-100 -84 -245 -176t-333 -195q51 -4 137 -24.5t207 -61.5q225 -74 365 -73 q104 0 168.5 41t64.5 98q0 84 -143 135q-12 4 -13 12q0 18 29 9q180 -49 180 -164q0 -82 -86 -142q-85 -55 -204 -55z" />
<glyph unicode="3" horiz-adv-x="1374" d="M528 -20q-215 0 -348 69q-147 78 -147 211q0 45 18 96q33 90 172 156q119 53 213 53q20 0 21 -12q0 -14 -21 -14q-68 0 -160 -62q-102 -70 -112 -147q-2 -8 -2 -16.5v-16.5q0 -190 237 -256q90 -25 183 -25q162 0 327 74q293 133 351 404q2 10 3 22t1 23q0 98 -105 147 q-88 41 -221 41q-123 0 -197 -31q-18 -8 -36 -8q-37 0 -37 37q0 49 47 49q176 0 319 60q184 78 185 225q0 123 -144 123q-98 0 -237 -56q-129 -53 -209 -112q-8 -4 -11 -4q-16 0 -16 34q0 43 25 52q53 16 133 110q6 8 14 8q10 0 10 -12q0 -6 -34 -53q219 104 366 104 q197 0 221 -182q2 -6 2 -12v-10q0 -168 -338 -271q160 -12 261 -71q121 -70 110 -203q-18 -242 -293 -393q-242 -131 -551 -131z" />
<glyph unicode="4" horiz-adv-x="1345" d="M813 -35q-10 0 -18 8q-39 53 -39 109q0 109 11 206t36 185q-172 45 -285 45q-82 0 -233 -49q-154 -49 -164 -49q-20 0 -36.5 21.5t-16.5 45.5q0 41 34 50q23 8 52.5 14t62.5 14q606 334 973 676l14 27q6 10 33 10t50.5 -11.5t17.5 -23.5l-213 -364q-125 -215 -197 -375 q80 -25 147.5 -38t118.5 -13q57 0 104.5 33.5t47.5 93.5q0 20 -8.5 47.5t-8.5 36.5q0 10 11 10q16 0 28 -19q61 -80 62 -135q0 -111 -236 -110q-55 0 -126.5 12t-162.5 33q-37 -92 -56 -185.5t-19 -187.5q0 -37 32 -82q4 -8 5 -14q-1 -21 -21 -21zM819 530q29 90 83 203 t136 250l58 96q-242 -201 -758 -497q47 4 90 8t82 4q57 0 134 -16.5t175 -47.5z" />
<glyph unicode="5" horiz-adv-x="1335" d="M530 1139q-10 -8 -17 17.5t-7 53.5q0 29 8 37q41 35 102 43q10 2 37 2h68q109 0 295 -55q195 -53 293 -53q43 0 90 26q63 33 55 88v9q0 18 16 18q8 0 15 -12q14 -27 14 -53q0 -59 -80 -95q-61 -23 -114 -22q-51 0 -123 6t-164 20q-90 14 -162 20.5t-125 6.5 q-138 0 -201 -57zM377 -18q-76 0 -138.5 15t-115.5 42q-119 63 -119 174q0 94 94 201q18 20 33 20q12 0 12 -12q0 -16 -14 -31q-53 -63 -53 -123q0 -94 114 -166q109 -68 246 -67q246 0 463 178q238 188 238 424q0 129 -144 186q-92 39 -198 39q-172 0 -293 -65 q-41 -27 -84 -51.5t-86 -49.5q-4 -2 -13 -2q-16 0 -16 27q0 25 19 33l188 309q14 20 88 20q43 0 33 -12l-205 -276q258 113 375 112q473 0 473 -250q0 -281 -297 -483q-283 -192 -600 -192z" />
<glyph unicode="6" horiz-adv-x="1253" d="M442 -39q-190 0 -286 88q-90 80 -90 219q0 170 124 353q133 195 345 325q150 90 272.5 152.5t218.5 95.5q-70 14 -70 29q0 23 21 16q53 -12 102 -12q55 0 101 14q10 2 19 3t18 1q41 0 68.5 -23.5t27.5 -47.5q0 -16 -15 -19q-152 -31 -326.5 -98.5t-369.5 -173.5 q-207 -115 -338 -297q-133 -182 -133 -340q0 -240 297 -240q143 0 352 66q121 41 193 121q66 76 65 147q0 98 -114 98q-147 0 -285 -88q-158 -102 -158 -256q0 -33 -22 -33q-18 0 -19 29q0 184 164 305q152 104 332 105q98 0 158 -47q55 -43 55 -115q0 -82 -74 -166 q-80 -86 -221 -133q-240 -78 -412 -78z" />
<glyph unicode="7" horiz-adv-x="970" d="M352 -31q-25 0 -33 21q-16 49 -16 100q0 209 184 469q236 332 562 633q-49 8 -98.5 14t-98.5 13q-70 10 -134.5 15t-123.5 5q-180 0 -260 -39q-111 -51 -131 -188q-6 -39 -45 -39q-51 0 -49 51l2 12v13q6 18 12 36.5t10 38.5q16 55 10 72q-6 16 -6 31q0 27 6 26 q6 0 15 -18q8 -25 12 -53q113 137 369 137q47 0 116.5 -10.5t161.5 -30.5q109 -23 175.5 -36t92.5 -15l93 80q2 2 8 2q18 0 47 -29q31 -27 31 -43q0 -6 -2 -8q-211 -176 -388.5 -350t-320.5 -347q-70 -86 -129 -208q-68 -147 -68 -254q0 -47 13 -82q0 -2 1 -3t1 -3 q-1 -13 -19 -13z" />
<glyph unicode="8" horiz-adv-x="1150" d="M264 -37q-150 0 -217 64.5t-67 156.5q0 104 79 215q188 256 486 424q-162 86 -162 168q0 133 170 223q139 76 287 76q109 0 184 -39q70 -37 70 -102q0 -43 -29 -88q39 14 83 28.5t93 30.5q4 2 12 2q20 0 21 -26q0 -33 -49 -43q-244 -55 -520 -201q35 -14 88 -39t125 -59 q190 -106 190 -250q0 -123 -139 -252q-123 -117 -320 -203q-192 -86 -385 -86zM651 872l178 91q96 49 187 81q27 68 26 97q0 49 -51 67q-82 29 -170 29q-133 0 -229 -57q-98 -55 -98 -138q0 -20 6 -38q24 -77 151 -132zM281 -8q129 0 307 78q422 188 422 389q0 143 -222 248 l-194 90q-141 -88 -295 -248q-215 -223 -215 -383q0 -35 8 -60q37 -114 189 -114z" />
<glyph unicode="9" horiz-adv-x="901" d="M395 -313q-86 0 -108 108q-4 23 -7.5 48.5t-3.5 52.5q0 236 179 569q76 143 164 272t188 244q-408 -334 -647 -334q-119 0 -133 101q-2 10 -2 19v19q0 227 378 379q315 125 592 117q12 0 13 -14q0 -20 -13.5 -42t-27.5 -22q-16 2 -35 2h-35q-264 0 -514 -121 q-276 -131 -277 -292q0 -100 89 -101q115 0 364 170q213 145 387 314q6 6 31 6q88 0 88 -41q0 -12 -12 -25q-287 -305 -404 -465q-299 -410 -299 -731q0 -70 13.5 -132t46.5 -75q16 -6 16 -12q0 -14 -31 -14z" />
<glyph unicode=":" horiz-adv-x="495" d="M394 393q-31 -4 -69 7.5t-38 29.5q0 12 8.5 25.5t20.5 27.5q35 43 42 54.5t23 11.5q39 0 72 -45q2 -2 2 -8q0 -14 -22 -54q-27 -49 -39 -49zM301 55q-31 -4 -69 7.5t-38 29.5q0 12 8.5 25.5t20.5 27.5q35 43 42 54.5t23 11.5q39 0 72 -45q2 -2 2 -8q0 -14 -22 -54 q-27 -49 -39 -49z" />
<glyph unicode=";" horiz-adv-x="495" d="M133 -332l21 35q25 31 41 53.5t24 36.5q41 59 41 98q0 35 -37 56q-37 20 -39 30v15q0 25 11 37q4 8 16 16t33 23q6 6 20 6q31 0 60.5 -16.5t35.5 -39.5v-20q0 -31 -17 -76t-54 -102q-84 -138 -156 -152zM394 235q-31 -4 -69 7.5t-38 29.5q0 12 8.5 25.5t20.5 27.5 q35 43 42 54.5t23 11.5q39 0 72 -45q2 -2 2 -8q0 -14 -22 -54q-27 -49 -39 -49z" />
<glyph unicode="&#x3c;" horiz-adv-x="694" d="M586 188l-23 7q-82 68 -176 115.5t-190 99.5q-10 6 -11 10q0 10 26 44t65.5 79t81.5 91t77 81t49 47q18 18 52 18q18 0 20 -10q0 -6 -22.5 -34.5t-55.5 -67.5t-68.5 -80t-63.5 -73t-38 -44q18 -14 66.5 -51t102.5 -80t94 -79t40 -48t-4 -18.5t-22 -6.5z" />
<glyph unicode="=" horiz-adv-x="696" d="M160 535h-30.5t-16.5 2h-4q-6 0 -7 12q0 16 16.5 49t31.5 33h4q23 -14 74 -19.5t108 -5.5q82 0 158.5 7.5t97.5 9.5q2 0 2 -5q0 -8 -7 -23t-12 -17q-16 -10 -67 -18.5t-116.5 -13.5t-128 -8t-103.5 -3zM160 268h-30.5t-16.5 2h-4q-6 0 -7 13q0 16 16.5 49t31.5 33h4 q23 -14 74 -18.5t108 -4.5q82 0 158.5 6t97.5 8q2 0 2 -1v-1q0 -8 -7 -23.5t-12 -19.5q-16 -8 -67 -16t-116.5 -14.5t-128 -9.5t-103.5 -3z" />
<glyph unicode="&#x3e;" horiz-adv-x="688" d="M258 145q-18 0 -20 11q0 6 21.5 34.5t55 67.5t68.5 80t63.5 72.5t38.5 44.5q-18 14 -66 51t-102.5 80t-94.5 78.5t-40 48.5q0 12 4 18t23 6l20 -6q84 -68 178.5 -116t190.5 -99q10 -4 10 -10q0 -10 -25.5 -44t-65.5 -79t-82 -91t-76.5 -81t-49.5 -47q-18 -19 -51 -19z " />
<glyph unicode="?" horiz-adv-x="1124" d="M543 332q-25 0 -86 16q-129 35 -129 103q0 41 49 86q41 39 100 63q229 96 299 141q113 70 113 156v14.5t-2 14.5q-12 61 -129 133q-125 76 -260 76q-84 0 -156 -37q-57 -31 -57 -78q0 -33 28 -80q25 -35 21 -35t-6 2q-104 47 -105 125q0 55 76 101q100 59 227 59 q147 0 273 -74q129 -72 174 -190q10 -27 10 -49q0 -127 -336 -285q-221 -104 -221 -168q0 -43 88 -57q47 -10 47 -29q0 -8 -18 -8zM428 14q-31 -4 -68.5 7.5t-37.5 29.5q0 12 8 25.5t20 27.5q35 43 42 54.5t24 11.5q39 0 71 -45q2 -2 2 -8q0 -14 -22 -54q-27 -49 -39 -49z " />
<glyph unicode="@" horiz-adv-x="1396" d="M711 -141q-195 0 -334 114q-152 127 -152 332q0 23 2 47.5t6 48.5q35 195 230 381q219 209 461 209q213 0 338 -106q127 -104 127 -264q0 -164 -132 -322q-74 -88 -171 -140.5t-177 -52.5q-106 0 -106 91q0 45 26 112l25 62q-14 -29 -84 -111q-102 -127 -166 -113 q-106 25 -106 119q0 80 73 193q45 70 138 137q117 86 225 86q66 0 125 -35q20 -12 20 -31q0 -12 -6 -12q4 0 -28.5 21.5t-73.5 21.5q-72 0 -156 -54t-149 -147q-94 -127 -95 -213q0 -45 33 -57q41 -18 178 154q111 139 154 215q8 20 37 20q53 0 53 -30q0 -6 -2 -9 q-152 -244 -152 -338q0 -55 50 -55q57 0 145 62q90 61 141 129q100 137 101 286q0 150 -101 244q-109 102 -293 102q-233 0 -411 -204q-137 -156 -180 -338q-12 -51 -13 -103q0 -176 123 -299q127 -123 285 -123q221 0 414 123q184 119 225 271q6 23 45 22q16 0 10 -14 q-161 -432 -702 -432z" />
<glyph unicode="A" horiz-adv-x="2164" d="M469 -244q-119 0 -214 43t-155 117q-92 115 -92 285q0 121 45 219q90 209 299 358q207 147 404 148q123 0 207 -61.5t84 -176.5q0 -80 -42 -154.5t-106 -99.5q-4 0 -8 3t-2 5q35 49 63.5 103.5t28.5 120.5q0 63 -38 111t-96.5 76t-119.5 28q-84 0 -168 -39t-168 -103 q-180 -141 -246 -362q-31 -98 -30 -191q0 -176 121 -284q49 -43 104 -66.5t119 -23.5q207 0 451.5 150.5t519.5 455.5l-187 -4q-88 2 -88 37q0 41 86 86q35 12 47 12q18 0 23 -29q4 -27 18 -31q35 -2 74 -3t84 -1q193 236 349.5 393.5t292.5 254t263 143.5q18 8 45 8 q70 0 70 -43q0 -18 -21 -39q-274 -291 -401 -694q31 2 58.5 4t51.5 6q10 2 17.5 2h15.5q37 0 37 -10q0 -33 -192 -47q-51 -168 -52 -313q0 -135 41 -158q4 -2 8.5 -3t8.5 -1q18 0 37 20l20 19q4 -4 4 -15q0 -41 -25.5 -77.5t-60.5 -36.5q-23 0 -45 18q-63 51 -63 195v33.5 t2 33.5q4 59 15 129t30 152l-496 -35q-287 -330 -543 -499t-485 -169zM1552 485q78 2 192 6.5t259 10.5q96 332 197 516q16 33 35.5 63.5t39.5 59.5q-51 -16 -114.5 -56.5t-121 -85.5t-93.5 -77q-106 -96 -202 -208t-192 -229z" />
<glyph unicode="B" horiz-adv-x="1845" d="M281 -119q-182 0 -183 252q0 131 52 277q47 139 108 200q39 39 64 39q27 0 41 -50t26 -103q66 -236 209 -375q180 168 381 459l-86 10q-53 12 -53 41q0 35 49 28q23 -4 56.5 -6t78.5 -4q51 76 87 135.5t56 104.5q39 88 115 162q68 61 109 61q23 0 22 -25q0 -41 -59 -131 q-47 -76 -102.5 -152.5t-114.5 -156.5q111 6 221 28.5t204.5 64.5t155 107.5t68.5 160.5q4 59 -26.5 112.5t-90.5 98.5q-133 106 -369 127q-57 6 -120 6q-317 0 -582 -129q-262 -127 -262 -269q0 -78 102 -137q41 -16 41 -24q0 -10 -33 -11q-59 0 -96 15q-158 78 -157 186 q0 154 268 281q285 133 661 133q70 0 168.5 -7.5t202.5 -28t195.5 -62.5t148.5 -111.5t57 -175.5q0 -84 -48 -148.5t-127 -111.5t-174 -79t-190 -49.5t-173 -21.5q102 -6 216.5 -16.5t216 -34t166 -68.5t64.5 -123q0 -82 -40 -159.5t-128 -149.5q-207 -170 -549 -170 q-72 0 -148.5 8.5t-158.5 24.5q-131 29 -248 131q-186 -164 -292 -164zM1108 -61q266 0 453 141q160 123 159 246q0 70 -56 116.5t-141 73.5t-176.5 39t-165 14t-102.5 0q-72 -94 -184.5 -212.5t-267.5 -262.5q100 -92 225 -123q129 -32 256 -32zM293 -55q102 0 252 129 q-168 150 -234 321q-12 31 -26 31q-25 0 -60 -84q-27 -70 -43 -156q-6 -33 -6 -67q0 -174 117 -174z" />
<glyph unicode="C" horiz-adv-x="1509" d="M567 -215q-205 0 -325 133q-111 123 -111 311q0 139 64 279q115 250 330.5 452.5t537.5 329.5q154 61 295 62q139 0 225 -58.5t86 -156.5q0 -49 -15.5 -103.5t-62.5 -113.5q-113 -150 -264 -244q-78 -45 -144.5 -61.5t-125.5 -16.5q-145 0 -168 139v8q0 27 31 27 q29 0 30 -27q16 -104 115 -104q96 0 221 86q66 43 119 95t98 112q96 133 96 223q0 145 -206 146q-141 0 -295 -70q-156 -70 -289 -161t-244 -206q-168 -174 -252 -364q-61 -137 -61 -275q0 -158 82 -252q96 -109 278 -108q39 0 82 5t90 15q195 43 463 211q209 129 305 219 q66 61 88 62q4 0 5 -4q0 -14 -27 -39q-100 -88 -176 -151.5t-125 -98.5q-119 -86 -234.5 -145.5t-228.5 -100.5q-156 -55 -287 -55z" />
<glyph unicode="D" horiz-adv-x="1673" d="M397 -190q-31 0 -65 20q-23 14 -35 20.5t-16 8.5q-74 35 -74 129q0 78 53 196q168 362 447 731q37 45 53 89q10 27 31 40q25 23 98 52q74 29 112 28q41 0 37 -28q-2 -8 -51 -43q-33 -25 -65.5 -53.5t-65.5 -63.5q-94 -94 -246 -326q-84 -129 -157.5 -268t-135.5 -291 q-25 -57 -24 -100q0 -70 65 -92q403 -16 822 231q408 242 559 569q43 92 43 185q0 190 -174 321q-176 133 -478 158q-57 4 -114.5 7t-112.5 3q-444 0 -717 -145q-236 -125 -235 -293q0 -160 217 -223q59 -10 59 -19q0 -12 -51 -20q-14 -2 -27.5 -3t-25.5 -1h-20.5t-20.5 2 q-272 68 -272 241q0 186 284 336q317 166 797 166q123 0 252 -12q350 -35 553 -176q205 -141 205 -350q0 -94 -43 -193q-137 -315 -568 -565q-438 -254 -893 -268z" />
<glyph unicode="E" horiz-adv-x="1712" d="M778 -254q-170 0 -300 29.5t-236 99.5q-113 76 -171.5 182.5t-58.5 231.5q0 45 8.5 93t24.5 95q-156 20 -156 101q0 20 12.5 37.5t28.5 17.5q8 0 17 -6q33 -23 147 -39q63 119 172 222t260 194q236 141 545 227q246 70 383 69q213 0 303 -39.5t90 -142.5q0 -57 -47 -57 q-53 0 -43 72t-88 102q-61 20 -164 20q-266 0 -647 -165q-471 -207 -633 -512q33 -2 66 -2.5t65 -0.5h70t70 3q182 6 522 55q317 43 424 43q190 0 190 -98q0 -61 -45 -62q-25 0 -24 47q0 76 -115 76q-39 0 -142.5 -17.5t-269.5 -52.5q-172 -37 -310 -57t-241 -25 q-49 -2 -125.5 -7t-181.5 -9q-33 -78 -33 -170q0 -90 36 -181t118 -161q197 -160 494 -160q174 0 332.5 36t301.5 93q260 104 373 265q41 55 62 55q10 0 10 -15q0 -20 -19 -55q-74 -135 -337 -264q-164 -82 -353.5 -125t-384.5 -43z" />
<glyph unicode="F" horiz-adv-x="1548" d="M489 -117q-227 0 -346 125q-90 96 -90 228q0 45 13 77q53 127 233 189q109 37 184 37q10 0 21.5 -1t19.5 -3q31 -2 31 -15q0 -20 -63 -22q-135 -10 -222 -66q-106 -70 -106 -192q0 -111 84 -199q102 -104 291 -104q61 0 131 12q375 61 676 592l-578 -45q-25 -2 -52.5 16 t-27.5 39q0 43 117 63q14 2 24.5 3t18.5 1q18 0 18 -8v-8q0 -10 25 -10q188 6 260 6q20 0 77.5 2t151.5 6q119 229 172 438q-66 29 -173 71t-257 99q-377 135 -651 136q-262 0 -334 -140q-6 -14 -6 -28q0 -35 49 -76l49 -39q0 -2 -10 -6q-4 0 -9 -1t-11 -1q-53 0 -99 41 q-55 49 -55 112q0 102 102 168t238 66q260 0 619 -123q53 -18 192 -73.5t369 -149.5q16 72 16 114q0 57 -25 66q-4 4 -4 6q0 31 62 31q84 0 84 -92q0 -68 -27 -166q207 -82 314 -82q33 0 53 6q33 8 47 28.5t16 20.5q10 0 10 -12q0 -31 -43 -63.5t-106 -32.5q-98 0 -307 82 q-33 -100 -76 -199.5t-96 -196.5q18 0 35.5 1t33.5 1q182 0 246 -45q25 -14 25 -22q0 -4 -8 -4l-28 4t-85 12q-29 4 -55.5 7t-49.5 3q-14 0 -26 -1t-23 -3q-49 -10 -100 -12q-340 -573 -786 -651q-45 -8 -88.5 -12.5t-84.5 -4.5z" />
<glyph unicode="G" horiz-adv-x="1660" d="M614 -909q-115 0 -114 133q0 182 227 461q305 379 596 522q10 39 27.5 103.5t40.5 156.5q43 178 49 221q-6 -25 -117 -184q-76 -106 -152.5 -194.5t-156.5 -153.5q-225 -188 -445 -189q-23 0 -45 2t-45 6q-113 20 -188.5 121t-75.5 250q0 258 201 490q-57 90 -74 202v11 q0 39 25 38q20 0 24 -40q12 -94 60 -170q285 303 802 417q53 10 101.5 16.5t91.5 6.5q274 0 274 -195q0 -131 -149 -254q4 -4 13 -10t7 -14l-166 -604q41 12 74 12q70 0 100 -55q12 -20 13 -39q0 -14 -8 -15q-14 0 -33 31q-25 47 -82 47q-31 0 -76 -16q-248 -727 -606 -1036 q-45 -39 -98.5 -58.5t-94.5 -19.5zM903 684q266 0 498 121q25 53 31 80q6 29 51 28q33 0 59 -14q111 98 111 205q0 170 -230 170q-39 0 -81 -6t-89 -17q-211 -49 -411 -184q-180 -121 -307 -279q139 -104 368 -104zM559 10q55 0 113 15q172 39 395 290q90 102 167 209 t136 219q-240 -113 -489 -112q-240 0 -379 112q-25 -33 -46.5 -66.5t-37.5 -68.5q-90 -186 -90 -342q0 -256 231 -256zM664 -860q43 0 102 59q358 375 545 967q-254 -147 -510 -490q-199 -266 -199 -440q1 -96 62 -96z" />
<glyph unicode="H" horiz-adv-x="1783" d="M1501 -242q-16 0 -35 6q-53 16 -53 95q0 49 37 204q23 92 74 238q51 139 57 145q-8 6 -184 7h-137q-315 -2 -338 -19q-10 -8 -23.5 -29.5t-30.5 -56.5l-67 -133q-20 -41 -41 -89t-37 -106q-8 -55 -74 -55q-41 0 -41 27q0 86 193 420q-104 -16 -88 -29q4 -4 4 -6 q0 -4 -4 -4q-8 0 -35 14q-37 23 -37 45q0 25 64 39q35 4 69.5 9t71.5 14q96 164 150.5 258t68.5 120q123 238 123 345q0 61 -37 86q-61 43 -143 43q-133 0 -451 -129q-166 -66 -328 -226q-170 -170 -170 -291q0 -63 56 -104q76 -53 157 -53q23 0 51.5 4t32.5 4q10 0 11 -6 q0 -6 -7 -17q-12 -25 -112 -24q-96 0 -154 33q-113 63 -112 190q0 68 41 131q174 252 561 422q281 125 522 125q197 0 211 -125q4 -29 -32 -118t-114 -234l-239 -443h47q33 0 54.5 2t35.5 2h107q170 0 421 -6q8 20 45 103.5t107 230.5q90 193 236 338q162 162 292 162 q39 0 76 -17q10 -4 19.5 -7t17.5 -7q31 -12 33 -31q6 -41 -11.5 -78.5t-31.5 -37.5q-8 0 -8 12t5 41t5 39q0 18 -8 26q-33 33 -80 33q-88 0 -203 -112.5t-219 -307.5q-82 -152 -125 -247t-51 -136q23 2 41 2h35q104 0 141 -14q8 -2 8 -6q0 -23 -70 -25q-43 -2 -86 -2h-84 q-27 -66 -53 -142.5t-51 -160.5q-51 -184 -51 -276q0 -20 8 -44t8 -32q0 -29 -41 -29z" />
<glyph unicode="I" horiz-adv-x="1069" d="M403 -96q-96 0 -176 35.5t-126 99t-46 147.5q0 45 17 95q23 66 70.5 113.5t111.5 76.5q80 37 158 37q53 0 53 -16q0 -14 -35 -19q-131 -16 -199.5 -92t-68.5 -191q0 -113 72.5 -184.5t187.5 -71.5q133 0 253 79t218 211t170 294t108 330q23 111 35.5 203t12.5 163 q0 63 -13 66q-20 6 -78 -27q-39 -20 -83 -53t-93 -78q-45 -39 -86 -102q-51 -76 -51 -133q0 -49 43 -78q47 -33 90 -33q18 0 44 9.5t42 9.5q18 0 19 -9q0 -12 -60 -28q-55 -14 -116 -15q-61 0 -106.5 31t-45.5 90q0 109 141 234q242 217 396 217q55 0 71.5 -17.5t16.5 -64.5 q0 -109 -62 -336q-53 -195 -140 -374t-200.5 -318t-252 -220t-292.5 -81z" />
<glyph unicode="J" horiz-adv-x="989" d="M68 -291q-57 0 -106.5 31t-79 82t-29.5 110q0 88 59 171t178 133q23 8 37 8q16 0 16 -13q0 -10 -10 -16q-51 -35 -92 -89t-65.5 -114.5t-24.5 -113.5q0 -59 37 -100.5t123 -41.5q121 0 224 70t190 187.5t161 266t137.5 308.5t116.5 309q45 125 59.5 186.5t10.5 61.5 q-14 0 -62.5 -8.5t-132.5 -24.5q-158 -29 -166 -22q-23 10 -22 30q0 20 18.5 39t38.5 19q8 0 12 -2l2 -2q0 -4 -6 -11.5t-6 -9.5q4 -4 8 -4q8 0 29 6q23 8 62.5 14.5t97.5 14.5q72 10 110.5 14t42.5 6l17 35q18 37 34 37q25 0 87 -62q299 0 337 -18q25 -12 29 -31 q0 -16 -18 -28q-16 -10 -19 2q-6 37 -86 37q-18 0 -55 -2.5t-51 -2.5q-49 0 -172 -22q-29 -74 -66 -182.5t-78 -224t-82 -214.5q-72 -172 -156.5 -320.5t-187 -261t-226 -175t-275.5 -62.5z" />
<glyph unicode="K" horiz-adv-x="1632" d="M606 -72q-76 0 -69 25q8 33 34.5 91t73.5 142q41 76 85 146.5t89 136.5q131 190 205 299t90 135q162 248 162 328q0 27 -19 35q-55 25 -127 24q-160 0 -479 -137q-100 -43 -186 -98.5t-160 -120.5q-162 -150 -162 -275q0 -51 28 -93t122 -52q78 -10 69 -25 q-20 -39 -106 -38q-74 0 -145 49q-57 39 -58 125q0 119 86 229q70 88 211 184q164 115 338 172q338 115 481 115q170 0 213 -108q18 -47 -245 -439q-170 -252 -286 -439t-179 -312v-4q0 -10 14 -26.5t14 -27.5q-4 -41 -94 -41zM1862 -281q-27 0 -56 17q-117 70 -407 405 q-307 360 -307 480q0 23 8 30q23 27 94.5 77t191.5 124q100 63 201 121.5t201 111.5q281 152 457 158h8q47 0 47 -26q0 -20 -33 -23q-387 -59 -1065 -547q-6 -2 -6 -14q0 -51 113 -215q57 -82 119.5 -163t132.5 -159q250 -276 362 -276q25 0 49.5 14t28.5 14h8q18 0 19 -12 q0 -31 -62 -65q-27 -16 -54 -34t-50 -18z" />
<glyph unicode="L" horiz-adv-x="1419" d="M1110 -233q-92 0 -188 22q-188 47 -367 227q-152 -139 -252 -139q-113 0 -170 100q-49 90 -49 234q0 61 8 122.5t25 121.5q35 121 84 174q37 41 57 41t35 -52l31 -106q88 -227 249 -418q127 127 258 320q-74 80 -73 204q0 82 35 175q10 25 20 24q16 0 16 -16 q0 -6 -2 -15.5t-6 -19.5q-27 -68 -26 -135q0 -106 67 -168q94 145 155.5 258t88.5 194q35 96 94 168q55 66 88 66q18 0 19 -27q0 -43 -52 -137q-135 -248 -350 -553q49 -23 99 -22q113 0 237 90q139 98 262 293q111 176 111 360q0 188 -109 188q-57 0 -131 -67 q-14 -14 -28 -14q-18 0 -19 18q0 14 14 27q90 78 172 77q82 0 133.5 -73.5t51.5 -190.5q0 -172 -107 -340q-143 -227 -301 -340q-143 -102 -272 -102q-86 0 -150 45q-80 -106 -146.5 -186t-119.5 -134q215 -244 467 -243q123 0 242 41q117 39 145 98q35 68 78 68 q33 0 33 -35q0 -12 -6 -29q-27 -76 -152 -133q-131 -61 -299 -61zM309 -57q94 0 215 106q-147 160 -245 359q-14 31 -31 30q-29 0 -53 -84q-10 -39 -17.5 -78.5t-11.5 -82.5q-2 -8 -2 -17.5v-19.5q0 -70 26 -125q39 -88 119 -88z" />
<glyph unicode="M" horiz-adv-x="2185" d="M2054 -334q-131 0 -149 176q-6 59 -7 119q0 131 38 278.5t100.5 303t141.5 313.5t161 307q14 23 14 39q0 14 -10 15q-39 0 -191 -134q-82 -72 -153.5 -152.5t-128.5 -152.5q-78 -100 -132.5 -170.5t-82.5 -115.5q-37 -55 -89.5 -144.5t-121.5 -210.5q-2 -2 -55 -127 q-35 -84 -58 -84q-35 4 -62.5 27.5t-23.5 52.5q10 88 55.5 227.5t126.5 331.5q154 369 154 406q0 27 -41 26q-150 0 -493 -407q-342 -408 -373 -594q-4 -29 -33 -47.5t-59 -18.5q-33 0 -33 23q0 129 201 547q150 307 176 370q41 100 65.5 183.5t24.5 134.5q0 59 -29 75.5 t-94 16.5q-203 0 -475 -127q-82 -39 -153.5 -90t-135.5 -117q-135 -141 -135 -256q0 -39 10 -70.5t41 -56.5q25 -20 73 -31.5t105 -11.5q90 0 185 25q4 2 12 2t8 -6q0 -16 -33 -34t-83 -30t-105 -12q-104 0 -197 35q-106 39 -106 159q0 92 59 195q53 90 178 188 q72 55 173.5 109.5t215 97.5t225 68.5t203.5 25.5q176 0 177 -131q0 -66 -51.5 -198.5t-141.5 -321.5q-63 -133 -122.5 -263t-125.5 -263q2 -4 213 311q53 78 128 167t175 185q182 176 279 230q55 31 110 31q84 0 84 -86q0 -31 -8 -62q-51 -125 -120.5 -306t-159.5 -421 q-4 -12 -4 -16q0 -2 2 -2q10 0 159 235q84 135 144.5 224t95.5 130q285 352 465 486q74 55 182 55q92 0 92 -57q0 -43 -53 -109q-195 -246 -346 -663q-70 -195 -110 -335t-40 -259q0 -106 21.5 -143t62.5 -37q29 0 63 9t75 23q8 2 13 3t9 1q10 0 10 -6q0 -20 -59 -51 q-64 -37 -123 -37z" />
<glyph unicode="N" horiz-adv-x="1755" d="M1655 -295q-25 0 -39 8q-84 43 -84 181q0 180 125 536q53 145 105.5 292.5t105.5 295.5q2 8 3 14t1 12q0 43 -43 43q-47 0 -135 -45q-195 -96 -422 -337q-281 -297 -498 -709q4 -10 24.5 -19.5t10.5 -17.5q0 -27 -86 -27q-76 0 -76 23q0 59 45 185t142 319l194 389 q59 115 85 198.5t26 133.5q0 109 -181 108q-158 0 -444 -135q-162 -78 -281 -209q-131 -139 -131 -258q0 -76 60.5 -126t152.5 -50q35 0 68 6l29 4q-125 -47 -174 -47q-61 0 -117 21q-106 39 -107 161q0 94 58 191q49 86 184 194q141 117 307 191q207 94 402 94t268 -121 q4 -12 4 -24q0 -47 -45 -167t-139 -315l-258 -532q4 -6 209 307q106 162 387 404q270 233 374 262q27 8 62 8q74 0 126 -42t52 -87q0 -16 -8 -27q-154 -233 -258 -577q-47 -156 -70.5 -286t-23.5 -232q0 -156 63 -148q20 8 51 17.5t74 23.5q6 2 16 2q31 0 -53 -43 q-82 -43 -141 -43z" />
<glyph unicode="O" horiz-adv-x="1910" d="M672 -143q-106 0 -191 18q-186 41 -297 176q-115 139 -114 330q0 141 64.5 286.5t182.5 276.5q-74 68 -73 162q0 139 149 240q162 106 430 106q111 0 217.5 -10t206.5 -31q57 8 106.5 12t90.5 4q154 0 207 -53q43 -45 43 -63q0 -8 -8 -8q-16 0 -46 18q-55 39 -172 29 q256 -96 385 -275q113 -156 113 -346q0 -221 -133 -391q-174 -219 -535 -358q-321 -123 -626 -123zM377 1006q145 139 326.5 233t396.5 145q-47 4 -93 7.5t-94 3.5h-40.5t-43.5 -2q-479 -18 -479 -275q0 -57 27 -112zM649 -82q270 0 592 133q322 135 453 309 q164 219 164 428q0 203 -152 355q-156 154 -438 215q-113 -4 -223.5 -32t-219.5 -75q-244 -106 -415 -303q14 -20 33.5 -45.5t21.5 -28.5q0 -4 -2 -6q-25 6 -46.5 15.5t-41.5 19.5q-217 -268 -217 -547q0 -215 143 -331q131 -107 348 -107z" />
<glyph unicode="P" horiz-adv-x="1464" d="M283 -186q-80 10 -129.5 73.5t-49.5 157.5q0 147 115 299q18 25 33 25q8 0 8 -11q0 -14 -16 -36q-86 -119 -86 -265q0 -82 32.5 -133t94.5 -51q229 2 542 637q-4 2 -11 3t-17 1q-41 4 -41 29t90 18q41 84 85 182.5t89 208.5q47 111 70 166l24 56q8 20 39 20 q25 0 48.5 -16.5t23.5 -36.5q0 -2 -4 -15q-33 -76 -104.5 -219t-180.5 -354q258 -12 479 98q201 96 262 228q37 78 37 143q0 133 -139 217q-106 68 -266 86q-106 12 -213 12q-387 0 -678 -155q-264 -137 -264 -281q0 -16 8 -39.5t8 -34.5q0 -8 -6 -8q-8 0 -31 17 q-53 41 -53 100q0 154 248 285q293 154 768 153q53 0 106 -2t109 -6q166 -12 323 -98q199 -111 199 -277q0 -63 -27 -125q-53 -129 -292 -231q-131 -57 -281 -87t-320 -34q-401 -727 -632 -700z" />
<glyph unicode="Q" horiz-adv-x="1933" d="M817 -129q-63 0 -129 6q-166 16 -261 126t-95 280q0 162 86 335q76 160 284 332q233 193 498 281h-98q-35 -2 -65.5 -2h-55.5q-281 0 -545 -160t-264 -321q0 -78 72 -134q10 -10 10 -16q0 -16 -33 -16q-43 0 -84 26q-84 53 -84 142q0 176 258 335q279 176 676 177 q109 0 184.5 -1t118.5 -4q135 37 271 37q152 0 188 -67q2 -2 2 -8q0 -4 -6 -5q-6 0 -72 15q-86 18 -164 18q-20 0 -38.5 -1t-34.5 -3q143 -20 268 -88q283 -150 283 -422q0 -289 -293 -532q-398 -330 -877 -330zM778 -94q219 0 459 96q102 41 192.5 96.5t169.5 120.5 q268 221 269 488q0 141 -76 266q-68 109 -150 147q-186 88 -323 105q-270 -61 -506 -283q-172 -160 -270 -338q-94 -168 -94 -344q0 -147 69.5 -245.5t192.5 -106.5q16 -2 33.5 -2h33.5zM1612 -483q-80 0 -235.5 36.5t-387.5 118.5q-205 72 -354.5 108t-243.5 38 q-57 0 -84 -45q-25 -47 -39 -47q-4 0 -16 4q-45 18 -45 73q0 86 88 93q10 2 20.5 2h20.5q184 0 510 -113q455 -156 592 -176q31 -4 60.5 -7t57.5 -3q113 0 193 39q29 14 54.5 31.5t45.5 39.5q14 16 22.5 25.5t10.5 11.5q0 -6 -2 -12l-8 -74q-16 -66 -68 -102 q-69 -41 -192 -41z" />
<glyph unicode="R" horiz-adv-x="1478" d="M1309 -201q-45 0 -99 19q-199 70 -432 299q-68 66 -151 182q-123 -229 -148 -317q-12 -41 -49 -41q-43 0 -35 45q4 31 53.5 124t139.5 248q-45 68 -72 127q-37 74 -37 97q0 18 30 42.5t50 24.5q4 0 8 -4q29 -61 117 -117q156 276 195 449q-2 2 -7 2l-28 -16 q-20 -12 -31 -13q-8 0 -8 8q23 41 61 86l52 60q16 16 32.5 29.5t36.5 19.5q12 4 19 4q29 0 28 -41q0 -39 -28 -112q-63 -162 -267 -508q104 -51 176 -54q16 -2 31 -2h29q221 0 407 101q180 94 238 219q29 63 29 125q0 150 -146 254q-152 113 -409 125q-35 2 -70 3t-70 1 q-412 0 -651 -119q-203 -100 -203 -219q0 -29 15 -49q10 -25 53 -33q14 -4 28.5 -5t24.5 -1h21q23 0 22 -8q0 -20 -41 -21q-197 0 -237 49q-18 23 -19 53q0 135 250 250q297 133 799 133h86q291 -6 477 -124q188 -121 188 -285q0 -68 -34 -137q-84 -160 -293 -256 q-199 -92 -434 -93q-152 0 -291 52q-23 -43 -39 -66q59 -88 112.5 -153.5t98.5 -106.5q303 -281 452 -281q31 0 80 13q31 8 59.5 35.5t37.5 27.5q25 0 24 -28q0 -23 -90 -58q-14 -6 -27.5 -12t-27.5 -10q-45 -17 -86 -17zM639 449q4 8 10 16t10 16l-45 23q7 -20 25 -55z" />
<glyph unicode="S" horiz-adv-x="1361" d="M428 -164q-207 0 -287 94q-43 49 -43 111q0 147 221 321q72 57 138 58q16 0 16 -6q0 -14 -51 -35q-88 -37 -152 -135q-66 -100 -65 -191q0 -166 262 -166q162 0 287 50q274 106 438 276q143 145 143 279q0 162 -196 161q-311 0 -463 78q-125 63 -125 168q0 180 272 299 q221 100 422 100q164 0 258 -67q25 -14 25 -41q0 -39 -49 -80q-47 -41 -70 -37q-4 0 14 27q27 33 27 59q0 25 -18 43q-55 59 -203 60q-164 0 -336 -72q-180 -78 -219 -182q-20 -53 -21 -97q0 -182 510 -182q307 0 307 -184q0 -156 -198 -355q-203 -199 -438 -280 q-211 -74 -406 -74z" />
<glyph unicode="T" horiz-adv-x="1548" d="M616 471q-221 25 -344 96q-109 68 -108 162q0 174 307 330q168 84 375 134t454 64q78 4 155 6.5t153 2.5q195 0 353.5 -13.5t283.5 -40.5q268 -59 268 -163q0 -27 -19 -58q-31 -47 -51 -47q-6 0 -6 6q0 8 17 45q8 14 8 27q0 90 -336 137q-125 16 -280.5 24.5t-342.5 8.5 q-53 0 -103 -1t-95 -3q-418 -16 -732 -174q-301 -150 -301 -312q0 -168 365 -206q27 -2 27 -13q-1 -18 -48 -12zM690 -156q-84 0 -127 68q-16 27 -16 43t14 16q12 0 60 -47q49 -49 98 -49q86 0 194 145q100 135 285 500q102 205 163.5 316.5t78.5 132.5q29 31 57 30 q25 0 86 -28q10 -6 10 -15q0 -12 -14 -22t-25 -8q-43 6 -278 -449q-72 -139 -139.5 -251.5t-128.5 -196.5q-51 -72 -146 -129q-92 -56 -172 -56z" />
<glyph unicode="U" horiz-adv-x="1837" d="M1731 -172q-39 0 -89 59q-23 29 -22 88q0 195 199 613q-137 -250 -310 -412q-223 -209 -454 -209q-23 0 -47.5 2t-46.5 6q-127 25 -127 191q0 86 24.5 172t75.5 170l219 354q66 106 96.5 182t30.5 121q0 57 -49 72q-98 31 -191 31q-172 0 -426 -103q-166 -68 -305 -200 q-145 -141 -145 -256q0 -66 61 -113q49 -37 166 -37q23 0 84.5 6t161.5 21l-72 -21q-84 -25 -148.5 -36t-111.5 -11q-70 0 -129 19q-100 33 -100 147q0 92 57 174q121 172 449 332q252 121 528 121q242 0 268 -123q12 -53 -127 -303q-74 -131 -120 -213t-72.5 -129 t-40.5 -74t-22.5 -46.5t-18.5 -47.5q-47 -129 -47 -213q0 -147 139 -148q16 0 36.5 3t43.5 8q313 72 545 415q170 252 202 443q2 27 58 26q37 0 69.5 -13t32.5 -36q0 -2 -4 -14q-82 -131 -148.5 -262t-115.5 -262q-90 -236 -90 -363q0 -45 14 -65q27 -39 27 -58q0 -8 -8 -8z " />
<glyph unicode="V" horiz-adv-x="1554" d="M762 -199q-31 0 -59.5 16.5t-28.5 37.5q0 53 117 520l129 518q20 76 20 143q0 231 -246 232q-41 0 -88 -6q-254 -37 -391 -218q-119 -152 -119 -358q0 -258 170 -258q135 0 336 174q12 8 19 8q14 0 14 -14q0 -12 -14 -25q-236 -205 -406 -204q-109 0 -172 82 q-68 90 -68 241q0 223 172 402q195 201 496 225q14 2 26.5 2h26.5q174 0 262 -100q76 -84 76 -226q0 -31 -3 -61.5t-11 -61.5l-107 -407q-88 -346 -129 -565l54 51q59 59 194 207.5t344 384.5q162 180 282 302t202 185q205 162 286 162q51 0 64 -90v-6q-8 31 -51 30 q-55 0 -156 -57q-82 -45 -224.5 -184.5t-346.5 -370.5q-262 -297 -421 -472t-216 -228q-10 -11 -33 -11z" />
<glyph unicode="W" horiz-adv-x="2203" d="M494 -190q-27 0 -52.5 14t-27.5 33q6 125 293 684q285 545 284 678q0 135 -166 135q-244 0 -592 -226q-360 -231 -360 -415q0 -86 96 -140q47 -27 125 -26q63 0 152 18q45 10 67.5 15.5t24.5 5.5q6 0 6 -2q0 -6 -25 -25q-63 -51 -219 -51q-88 0 -166 24q-133 47 -133 173 q0 82 62 186q90 154 405 332q330 186 563 186q256 0 256 -252q0 -139 -104 -352q-20 -39 -81.5 -148.5t-164.5 -285.5q-82 -139 -137 -253t-86 -200l59 64q27 29 146 161.5t330 372.5q256 291 409 399q35 25 113 25q90 0 67 -35q-82 -131 -147 -325q-72 -219 -72 -365 q0 -176 105 -207q49 -14 106 -14q264 0 500 297q225 281 225 549q0 201 -149 264q-18 10 -36 13t-34 3q-18 0 -27 -2q-16 -4 -16 8q0 23 35 50.5t82 27.5q29 0 47 -8q195 -66 194 -297q0 -98 -28.5 -202.5t-89.5 -215.5q-119 -221 -303 -368q-203 -160 -410 -160 q-33 0 -64.5 4t-64.5 12q-176 47 -176 281q0 221 155 553q10 25 11 33q0 16 -11 16q-6 0 -16 -6q-141 -80 -432 -436q-389 -479 -498 -590q-10 -10 -30 -10z" />
<glyph unicode="X" horiz-adv-x="1591" d="M-160 -354q-25 0 -24 24q0 29 26 64q152 205 404 427t606 460q-43 494 -186 518q-33 6 -66 6q-242 0 -461 -209q-14 -12 -39 -12q-12 0 -12 8q0 6 10 20q27 45 187 133q201 115 354 115q109 0 184 -57q74 -57 115 -467l459 299q229 150 327 242t152 92q14 0 14 -13 q0 -29 -63 -86q-70 -66 -342 -231q-201 -125 -337 -210t-208 -132q29 -319 31 -322q18 -166 43 -227q53 -129 149 -129q78 0 174 84q86 78 146 184q47 86 65 86q2 -2 2 -8q0 -20 -30 -98q-45 -113 -183 -209q-137 -96 -256 -96q-131 0 -174 125q-16 49 -28 215 q-4 84 -10.5 169t-12.5 169q-657 -446 -911 -846q-56 -88 -105 -88z" />
<glyph unicode="Y" horiz-adv-x="1490" d="M133 -795q-152 0 -243 65.5t-91 197.5q0 139 117 239q16 12 23 12q12 0 12 -12q0 -23 -23 -41q-78 -68 -78 -166q0 -106 79 -171.5t192 -65.5q219 0 487 237q297 264 611 795q160 270 298 474t255 341q109 127 224 215t204 109q4 2 10 2h10q49 0 49 -33t-61 -60 q-154 -63 -382.5 -344.5t-551.5 -787.5q-180 -281 -340 -480.5t-303 -318.5q-250 -207 -498 -207zM860 -61q-14 0 -28.5 6t-12.5 16q27 119 47.5 236.5t20.5 236.5q0 279 -82 488q-117 297 -350 297q-84 0 -155 -51.5t-114 -134.5t-43 -175q0 -78 30 -148.5t85 -134.5 q113 -125 244 -124q18 0 48 8t42 8q16 0 16 -14q0 -23 -35 -35q-51 -18 -112 -19q-154 0 -275 115q-131 125 -131 309q0 74 27 152t77 145.5t122.5 109.5t167.5 42q274 0 421 -336q113 -252 113 -563q0 -98 -10 -194.5t-31 -190.5q-4 -20 -30.5 -34.5t-51.5 -14.5z" />
<glyph unicode="Z" horiz-adv-x="1222" d="M1319 -252q-125 0 -337 73t-529 222q-84 -57 -167 -83t-149 -26q-70 0 -117 29q-55 37 -55 103q0 47 26.5 89t63.5 50q41 10 60 10q98 0 327 -123l547 629q78 90 165 173t185 159l-258 65q-63 16 -130.5 26.5t-139.5 10.5q-76 0 -149.5 -13.5t-141.5 -45.5 q-53 -27 -88 -78t-35 -105q0 -41 26 -74.5t85 -47.5q-2 -2 0 -10.5t-2 -8.5q-47 0 -88 22.5t-64 51.5q-35 47 -35 94q0 72 41 122t105.5 81t135.5 45t128 14q68 0 151 -11t179 -34q6 0 313 -82q158 115 246 115q41 0 77 -20.5t36 -61.5q0 -43 -33 -69.5t-107 -26.5 q-70 0 -186 24q-59 -51 -143 -155.5t-209 -253.5q-299 -360 -557 -561q66 -29 118 -50.5t109 -44.5q133 -53 231.5 -85.5t159.5 -47.5q53 -10 102.5 -16t94.5 -6q162 0 286 73q31 16 70 86q39 63 47 64q10 0 10 -43q0 -45 -15 -84t-54 -72q-105 -92 -336 -92zM1571 1040 q86 0 86 47t-60 48q-78 0 -163 -74q43 -10 77.5 -15.5t59.5 -5.5zM186 -12q117 0 217 80l-53 30q-57 35 -108.5 47.5t-91.5 12.5q-102 0 -103 -84q0 -35 33 -57.5t74 -26.5q8 0 16 -1t16 -1z" />
<glyph unicode="[" horiz-adv-x="718" d="M330 -152q-14 0 -48 1t-71 6.5t-64.5 19.5t-31.5 41q-6 43 -6 96q0 102 16 235.5t44 275t63.5 268.5t76.5 217t80 120q18 14 65.5 18.5t73.5 4.5q10 0 42 -1t63 -5t33 -17l4 -18q-8 -2 -12.5 -2h-8.5q-25 0 -48 3t-46 3q-16 0 -36.5 -1t-33.5 -9q-31 -41 -67.5 -130 t-71.5 -206t-63.5 -244t-46 -244.5t-17.5 -205.5q0 -100 22.5 -142.5t65.5 -42.5q25 0 47.5 4.5t44.5 4.5q8 0 22.5 -2t16.5 -19q0 -14 -24.5 -20.5t-50 -7.5t-33.5 -1z" />
<glyph unicode="\" horiz-adv-x="819" d="M750 -156q-18 0 -19 21q0 6 1 12t1 14q0 47 -35.5 140.5t-94 212t-127 244.5t-134.5 242t-117 201t-75 122l-5 10q0 16 10.5 38.5t22.5 40t19 17.5q2 0 2 -1t2 -1q94 -139 181 -289.5t160.5 -297t128 -275.5t85 -229.5t30.5 -157.5q0 -14 -10 -39t-26 -25z" />
<glyph unicode="]" horiz-adv-x="684" d="M217 -156q-10 0 -42 1t-61.5 7.5t-31.5 16.5l-4 18q8 2 20 2q23 0 46.5 -3t48.5 -3q16 0 36.5 1t32.5 10q31 41 67 130t70.5 205.5t63.5 243.5t46 245t17 206q0 102 -22.5 143t-65.5 41q-23 0 -46 -4t-46 -4q-6 0 -20.5 3t-18.5 17q0 14 22.5 19.5t49.5 7.5t39 2 q16 0 50 -2t70.5 -8t64.5 -20.5t30 -39.5q2 -20 3 -43.5t1 -50.5q0 -102 -16.5 -235.5t-44 -274.5t-63.5 -268t-76 -217t-79 -121q-18 -14 -66 -19.5t-75 -5.5z" />
<glyph unicode="^" horiz-adv-x="684" d="M494 741q-49 0 -84 41q-20 23 -54 97q-18 39 -32 30q-53 -33 -105.5 -64.5t-105.5 -66.5q-4 -2 -8.5 -3t-8.5 -1q-18 0 -18 14q0 10 12 17q20 16 36.5 27.5t29.5 17.5q45 25 95 55.5t103 69.5q23 16 37 16q20 0 45 -55q33 -74 47 -90q25 -29 64 -29q37 0 96 21q23 6 33 6 t10 -4q0 -10 -27 -31l-88 -51q-23 -8 -42 -12.5t-35 -4.5z" />
<glyph unicode="_" horiz-adv-x="1099" d="M-23 -88q-8 0 -8 10q0 12 9.5 27.5t21.5 15.5h1108q12 0 12 -12q0 -10 -6 -21.5t-14 -19.5h-1123z" />
<glyph unicode="`" horiz-adv-x="245" d="M240 723q-8 0 -47 16q-37 16 -88.5 53t-98.5 74q-6 6 -6 15q0 16 13.5 32.5t25.5 16.5q8 0 14 -8q23 -29 70 -72t92 -84q31 -31 31 -39q0 -4 -6 -4z" />
<glyph unicode="a" horiz-adv-x="737" d="M573 -23q-41 0 -74.5 27t-39.5 51q-6 29 76 205l-48 -67q-31 -45 -61.5 -80t-56.5 -62q-78 -74 -131 -61q-123 29 -123 139q0 88 84 225q27 41 67.5 82t93.5 80q137 100 265 100q78 0 147 -41q23 -16 23 -34q0 -14 -9 -15q-2 0 -4 2q-43 47 -114 47q-84 0 -182.5 -63 t-176.5 -170q-111 -154 -110 -250q0 -55 39 -69q49 -20 208 182q66 80 110 143.5t71 108.5q12 23 45 22q61 0 61 -37q0 -6 -2 -8q-178 -283 -178 -383q0 -25 14 -26q43 -12 144 63q121 90 227 240q23 31 41 30q6 0 6 -4q0 -10 -18 -39q-43 -68 -95.5 -127t-115.5 -110 q-90 -76 -148 -94q-15 -7 -35 -7z" />
<glyph unicode="b" horiz-adv-x="659" d="M205 -33q-80 0 -123 68q-2 2 -2 14q0 49 63 203q29 70 58.5 132t60.5 120q172 317 311 502q33 41 125 32q20 -2 21 -18q0 -23 -14 -31q-168 -129 -449 -680l45 45t98 97q160 154 232 153q14 -4 38.5 -7t57.5 -7q37 0 37 -49q0 -137 -160 -326q-82 -96 -186 -166 q-121 -82 -213 -82zM180 33q63 0 170 69q55 35 100.5 76t77.5 86q135 182 136 262q0 31 -27 31q-76 0 -291 -211q-201 -205 -201 -283q0 -30 35 -30z" />
<glyph unicode="c" horiz-adv-x="577" d="M305 -16q-43 0 -87 20.5t-74.5 62.5t-30.5 101q0 82 61.5 186.5t161.5 184.5q63 51 106 69q61 27 117 27q70 0 109 -45q20 -20 20 -43q0 -37 -35 -37q-25 0 -37 31q-14 43 -61 43q-57 0 -129 -64q-80 -63 -145 -174q-72 -119 -72 -209q0 -88 53 -110q18 -8 47 -9 q98 0 223 82q137 88 236 228q23 31 41 30q6 0 6 -4q0 -10 -18 -39q-94 -145 -265 -249q-78 -47 -124 -64.5t-103 -17.5z" />
<glyph unicode="d" horiz-adv-x="774" d="M588 -23q-39 0 -73 19.5t-44 42.5q-6 16 -6 43q0 35 8 81t25 99q-14 -27 -40 -61.5t-63 -81.5q-111 -131 -180 -131q-10 0 -16 2q-123 29 -123 139q0 88 84 225q53 84 162 162q139 102 264 102q47 0 88 -14l61 111q47 84 79 151.5t52 116.5q16 37 115 37q45 0 39 -10 l-270 -449q8 -12 4 -29q-2 -12 -11 -4l-8 9l-26 -45q-156 -264 -156 -412q0 -57 39 -57q43 0 131 65q121 90 227 240q23 31 41 30q6 0 6 -4q0 -10 -18 -39q-88 -135 -205 -237q-92 -80 -143 -94q-20 -7 -43 -7zM199 23q49 -20 209 182q61 78 106 140.5t74 111.5 q8 16 25.5 45.5t43.5 70.5q-6 2 -13 2h-13q-84 0 -180.5 -62t-180.5 -171q-59 -76 -84.5 -139.5t-25.5 -110.5q0 -55 39 -69z" />
<glyph unicode="e" horiz-adv-x="516" d="M229 -16q-59 0 -104 28q-59 41 -59 119q0 84 71 205q96 158 283 276q47 31 94 31q61 0 88 -39q16 -23 16 -51q0 -86 -139 -188q-41 -29 -87 -52.5t-99 -33.5l-88 -19q-49 -88 -49 -147q0 -82 96 -82q76 0 184 63q145 84 250 234q16 25 31 24q6 0 6 -8q0 -10 -14 -31 q-199 -299 -449 -327q-8 -2 -15.5 -2h-15.5zM229 295q57 0 148 51q127 72 178 184q14 29 14 48q0 18 -14 18q-27 0 -109 -66q-59 -51 -115.5 -109.5t-107.5 -123.5q-2 -2 6 -2z" />
<glyph unicode="f" horiz-adv-x="471" d="M244 -100q-88 0 -88 108q0 90 55 244q10 33 47 120t98 230l-88 -14q-27 -4 -43 -7t-24 -1q-6 4 -6 12q0 45 18 49l172 25q27 45 63.5 105t86.5 136q63 84 118 117q27 12 65 21.5t89 9.5q78 0 104 -62q8 -18 9 -39q0 -41 -31 -41q-35 0 -58 60q-12 35 -51 35 q-57 0 -102 -52q-14 -14 -35.5 -44.5t-54.5 -77.5q-35 -51 -58.5 -91.5t-37.5 -68.5q6 2 26.5 4t52.5 4q25 2 47.5 3t43.5 1q86 0 81 -8q-20 -18 -280 -64q-63 -111 -141 -303q-98 -236 -99 -334q0 -39 21.5 -50t21.5 -13q1 -14 -22 -14z" />
<glyph unicode="g" horiz-adv-x="698" d="M-6 -631q-78 0 -78 78q0 63 55 152q35 55 89.5 117.5t129.5 131.5q135 131 287 228q18 45 41 110.5t51 155.5q-6 -14 -44 -58t-109 -122q-172 -190 -244 -172q-111 29 -111 123q0 92 109 241q31 41 76 82t102 80q145 100 275 100q80 0 145 -41q18 -12 18 -30t-8 -19 q-2 0 -4 2q-41 47 -112 47q-84 0 -188.5 -63t-192.5 -170q-137 -168 -138 -262q0 -43 33 -57q45 -18 227 182q72 80 124.5 143.5t82.5 108.5q14 20 41 20q49 0 49 -37q0 -8 -6 -18q-14 -41 -38.5 -109.5t-59.5 -165.5q66 39 104 39q16 0 17 -8q0 -20 -51 -39q-20 -8 -44 -18 t-51 -25q-143 -356 -346 -588q-122 -139 -231 -139zM37 -588q39 0 94 64q182 205 320 536q-272 -203 -406 -422q-45 -72 -45 -127q0 -51 37 -51z" />
<glyph unicode="h" horiz-adv-x="790" d="M553 -20q-45 -4 -86 23.5t-41 62.5q0 63 121 243q133 201 133 232q0 18 -21 18q-53 0 -204 -158q-90 -90 -169 -193.5t-149 -217.5q-4 -4 -22 -4q-90 0 -82 24q35 94 88 211t127 260q244 471 332 539q25 18 67 18q72 0 72 -28q0 -6 -12 -17q-268 -199 -476 -747 q2 2 21.5 19.5t56.5 51.5q39 35 66.5 65t48.5 52q100 113 221 168q29 12 66 12q84 0 84 -61q0 -39 -39 -92q-221 -309 -221 -416q0 -23 14 -29q33 -14 162 68q152 98 258 244q23 31 41 30q6 0 6 -4q0 -10 -19 -39q-90 -141 -249 -249q-144 -94 -195 -86z" />
<glyph unicode="i" horiz-adv-x="466" d="M520 719q-33 -4 -70.5 8t-37.5 31q0 12 8 25.5t20 27.5q35 43 41 54.5t23 11.5q47 0 74 -46q2 -2 2 -8q0 -18 -21 -53q-27 -49 -39 -51zM211 -20q-119 27 -119 94q0 33 80 231q23 39 60.5 114t95.5 183q10 16 45 16q31 0 60.5 -9t23.5 -17q-270 -383 -271 -531 q0 -43 29 -43q55 0 174 78q141 96 238 232q20 33 41 32q6 0 6 -6q0 -10 -19 -39q-90 -141 -249 -249q-144 -98 -195 -86z" />
<glyph unicode="j" horiz-adv-x="430" d="M541 719q-33 -4 -70 8t-37 31q0 10 8.5 24.5t20.5 28.5q35 43 41 54.5t24 11.5q45 0 72 -46q2 -2 2 -8q0 -14 -22 -53q-27 -49 -39 -51zM-227 -631q-78 0 -78 78q0 63 55 152q35 55 89.5 117.5t129.5 131.5q135 131 287 228q35 86 94 268v2q0 4 -3 10t-3 13q0 29 45 88 q14 20 41 20q49 0 49 -37q0 -8 -6 -18q-14 -41 -38.5 -109.5t-59.5 -165.5q66 39 104 39q16 0 17 -8q0 -20 -52 -39q-20 -8 -43.5 -18t-50.5 -25q-143 -356 -346 -588q-122 -139 -231 -139zM-184 -588q39 0 94 64q182 205 319 536q-272 -203 -405 -422q-45 -72 -45 -127 q0 -51 37 -51z" />
<glyph unicode="k" horiz-adv-x="591" d="M674 -176q-55 0 -107 39q-154 121 -237 452q-125 -143 -234 -325q-4 -4 -22 -4q-90 0 -82 24q41 111 95 233t122 253q225 440 342 526q25 18 67 18q72 0 72 -28q0 -6 -12 -17q-289 -215 -488 -749l127 123q-8 29 -13 55.5t-5 50.5q0 20 16.5 35.5t34.5 15.5q14 0 25 -16 q10 -18 55 -27q63 59 114.5 99.5t92.5 60.5q72 37 113 37q57 0 57 -72q0 -59 -69.5 -108t-164.5 -66q-33 -6 -73 -6q-14 0 -27.5 1t-30.5 3l-26 -24q16 -96 30.5 -167t28.5 -116q53 -176 139 -242q33 -27 76 -26q84 0 117 67q8 20 22 25q12 6 13 -6q0 -8 -6 -19 q-51 -100 -162 -100zM494 477q20 0 41 6q35 10 69.5 28.5t69.5 41.5q70 45 69 68q0 6 -6 6q-45 0 -237 -144z" />
<glyph unicode="l" horiz-adv-x="415" d="M258 -39q-145 31 -145 135q0 61 39 178q29 88 79 202t125 253q182 342 277 356q8 2 26 2q100 0 101 -94q0 -129 -217 -366q-121 -135 -267 -240q-86 -205 -86 -301q0 -63 39 -76q31 -8 144 74q129 94 221 229q14 20 27 21q8 0 8 -8t-11 -25q-78 -125 -202 -238 q-121 -110 -158 -102zM299 442q74 55 123 111l121 143q168 199 168 293q0 18 -21 19q-35 0 -110 -101q-23 -33 -47.5 -63.5t-49.5 -63.5q-31 -45 -56.5 -88t-47.5 -88q-6 -8 -25.5 -49t-54.5 -113z" />
<glyph unicode="m" horiz-adv-x="1079" d="M862 -20q-45 -4 -86 23.5t-41 62.5q0 63 121 243q133 199 133 230q0 18 -18 20q-59 -4 -160 -94q-154 -141 -309 -426q-6 -10 -47 -10q-45 0 -45 37q0 63 120 243q133 199 134 230q0 18 -19 20q-59 -4 -184 -119q-180 -168 -332 -446q-2 -4 -9 -6t-26 -2q-78 0 -69 24 q23 59 79 178t146 299q61 121 125 121q20 0 26 -10q4 -6 -86 -176q-43 -82 -67.5 -130t-34.5 -63q35 35 83 86.5t112 118.5q100 113 221 168q25 10 51 10q88 0 88 -75q0 -43 -35 -103q94 111 221 168q29 12 66 12q84 0 84 -61q0 -39 -39 -92q-221 -309 -221 -416 q0 -23 14 -29q31 -12 117 37q109 63 201 178q12 14 24 15q8 0 8 -6q0 -8 -12 -25q-102 -131 -203 -192q-82 -51 -131 -43z" />
<glyph unicode="n" horiz-adv-x="774" d="M553 -20q-45 -4 -86 23.5t-41 62.5q0 63 121 243q133 199 133 230q0 18 -18 20q-59 -4 -185 -119q-178 -166 -334 -450q-4 -4 -22 -4q-88 0 -80 24q23 59 79 178t146 299q61 121 125 121q20 0 27 -10q4 -6 -86 -176q-43 -82 -67.5 -130t-35.5 -63q35 35 83 86.5 t112 118.5q100 113 221 168q29 12 66 12q84 0 84 -61q0 -39 -39 -92q-221 -309 -221 -416q0 -23 14 -29q33 -14 162 68q152 98 258 244q23 31 41 30q6 0 6 -4q0 -10 -19 -39q-90 -141 -249 -249q-144 -94 -195 -86z" />
<glyph unicode="o" horiz-adv-x="641" d="M264 -23q-150 0 -149 185q0 184 147 352q2 2 -2 15.5t-4 19.5q0 12 8 18q72 57 168 58q27 0 43 -11q20 -8 38.5 -16t35.5 -18q78 -47 108 -99q51 2 86 4t54 4h8q18 0 18 -14q0 -4 -8 -6q-23 -4 -58.5 -10t-86.5 -13q6 -14 6 -32q0 -14 -2 -21q-31 -166 -162 -291 q-127 -125 -248 -125zM608 481q-33 51 -129 51q-74 0 -96 -16q-6 -2 -12 -8t-15 -14q115 -15 252 -13zM270 10q90 0 207 129q119 129 141 250l3.5 17.5t1.5 13.5q0 12 -5 24q-39 -2 -79.5 -2h-81.5h-75t-60 2q-82 -111 -103 -178q-25 -76 -24 -145q-1 -111 75 -111z" />
<glyph unicode="p" horiz-adv-x="632" d="M-4 -563q-33 0 -62 22q-33 29 -30 62q14 158 65 328.5t140 357.5q119 256 276 475q31 43 121 33q25 -2 24 -23q0 -16 -12 -26q-123 -84 -258 -359q6 10 39 45t90 99q145 154 215 153q14 -4 39 -7t59 -7q41 0 41 -66q0 -139 -125 -309q-66 -90 -169 -166 q-119 -82 -207 -82q-82 0 -123 74q-133 -270 -142 -537q0 -23 29 -32q29 -10 23 -21q-8 -14 -33 -14zM205 31q59 0 168 71q53 35 94 76t70 86q109 170 108 254q0 39 -31 39q-82 0 -270 -211q-178 -193 -178 -278q0 -37 39 -37z" />
<glyph unicode="q" horiz-adv-x="643" d="M440 -569q-80 0 -92 59q-6 31 -6 72q0 137 84 395q29 78 57.5 155.5t55.5 155.5l-56 -75q-63 -92 -116 -142q-76 -74 -129 -61q-123 29 -123 139q0 88 84 225q27 41 67.5 82t93.5 80q137 100 265 100q78 0 147 -41q23 -16 23 -34q0 -14 -9 -15q-2 0 -4 2q-43 47 -114 47 q-84 0 -182.5 -63t-176.5 -170q-111 -154 -110 -250q0 -55 39 -69q49 -20 208 182q66 80 110 143.5t71 108.5q8 20 41 20q25 0 47 -11t22 -24q0 -4 -6 -8q-25 -14 -88 -137q-33 -63 -62.5 -133t-56.5 -146q-84 -233 -84 -415q0 -90 25 -131q43 -14 43 -21q0 -20 -68 -20z " />
<glyph unicode="r" horiz-adv-x="550" d="M57 -25q-29 0 -28 19q0 2 4 14q96 184 227 527q14 37 49 64.5t60 27.5q27 0 22 -29q-20 -43 -49 -110.5t-68 -157.5q57 76 170 170q57 47 99.5 77.5t70.5 45.5q29 14 64 14q41 0 69.5 -20.5t28.5 -47.5q0 -16 -15.5 -35.5t-31.5 -19.5q-8 0 -33.5 17.5t-54.5 17.5 q-31 0 -72 -19q-260 -117 -448 -526q-13 -29 -64 -29z" />
<glyph unicode="s" horiz-adv-x="651" d="M125 -84q-8 0 -8 6q0 27 139 98q35 16 63.5 34t49.5 32q125 92 125 160q0 51 -101 51q-233 4 -233 102q0 43 37 82q43 49 143 94q109 49 199 50q80 0 120 -39q18 -18 19 -45q0 -29 -18.5 -51.5t-41.5 -22.5q-41 0 -45 55q0 39 -12 45t-65 6q-68 0 -152 -45 q-100 -51 -94 -122q4 -41 156 -41q207 0 206 -101q0 -109 -178 -217q-113 -70 -274 -123q-23 -8 -35 -8z" />
<glyph unicode="t" horiz-adv-x="460" d="M272 -35q-158 35 -157 144q0 31 10 72.5t33 92.5l174 392q-31 -4 -68 -8.5t-82 -8.5q-8 0 -8 15q0 29 10 32l172 25l133 270q18 37 115 37q45 0 39 -10q-45 -72 -91 -144.5t-91 -144.5q6 2 26.5 4t53.5 4q25 2 47 3t43 1q86 0 82 -8q-14 -14 -279 -55 q-223 -422 -223 -596q0 -63 37 -76q29 -8 145 76q68 49 123 107.5t100 123.5q14 20 27 21q8 0 8 -8t-10 -25q-78 -125 -207 -235q-125 -109 -162 -101z" />
<glyph unicode="u" horiz-adv-x="698" d="M522 -14q-53 12 -100 57q-10 10 -10 31q0 82 73 229q-57 -74 -94 -121t-55 -67q-80 -92 -133 -111q-18 -6 -37 -6q-76 0 -88 61q-8 18 -8 52q0 100 133 383q31 66 69 65q29 0 56 -43l-86 -170q-45 -88 -68.5 -151.5t-23.5 -98.5q0 -49 32 -49q53 0 172 137q63 74 124 164 t120 197q12 25 37 24q20 0 39.5 -17t15.5 -26q-199 -412 -198 -473q0 -25 16 -20q166 14 356 293q10 18 23 20q12 4 12 -8q0 -8 -8 -23q-90 -141 -215 -247q-111 -92 -154 -82z" />
<glyph unicode="v" horiz-adv-x="643" d="M242 -25q-12 -4 -101 54q-10 10 -10 39q0 135 117 450q29 80 78 80q25 0 44 -21.5t13 -33.5q-23 -47 -48.5 -107.5t-53.5 -134.5q-70 -178 -70 -246q0 -29 18 -28q8 0 17 6q33 20 96.5 85.5t157.5 174.5q205 236 264 352q29 53 59 53q27 0 27 -32q0 -31 -33 -70 q-76 -90 -163 -189.5t-183 -207.5q-215 -232 -229 -224z" />
<glyph unicode="w" horiz-adv-x="989" d="M115 -39q-10 0 -31 21q-10 10 -10 47q0 76 32 188q20 66 44 123t53 106q47 78 96 78q25 0 43 -17.5t18 -35.5q0 -6 -2 -8q-31 -29 -102 -127q-35 -59 -63.5 -129t-49.5 -152q33 51 89.5 114.5t138.5 139.5q63 59 119.5 107.5t107.5 85.5q0 2 2 2v2q43 61 113 61 q27 0 26 -16q0 -8 -10 -23q-59 -53 -123 -192q-66 -150 -65 -236q0 -70 53 -69q111 0 229 110q158 145 185 394q10 74 47 79h6q25 0 33 -20l6 -33q-4 -164 -176 -366q-178 -211 -334 -211q-133 0 -133 163q0 117 80 259q-260 -201 -400 -429q-10 -16 -22 -16z" />
<glyph unicode="x" horiz-adv-x="614" d="M57 -150q-12 -2 -24.5 17.5t-12.5 44.5q0 111 326 364l31 27l-8 64q-8 45 -15.5 73.5t-11.5 42.5q-14 53 -37 56q-14 0 -39.5 -14.5t-34.5 -14.5q-16 0 -16 12q0 16 57 45q33 16 64 27.5t63 19.5q25 6 41 -55q4 -16 13.5 -63t23.5 -123q147 82 223 178q41 66 107 143 q10 6 10 -12q0 -92 -137 -209q-111 -94 -197 -139q10 -59 20.5 -114.5t24.5 -108.5q4 -18 23 -19q29 0 94 53q23 18 33 19l4 -4q0 -8 -25 -37q-37 -45 -92 -86q-63 -45 -104 -43q-43 2 -74 268q-23 -14 -56.5 -38.5t-76.5 -61.5q-41 -37 -72.5 -75t-52.5 -79 q-23 -43 -41 -110q-13 -46 -31 -48z" />
<glyph unicode="y" horiz-adv-x="712" d="M18 -631q-78 0 -77 78q0 63 55 152q35 55 89 117.5t130 131.5q135 131 287 228q35 86 60.5 163.5t43.5 145.5q-14 -25 -157 -192q-174 -205 -240 -205q-8 0 -12 2l-62 33q-29 16 -35 31.5t-6 31.5q0 55 33 157.5t102 250.5q31 66 70 65q29 0 55 -43l-90 -178 q-96 -188 -96 -262q0 -49 33 -49q66 0 245 223q59 72 109.5 138.5t91.5 129.5q14 20 41 21q49 0 49 -37q0 -8 -6 -19q-16 -57 -44 -140t-66 -196q66 39 104 39q16 0 16 -8q0 -20 -51 -39q-20 -8 -43.5 -18t-50.5 -25q-143 -356 -346 -588q-123 -139 -232 -139zM61 -588 q39 0 95 64q182 205 319 536q-272 -203 -405 -422q-45 -72 -45 -127q-1 -51 36 -51z" />
<glyph unicode="z" horiz-adv-x="765" d="M516 -10q-14 0 -29.5 1t-31.5 1q-66 -2 -149 1t-185 9q-25 4 -39 37q-12 23 -12 33q39 49 131 125.5t239 179.5q242 172 215 174q-23 2 -44 3t-42 1q-131 0 -202 -39q-61 -33 -80 -33q-25 0 -25 27q0 20 19.5 48t40.5 32q61 16 204 18q25 0 47.5 1t42.5 1q70 0 109 -6 q18 -4 39 -37q25 -33 24 -55q0 -8 -4 -12q-98 -63 -169.5 -111.5t-118.5 -81.5q-201 -139 -324 -250q-4 -8 70 -16q84 -12 166 -12q111 0 178 20q141 41 159 109q4 12 13 12q31 0 30 -59q0 -37 -28 -66q-51 -55 -244 -55z" />
<glyph unicode="{" horiz-adv-x="897" d="M662 -133q-150 4 -203 92q-23 39 -23 90q0 59 27 141l45 140q29 90 29 137q0 45 -39 98q-45 61 -95 82l86 47q78 41 160 172q23 29 43 92q57 154 68 175q49 106 108 141l84 47q31 18 101 31q20 4 54 11t81 17q-31 -59 -123 -77l-76 -9q-43 -2 -71 -20q-55 -35 -95 -164 l-55 -190q-39 -117 -246 -238q113 -74 113 -166q0 -31 -8.5 -69.5t-24.5 -81.5q-10 -33 -22.5 -67t-24.5 -67q-33 -96 -33 -155q0 -45 19 -76q41 -74 178 -94q41 6 53 4q6 -2 6 -8q0 -18 -55 -29q-36 -8 -61 -6z" />
<glyph unicode="|" horiz-adv-x="299" d="M100 1348h74v-1348h-74v1348z" />
<glyph unicode="}" horiz-adv-x="958" d="M94 -141q31 59 123 78l76 6q43 2 72 20q55 39 94 166l55 190q39 117 246 238q-113 74 -113 166q0 33 9.5 69.5t23.5 81.5l47 134q33 96 33 155q0 43 -19 76q-39 70 -178 94q-20 -4 -33.5 -5t-19.5 1q-6 4 -6 6q0 20 55 29q18 4 33.5 6t28.5 2q152 -6 202 -92 q23 -39 23 -90q0 -57 -27 -143l-45 -140q-12 -41 -20.5 -74.5t-8.5 -60.5q0 -47 39 -100q43 -59 95 -80l-86 -47q-80 -45 -162 -172q-18 -29 -41 -94l-68 -175q-49 -104 -108 -139l-84 -49q-14 -8 -40 -15t-61 -14q-20 -2 -54 -10t-81 -18z" />
<glyph unicode="~" horiz-adv-x="634" d="M561 899q-78 0 -180 66q-98 68 -133 67q-37 0 -78 -43q-37 -41 -45 -41t-8 13q0 35 61 83q59 47 107 48q70 0 155 -56l105 -67q29 -12 53 -13q37 0 66 27q33 27 36 27l9 -4q6 -20 -41 -62q-52 -45 -107 -45z" />
<glyph unicode="&#xa1;" horiz-adv-x="688" d="M479 223q-43 0 -73 45q-2 2 -3 8q0 18 21 54q29 49 41 49q35 4 72.5 -8.5t33.5 -32.5q-6 -25 -26 -49q-35 -45 -42.5 -55.5t-23.5 -10.5zM10 -852q-25 0 -28 25q0 6 108 192q66 115 117 205t86 160q111 219 110 311q0 31 -12 45q-25 35 -24 47q0 10 10 10q23 0 63 -41 q41 -39 31 -73l-8 -97q-8 -45 -25.5 -101t-46.5 -122q-39 -94 -99.5 -210.5t-141.5 -256.5q-12 -20 2 -20q6 0 27.5 6t29.5 6t10 -6q6 -27 -59 -43l-74 -12q-45 -25 -76 -25z" />
<glyph unicode="&#xa2;" horiz-adv-x="819" d="M127 -203q-18 0 -25 8q-14 16 -4 33l226 436q-41 25 -70 73t-29 116q0 66 30 144.5t82 158.5t122 143q33 31 60.5 51.5t49.5 32.5q63 31 121 31h19l34 72q35 66 58.5 115t42.5 81q57 111 84.5 156t42.5 45q6 0 7 -6t1 -10q-4 -16 -60.5 -133t-162.5 -334q27 -12 47 -39 t20 -51q0 -45 -35 -46q-27 0 -38 37q-8 27 -25 39q-23 -47 -48.5 -97t-51.5 -105q-57 -117 -115.5 -235t-112.5 -224q12 -4 33 -4q49 0 108.5 23.5t123.5 74.5q57 41 81 41q18 0 7 -22.5t-66 -61.5q-82 -57 -140.5 -77.5t-117.5 -20.5q-25 0 -49 6q-70 -137 -120 -239.5 t-69 -137.5l-32 -64q-6 -10 -29 -10zM326 426q0 -68 22 -102l330 634l2 5q-57 -4 -129 -76q-82 -76 -152 -209q-35 -70 -54 -133.5t-19 -118.5z" />
<glyph unicode="&#xa3;" horiz-adv-x="1548" d="M680 571q-20 0 -29.5 4.5t-19.5 6.5q12 61 100 61h74h74q43 98 88 196.5t92 182.5t96 139q35 39 94.5 73t116.5 34q66 0 103.5 -38t37.5 -100q0 -66 -20 -65q-8 0 -18.5 21.5t-10.5 60.5q0 29 -12 53.5t-43 24.5q-14 0 -33 -6q-84 -33 -150.5 -122t-123 -210t-113.5 -246 q53 0 105.5 -1t103.5 -1q18 0 18 -6t-21.5 -14.5t-43.5 -10.5q-23 -4 -54.5 -7t-74.5 -7q-29 -4 -58 -6q-57 -127 -123.5 -235.5t-150.5 -162.5q41 -25 102.5 -44t131 -32.5t136 -20.5t113.5 -7q35 0 81 4t90 16.5t73 39t29 71.5q0 29 -14.5 46.5t-30 28.5t-15.5 21t9 11 q4 0 12 -1t12 -6q31 -20 57.5 -47.5t26.5 -64.5q0 -72 -46 -118t-111.5 -66.5t-125.5 -20.5q-84 0 -192.5 25.5t-214 62.5t-180.5 74q-51 -31 -104.5 -51.5t-116.5 -20.5t-129 28.5t-110 80t-44 116.5q0 33 20.5 45.5t51.5 12.5q61 0 140 -30t156.5 -68.5t133.5 -65.5 q57 45 113.5 145.5t111.5 223.5q-43 -2 -75 -3.5t-56 -1.5q-10 -2 -20.5 -2h-18.5zM387 135q39 0 96.5 14.5t89.5 34.5q-25 16 -65.5 36t-86.5 37t-82 28.5t-52 11.5q-25 0 -36 -3t-11 -20q0 -57 37.5 -98t109.5 -41z" />
<glyph unicode="&#xa4;" horiz-adv-x="946" d="M211 721q-6 6 -6 18q0 14 8 30.5t16 27.5q4 6 34 29.5t65 50.5q-23 49 -23 102q0 39 11.5 72.5t31.5 62.5q-35 47 -56.5 87t-8.5 54q16 18 39 19q18 0 30 -12q18 -20 37 -39l37 -37q53 27 109 26q92 0 157 -59q53 41 105.5 82t103.5 84q10 -10 0 -32.5t-29.5 -47.5 t-39 -45t-25.5 -29q-16 -18 -34.5 -35.5t-35.5 -33.5q31 -51 31 -117q0 -72 -35 -125q29 -33 61.5 -63.5t65.5 -59.5l-10 -8q-14 -14 -62.5 11.5t-101.5 64.5q-63 -53 -151 -54q-84 0 -148 54q-57 -39 -109.5 -65.5t-66.5 -12.5zM532 815q72 0 117 47t45 117q0 66 -45 112 t-117 46q-66 0 -111.5 -46.5t-45.5 -111.5q0 -70 45.5 -117t111.5 -47z" />
<glyph unicode="&#xa5;" horiz-adv-x="1015" d="M154 -12q-31 0 -31 16q0 41 10 90t31 107l74 188q-90 -8 -97 -10v0v0v0q-12 0 -24.5 18.5t-14.5 28.5l2 6q25 6 152 12q8 23 19.5 63t25.5 95q-18 0 -78 -6q-49 -6 -80 -6q-10 0 -24.5 18.5t-16.5 28.5l2 4q33 10 209 14q8 35 11.5 74t3.5 80q0 96 -15.5 189.5 t-36.5 144.5q-25 61 -24 59q0 23 61 23q35 0 54.5 -43t27.5 -110.5t8 -143.5q0 -80 -7 -154t-19 -119l8 -2q57 59 135 137t161 158t157.5 148.5t129 110.5t70.5 42q27 0 34 -7t7 -17q-186 -131 -336.5 -273.5t-289.5 -300.5q121 -10 145 -20q6 -2 6 -6q0 -10 -12 -11 q-61 0 -170 -6q-29 -41 -51.5 -82t-38.5 -82q211 0 266 -22q6 -2 6 -6q0 -12 -12 -13q-57 0 -126 -3t-153 -7q-14 -45 -28.5 -106.5t-28.5 -141.5q-2 -20 -7 -49.5t-13 -68.5q-12 -39 -82 -39z" />
<glyph unicode="&#xa6;" horiz-adv-x="299" d="M100 1348h74v-596h-74v596zM100 502h74v-502h-74v502z" />
<glyph unicode="&#xa7;" horiz-adv-x="1167" d="M346 -86q-240 0 -240 154q0 90 113 170q41 29 89 53t106 43q16 6 26 6q14 0 15 -6q0 -10 -37 -23q-45 -16 -86 -38.5t-76 -51.5q-90 -72 -90 -149q0 -106 213 -107q154 0 326 58q217 68 260 172q8 16 8 32q0 104 -285 187q-125 37 -174 63q-102 55 -102 137q0 68 47 121 q-10 25 -10 45q0 121 217 207q178 72 319 72q188 0 189 -107q0 -8 -1.5 -17t-3.5 -17q-6 -31 -39.5 -64t-64.5 -33q-10 0 -10 6q0 -2 30 37q31 41 31 72q0 78 -131 78q-115 0 -278 -58q-201 -72 -201 -155q0 -47 78 -82q80 -27 159.5 -51.5t159.5 -49.5q221 -82 221 -192 q0 -41 -28.5 -89t-61.5 -73q0 -37 -28 -82q-78 -119 -299 -198q-191 -70 -361 -70zM1028 293q49 66 49 100q0 80 -135 142q-27 10 -94.5 32.5t-175.5 55.5q-166 53 -199 92q-12 -27 -12 -53q0 -86 133 -146l260 -90q149 -55 174 -133z" />
<glyph unicode="&#xa8;" horiz-adv-x="407" d="M276 723q-12 0 -24 25q-16 35 -19.5 39t-3.5 10q0 37 107 37q57 0 57 -15q0 -2 -2 -4q-20 -8 -55 -31l-47 -55q-7 -6 -13 -6zM47 723q-12 0 -24 25q-16 35 -19.5 39t-3.5 10q0 37 106 37q57 0 58 -15q0 -2 -2 -4q-20 -8 -56 -31l-47 -55q-6 -6 -12 -6z" />
<glyph unicode="&#xa9;" horiz-adv-x="1306" d="M444 59q-145 0 -249 86q-111 90 -111 234q0 242 260 469q250 221 496 221q145 0 247 -90t103 -234q0 -238 -252 -462q-248 -224 -494 -224zM473 102q217 0 428 205t211 422q0 131 -81 215t-212 84q-229 0 -446 -211q-215 -211 -215 -440q0 -123 98 -201q90 -74 217 -74z M440 236q-70 0 -116 30q-55 35 -56 101q0 188 205 374q199 180 391 181q100 0 101 -82q0 -61 -37 -66l-10 8q6 55 10 52q-4 70 -74 69q-160 0 -338 -192q-178 -190 -178 -353q0 -98 96 -98q102 0 264 88q160 88 148 90q6 0 6 -6q0 -70 -174 -137q-154 -59 -238 -59z" />
<glyph unicode="&#xaa;" horiz-adv-x="491" d="M573 776q-41 0 -74.5 26.5t-39.5 51.5q-6 29 76 205l-48 -68q-33 -45 -62.5 -79.5t-55.5 -61.5q-78 -74 -131 -62q-123 29 -123 140q0 88 84 225q27 41 67.5 82t93.5 80q137 100 265 100q78 0 147 -41q23 -16 23 -35q0 -14 -9 -14q-2 0 -4 2q-43 47 -114 47 q-84 0 -182.5 -63.5t-176.5 -169.5q-111 -154 -110 -250q0 -55 39 -70q49 -20 208 183q66 80 110 143t71 108q12 23 45 23q61 0 61 -37q0 -6 -2 -8q-178 -283 -178 -383q0 -25 14 -27q43 -12 144 64q121 90 227 239q23 31 41 31q6 0 6 -4q0 -10 -18 -39q-43 -68 -95.5 -127 t-115.5 -110q-90 -76 -148 -95q-15 -6 -35 -6z" />
<glyph unicode="&#xab;" horiz-adv-x="860" d="M731 279l-16 8q-23 31 -51.5 61.5t-63.5 59.5l-133 104q-6 4 -6 12q0 20 108 176q47 66 81 112t55 71q18 23 38 22q12 0 13 -12q0 -31 -203 -313q201 -254 201 -275q0 -30 -23 -26zM444 279l-16 8q-47 63 -117 121l-131 104q-6 4 -6 12q0 25 107 176q47 66 80.5 112 t54.5 71q18 23 39 22q14 0 14 -12q0 -31 -203 -313q199 -250 199 -275q-1 -28 -21 -26z" />
<glyph unicode="&#xac;" horiz-adv-x="1097" d="M778 150q-31 -6 -26 6q-2 18 88 227q35 76 48 111.5t23 52.5q-10 -2 -117.5 -5t-263.5 -7q-78 -2 -140 -3.5t-109 -1.5q-63 0 -100.5 1t-47.5 1h-4q-27 8 -27 21q0 10 27 22l637 15q78 2 120 4t93 2q16 0 16 -12q0 -16 -24.5 -57.5t-48.5 -98.5q-51 -119 -77 -184.5 t-32 -75.5q-6 -6 -15.5 -10t-19.5 -8z" />
<glyph unicode="&#xad;" horiz-adv-x="534" d="M240 442q-25 0 -36 1t-16 3q-12 6 -18 27q-2 6 -2 14q0 12 8 15q10 6 44 8t136 2q96 0 168 -6t72 -21q-2 -2 -3 -5t-5 -5q-8 -6 -66.5 -13t-120.5 -11q-59 -4 -98.5 -6.5t-62.5 -2.5z" />
<glyph unicode="&#xae;" horiz-adv-x="1306" d="M444 59q-145 0 -249 86q-111 90 -111 234q0 242 260 469q250 221 496 221q145 0 247 -90t103 -234q0 -238 -252 -462q-248 -224 -494 -224zM836 252q276 221 276 477q0 131 -81 215t-212 84q-225 0 -438 -201q184 72 346 72q98 0 172 -31q102 -41 102 -125 q0 -102 -145 -161q-55 -23 -113.5 -34t-119.5 -13q27 -96 73 -175q64 -104 140 -108zM473 102q160 0 324 119q-76 18 -150 133q-57 88 -86 187q-18 0 -24 6l22 8l14 10l19 -6q358 49 358 199q0 117 -231 116q-78 0 -203 -38q-119 -33 -197 -74q-162 -193 -161 -385 q0 -123 98 -201q90 -74 217 -74zM307 156q-23 0 -22 73q0 90 164 328q70 102 129 178t110 127l45 -22q-2 -2 -17.5 -24.5t-47.5 -63.5q-70 -88 -121 -156t-86 -119q-66 -96 -101.5 -171t-44.5 -128q-4 -22 -8 -22z" />
<glyph unicode="&#xaf;" horiz-adv-x="385" d="M51 739q-33 0 -37 2q-2 4 -6 9.5t-6 15.5q-2 25 4 27q18 14 158 14q111 0 166 -3t55 -20q-2 -2 -3 -5t-5 -5q-10 -12 -180 -29q-101 -6 -146 -6z" />
<glyph unicode="&#xb0;" horiz-adv-x="638" d="M344 754q-53 0 -91 37.5t-38 93.5q0 53 38 92t91 39q55 0 93 -39t38 -92q0 -55 -38 -93t-93 -38zM342 788q41 0 68.5 28t27.5 69q0 39 -27.5 66.5t-68.5 27.5q-39 0 -66.5 -27.5t-27.5 -66.5q0 -41 27.5 -69t66.5 -28z" />
<glyph unicode="&#xb1;" horiz-adv-x="696" d="M297 297q-8 0 -14.5 14.5t-6.5 26.5q0 8 7.5 48t14.5 80t7 50q-8 0 -41 1t-69.5 4t-64.5 9.5t-28 14.5q0 12 8.5 22.5t22.5 10.5h182q10 57 17.5 99t11.5 77q8 55 31 55q10 0 12 -16.5t2 -32.5q0 -45 -4 -91t-8 -89h110q27 0 49.5 1t36.5 1q20 0 21 -15q0 -10 -35 -22.5 t-86 -19.5t-102 -7q-2 -10 -9.5 -45t-18.5 -76t-23.5 -70.5t-22.5 -29.5zM174 131q-41 0 -45 2q-8 4 -16 23q-2 6 -2 12q0 10 8 12q16 8 192 8q233 0 234 -20q-2 -2 -3 -5t-3 -5q-8 -4 -54.5 -10.5t-134.5 -10.5q-119 -6 -176 -6z" />
<glyph unicode="&#xb2;" horiz-adv-x="1024" d="M678 670q-82 0 -229 53q-150 53 -195 53q-121 -57 -145 -57q-31 0 -31 26q0 18 15.5 36t35.5 24q18 4 41 7t49 3h19.5t19.5 -2q221 150 305 225q68 66 94 109q41 61 41 135q0 82 -90 82q-74 0 -172 -49q-102 -49 -149 -103q-4 -4 -8 -4q-12 0 -13 15q0 8 4 10 q74 74 191 129t205 55q119 0 118 -106q0 -78 -71 -170q-20 -25 -53 -58.5t-80 -76.5q-51 -47 -125 -99.5t-168 -105.5q55 -6 186 -47q127 -43 205 -43q53 0 86 20.5t33 48.5q0 53 -84 82q-8 0 -8 8q0 14 18 7q109 -29 108 -101q0 -43 -40 -74q-45 -32 -113 -32z" />
<glyph unicode="&#xb3;" horiz-adv-x="1122" d="M418 629q-68 0 -123 12t-98 33q-94 47 -95 133q0 27 13 59q20 57 108 99q74 33 135 32q14 0 15 -8q0 -12 -15 -12q-41 0 -100 -37q-63 -45 -70 -90q-2 -8 -2 -21q0 -117 150 -157q29 -8 57.5 -11.5t57.5 -3.5q100 0 204 45q94 41 147.5 104.5t71.5 145.5q0 6 1.5 13.5 t1.5 13.5q0 59 -64 92q-55 25 -139 25q-80 0 -123 -21q-12 -4 -23 -4q-27 0 -26 25q0 33 30 32q113 0 201 37q59 23 87 60t28 82q0 72 -88 71q-43 0 -95.5 -16t-101.5 -40t-84 -48q-4 -4 -6 -4q-12 0 -12 24q0 27 16 33t38 22.5t46 47.5q2 4 10 4t9 -8q0 -4 -17 -27 q66 29 121 44t102 15q68 0 105 -37.5t37 -91.5q0 -106 -203 -168q94 -8 154 -43q70 -45 69 -116q0 -80 -47 -144.5t-137 -113.5q-76 -39 -163 -60.5t-183 -21.5z" />
<glyph unicode="&#xb4;" horiz-adv-x="247" d="M6 725q-4 0 -4 4q0 8 31 39q47 41 93 84t67 72q8 8 16 8q12 0 25.5 -16.5t13.5 -32.5q0 -8 -6 -15q-47 -37 -98.5 -73.5t-90.5 -53.5q-39 -16 -47 -16z" />
<glyph unicode="&#xb5;" horiz-adv-x="638" d="M-221 -614q-45 0 -45 55q0 106 129 360q16 29 75.5 138.5t165.5 296.5q129 231 129 282q0 27 -22 27q-31 0 -66 -33q-37 -31 -49 -31q-2 2 -2 4q0 20 70 60q72 43 92 43q59 0 59 -39q0 -61 -110 -262l-47 -82q-14 -29 -15 -66q0 -57 50 -57q66 0 237 299q12 29 43 80 q12 16 29 16q18 0 33.5 -15.5t15.5 -35.5q0 2 -74 -137q-72 -139 -71 -215q0 -72 67 -72q57 0 133 66q23 23 50.5 53.5t58.5 68.5q53 66 55 66q8 0 8 -12t-12 -35q-29 -47 -62.5 -88t-72.5 -76q-100 -90 -185 -90q-115 0 -114 143q0 35 30 129q-35 -51 -57 -83.5t-33 -45.5 q-70 -80 -122 -80q-47 0 -64 68q-285 -477 -285 -621q0 -29 25 -28q16 0 48 20.5t48 20.5l4 -2q-4 -25 -59 -58q-57 -32 -88 -32z" />
<glyph unicode="&#xb6;" horiz-adv-x="1122" d="M-74 -362q-29 0 -32 18q6 12 20 12q180 0 365 375q29 59 83 194.5t130 346.5q-315 27 -316 231q0 176 199 307q180 119 364 119q18 0 46 1t65 3t64.5 3t46.5 1q53 0 79 -8q84 86 174 86q53 0 66 -27q-6 -6 -38 -10t-54 -18q-109 -63 -260 -400l-250 -602 q-141 -332 -236 -385q-8 -6 -24 -6q-12 0 -12 8q4 10 28 33q111 104 246 506q35 102 68.5 204.5t68.5 205.5q94 246 203 376h-21q-141 0 -323 -381q-41 -84 -92.5 -214t-114.5 -306q-78 -213 -211 -407q-180 -266 -332 -266z" />
<glyph unicode="&#xb7;" horiz-adv-x="577" d="M123 661q-31 -4 -69 7.5t-38 29.5q0 12 8.5 25.5t20.5 27.5q35 43 42 54.5t23 11.5q39 0 72 -45q2 -2 2 -8q0 -14 -22 -54q-27 -49 -39 -49z" />
<glyph unicode="&#xb8;" horiz-adv-x="356" d="M113 -317q-51 0 -78 18t-33 45q0 2 -1 3t-1 3q0 16 12.5 29.5t22.5 13.5q16 0 16 -18q-4 -35 22.5 -49.5t61.5 -14.5q25 0 47.5 5.5t36.5 11.5q41 20 41 57q0 20 -12 37.5t-29 21.5q-4 2 -25.5 5.5t-64.5 3.5h-6t-10 -2q-14 -2 -21 0q-8 4 -12 12v6q-2 2 -2 8 q4 10 19.5 25.5t27.5 23.5l92 74q8 8 14 8q10 0 11 -16l-54 -55q-14 -14 -26 -26.5t-19 -23.5q16 4 30.5 5.5t25.5 1.5q55 0 87.5 -15.5t32.5 -56.5v-12.5t-2 -12.5q-6 -35 -39.5 -61.5t-78.5 -40.5t-86 -14z" />
<glyph unicode="&#xb9;" horiz-adv-x="626" d="M123 643q-8 0 -14.5 12.5t-6.5 24.5t7 14q18 8 45.5 18.5t60.5 22.5q33 88 80 219t113 303q-31 -20 -68 -39.5t-80 -37.5h-8q-10 0 -10 14q0 8 8 12q72 29 190 135l4 13q6 20 45 20q35 0 35 -18q0 -2 -1 -4l-1 -2l-256 -607q39 8 79 11.5t81 3.5q14 0 14 -13 q0 -14 -14 -14q-76 0 -154 -26q-16 -6 -53 -20.5t-92 -39.5q-2 0 -2 -1t-2 -1z" />
<glyph unicode="&#xba;" horiz-adv-x="391" d="M264 801q-150 0 -149 184q0 184 147 352q2 2 -2 15.5t-4 19.5q0 12 8 19q72 57 168 57q27 0 43 -10q20 -8 38.5 -16.5t35.5 -18.5q78 -47 108 -98q51 2 86 4t54 4h8q18 0 18 -15q0 -4 -8 -6q-23 -4 -58.5 -10t-86.5 -12q6 -14 6 -33q0 -14 -2 -20q-31 -166 -162 -291 q-127 -125 -248 -125zM608 1305q-33 51 -129 51q-74 0 -96 -17q-6 -2 -12 -8t-15 -14q115 -14 252 -12zM270 834q90 0 207 129q119 129 141 249l3.5 17.5t1.5 13.5q0 12 -5 25q-39 -2 -79.5 -2h-81.5h-75t-60 2q-82 -111 -103 -178q-25 -76 -24 -146q-1 -110 75 -110z" />
<glyph unicode="&#xbb;" horiz-adv-x="860" d="M506 264q-12 0 -12 12q0 31 202 314q-201 256 -200 274q0 31 22 27l17 -8q45 -61 113.5 -117.5t133.5 -108.5q6 -2 6 -12q0 -20 -108 -176q-45 -66 -79 -112t-56 -70q-19 -23 -39 -23zM186 264q-12 0 -12 12q0 31 203 314q-201 256 -201 274q0 31 23 27l16 -8 q45 -61 113.5 -117.5t134.5 -108.5q6 -2 6 -12q0 -20 -109 -176q-45 -66 -78.5 -112t-56.5 -70q-19 -23 -39 -23z" />
<glyph unicode="&#xbc;" horiz-adv-x="1605" d="M209 643q-8 0 -14.5 12.5t-6.5 24.5t7 14q18 8 45.5 18.5t60.5 22.5q33 88 80 219t113 303q-31 -20 -68 -39.5t-80 -37.5h-8q-10 0 -10 14q0 8 8 12q72 29 190 135l4 13q6 20 45 20q35 0 35 -18q0 -2 -1 -4l-1 -2l-256 -607q39 8 79 11.5t81 3.5q14 0 14 -13 q0 -14 -14 -14q-76 0 -154 -26q-16 -6 -53 -20.5t-92 -39.5q-2 0 -2 -1t-2 -1zM12 -225q-12 0 -12 8q8 59 74 164q27 43 87 120.5t141 177t171 209t180 215t168 195.5t134.5 150.5t76.5 79.5q12 12 37 12t46.5 -10.5t17.5 -26.5q-158 -178 -333 -365.5t-337 -370.5 t-285 -347q-35 -47 -57.5 -88t-24.5 -66q0 -20 -32 -38.5t-52 -18.5zM1165 -51q-12 0 -14 10q-27 33 -27 68q0 117 29 225q-98 27 -166 27q-47 0 -139 -31q-39 -12 -67.5 -20.5t-32.5 -8.5q-14 0 -25.5 16.5t-11.5 30.5q0 29 24 35q16 4 32.5 9t37.5 7q362 201 584 400l8 16 q6 8 24 8q23 0 38.5 -10t8.5 -20l-129 -217q-37 -61 -65.5 -114.5t-50.5 -98.5q47 -14 85 -21.5t68 -7.5q39 0 62.5 20.5t23.5 49.5q0 4 -1 8t-3 10q0 4 -1 7t-1 7q-4 12 -4 17q0 12 12 12q10 0 23 -12q39 -51 39 -84q0 -74 -150 -74q-33 0 -76 7t-94 20q-43 -111 -43 -213 q0 -20 19 -45q0 -2 2 -5q0 -2 1 -3t1 -5q-1 -20 -21 -20zM1165 299q18 53 51 118.5t80 145.5l19 27q-70 -53 -170.5 -117.5t-235.5 -140.5q39 2 74 2q65 0 182 -35z" />
<glyph unicode="&#xbd;" horiz-adv-x="1929" d="M262 549q-10 -4 -19.5 11t-9.5 32q0 10 9 14q23 8 56.5 22.5t78.5 30.5q41 111 103.5 280t146.5 394q-84 -57 -195 -104q-4 -2 -10 -2q-10 0 -10 16q0 8 10 12q88 37 242 177l6 14q8 25 55 24q41 0 41 -18q0 -4 -2 -8l-328 -776q47 8 99.5 14t109.5 6q14 0 14 -14 t-14 -15q-96 0 -199 -34q-20 -8 -66 -26.5t-118 -49.5zM326 57q-12 0 -13 9q8 59 74 163q29 41 88.5 119t140 178.5t171 210t180.5 215t167.5 195.5t133 150.5t78.5 78.5q10 12 36 13q25 0 47.5 -11.5t16.5 -25.5q-119 -133 -248 -273.5t-257 -280t-242.5 -273.5 t-206.5 -257q-37 -49 -58.5 -89t-23.5 -64q0 -14 -15.5 -27.5t-36 -22t-32.5 -8.5zM1499 129q-82 0 -229 53q-150 53 -195 54q-121 -57 -145 -58q-31 0 -31 27q0 18 15.5 35.5t35.5 23.5q18 4 41 7t49 3h19.5t19.5 -2q221 150 305 226q68 66 95 108q41 61 41 135 q0 82 -90 82q-74 0 -173 -49q-102 -49 -149 -102q-4 -4 -8 -4q-12 0 -13 14q0 8 5 10q74 74 190 129q117 55 205 56q119 0 119 -107q0 -78 -72 -170q-20 -25 -53 -58.5t-80 -76.5q-51 -47 -125 -99.5t-168 -105.5q55 -6 186 -47q127 -43 205 -43q53 0 86 20.5t33 49.5 q0 53 -84 82q-8 0 -8 8q0 14 18 6q109 -29 109 -100q0 -43 -41 -74q-45 -33 -113 -33z" />
<glyph unicode="&#xbe;" horiz-adv-x="2076" d="M418 629q-68 0 -123 12t-98 33q-94 47 -95 133q0 27 13 59q20 57 108 99q74 33 135 32q14 0 15 -8q0 -12 -15 -12q-41 0 -100 -37q-63 -45 -70 -90q-2 -8 -2 -21q0 -117 150 -157q29 -8 57.5 -11.5t57.5 -3.5q100 0 204 45q94 41 147.5 104.5t71.5 145.5q0 6 1.5 13.5 t1.5 13.5q0 59 -64 92q-55 25 -139 25q-80 0 -123 -21q-12 -4 -23 -4q-27 0 -26 25q0 33 30 32q113 0 201 37q59 23 87 60t28 82q0 72 -88 71q-43 0 -95.5 -16t-101.5 -40t-84 -48q-4 -4 -6 -4q-12 0 -12 24q0 27 16 33t38 22.5t46 47.5q2 4 10 4t9 -8q0 -4 -17 -27 q66 29 121 44t102 15q68 0 105 -37.5t37 -91.5q0 -106 -203 -168q94 -8 154 -43q70 -45 69 -116q0 -80 -47 -144.5t-137 -113.5q-76 -39 -163 -60.5t-183 -21.5zM389 -225q-12 0 -12 8q8 59 74 164q27 43 87 120.5t141 177t172 209t180 215t168 195.5t134.5 150.5t75.5 79.5 q12 12 37 12t46 -10.5t17 -26.5q-158 -178 -333 -365.5t-336.5 -370.5t-284.5 -347q-35 -47 -57.5 -88t-24.5 -66q0 -20 -32 -38.5t-52 -18.5zM1487 -51q-12 0 -14 10q-27 33 -27 68q0 117 29 225q-98 27 -166 27q-47 0 -140 -31q-39 -12 -67.5 -20.5t-32.5 -8.5 q-14 0 -25.5 16.5t-11.5 30.5q0 29 25 35q16 4 32.5 9t36.5 7q362 201 584 400l8 16q6 8 25 8q23 0 38 -10t9 -20l-129 -217q-37 -61 -65.5 -114.5t-51.5 -98.5q47 -14 85 -21.5t69 -7.5q39 0 62.5 20.5t23.5 49.5q0 4 -1 8t-3 10q0 4 -1 7t-1 7q-4 12 -4 17q0 12 12 12 q10 0 22 -12q39 -51 39 -84q0 -74 -149 -74q-33 0 -76 7t-94 20q-43 -111 -43 -213q0 -20 18 -45q0 -2 2 -5q0 -2 1 -3t1 -5q0 -20 -20 -20zM1487 299q18 53 51 118.5t80 145.5l18 27q-70 -53 -170 -117.5t-235 -140.5q39 2 74 2q65 0 182 -35z" />
<glyph unicode="&#xbf;" horiz-adv-x="1021" d="M680 348q-45 0 -72 45q-2 2 -2 8q0 18 21 54q27 47 41 51q35 4 70.5 -8.5t35.5 -30.5q0 -10 -8 -23.5t-21 -29.5q-31 -41 -39 -53.5t-26 -12.5zM571 -674q-145 0 -272 72q-133 74 -178 192q-10 27 -10 50q0 125 340 284q221 104 221 168q0 41 -90 58q-45 8 -45 28 q0 8 18 8q23 0 84 -16q131 -33 131 -102q0 -84 -152 -150q-227 -96 -299 -141q-111 -70 -110 -158v-12t2 -15q8 -61 129 -133q125 -76 258 -75q88 0 158 36q57 31 57 78q0 29 -20 62q-2 6 -29 43q0 6 2 8q109 -47 108 -127q0 -55 -73 -98q-103 -60 -230 -60z" />
<glyph unicode="&#xc0;" horiz-adv-x="2164" d="M469 -244q-119 0 -214 43t-155 117q-92 115 -92 285q0 121 45 219q90 209 299 358q207 147 404 148q123 0 207 -61.5t84 -176.5q0 -80 -42 -154.5t-106 -99.5q-4 0 -8 3t-2 5q35 49 63.5 103.5t28.5 120.5q0 63 -38 111t-96.5 76t-119.5 28q-84 0 -168 -39t-168 -103 q-180 -141 -246 -362q-31 -98 -30 -191q0 -176 121 -284q49 -43 104 -66.5t119 -23.5q207 0 451.5 150.5t519.5 455.5l-187 -4q-88 2 -88 37q0 41 86 86q35 12 47 12q18 0 23 -29q4 -27 18 -31q35 -2 74 -3t84 -1q193 236 349.5 393.5t292.5 254t263 143.5q18 8 45 8 q70 0 70 -43q0 -18 -21 -39q-274 -291 -401 -694q31 2 58.5 4t51.5 6q10 2 17.5 2h15.5q37 0 37 -10q0 -33 -192 -47q-51 -168 -52 -313q0 -135 41 -158q4 -2 8.5 -3t8.5 -1q18 0 37 20l20 19q4 -4 4 -15q0 -41 -25.5 -77.5t-60.5 -36.5q-23 0 -45 18q-63 51 -63 195v33.5 t2 33.5q4 59 15 129t30 152l-496 -35q-287 -330 -543 -499t-485 -169zM1552 485q78 2 192 6.5t259 10.5q96 332 197 516q16 33 35.5 63.5t39.5 59.5q-51 -16 -114.5 -56.5t-121 -85.5t-93.5 -77q-106 -96 -202 -208t-192 -229zM2562 1393q-12 0 -49 12q-39 16 -92.5 49 t-102.5 66q-4 6 -8 14q0 16 12 32.5t25 18.5q8 0 14 -8q25 -27 74 -66.5t98 -76.5q35 -29 35 -37q0 -4 -6 -4z" />
<glyph unicode="&#xc1;" horiz-adv-x="2164" d="M469 -244q-119 0 -214 43t-155 117q-92 115 -92 285q0 121 45 219q90 209 299 358q207 147 404 148q123 0 207 -61.5t84 -176.5q0 -80 -42 -154.5t-106 -99.5q-4 0 -8 3t-2 5q35 49 63.5 103.5t28.5 120.5q0 63 -38 111t-96.5 76t-119.5 28q-84 0 -168 -39t-168 -103 q-180 -141 -246 -362q-31 -98 -30 -191q0 -176 121 -284q49 -43 104 -66.5t119 -23.5q207 0 451.5 150.5t519.5 455.5l-187 -4q-88 2 -88 37q0 41 86 86q35 12 47 12q18 0 23 -29q4 -27 18 -31q35 -2 74 -3t84 -1q193 236 349.5 393.5t292.5 254t263 143.5q18 8 45 8 q70 0 70 -43q0 -18 -21 -39q-274 -291 -401 -694q31 2 58.5 4t51.5 6q10 2 17.5 2h15.5q37 0 37 -10q0 -33 -192 -47q-51 -168 -52 -313q0 -135 41 -158q4 -2 8.5 -3t8.5 -1q18 0 37 20l20 19q4 -4 4 -15q0 -41 -25.5 -77.5t-60.5 -36.5q-23 0 -45 18q-63 51 -63 195v33.5 t2 33.5q4 59 15 129t30 152l-496 -35q-287 -330 -543 -499t-485 -169zM1552 485q78 2 192 6.5t259 10.5q96 332 197 516q16 33 35.5 63.5t39.5 59.5q-51 -16 -114.5 -56.5t-121 -85.5t-93.5 -77q-106 -96 -202 -208t-192 -229zM2372 1393q-6 0 -6 4q0 8 35 37q49 37 98 78 t72 67q10 6 16 6q12 -2 24.5 -18t12.5 -33q-2 -8 -8 -14q-49 -33 -102.5 -65.5t-94.5 -47.5q-18 -6 -30.5 -10t-16.5 -4z" />
<glyph unicode="&#xc2;" horiz-adv-x="2164" d="M469 -244q-119 0 -214 43t-155 117q-92 115 -92 285q0 121 45 219q90 209 299 358q207 147 404 148q123 0 207 -61.5t84 -176.5q0 -80 -42 -154.5t-106 -99.5q-4 0 -8 3t-2 5q35 49 63.5 103.5t28.5 120.5q0 63 -38 111t-96.5 76t-119.5 28q-84 0 -168 -39t-168 -103 q-180 -141 -246 -362q-31 -98 -30 -191q0 -176 121 -284q49 -43 104 -66.5t119 -23.5q207 0 451.5 150.5t519.5 455.5l-187 -4q-88 2 -88 37q0 41 86 86q35 12 47 12q18 0 23 -29q4 -27 18 -31q35 -2 74 -3t84 -1q193 236 349.5 393.5t292.5 254t263 143.5q18 8 45 8 q70 0 70 -43q0 -18 -21 -39q-274 -291 -401 -694q31 2 58.5 4t51.5 6q10 2 17.5 2h15.5q37 0 37 -10q0 -33 -192 -47q-51 -168 -52 -313q0 -135 41 -158q4 -2 8.5 -3t8.5 -1q18 0 37 20l20 19q4 -4 4 -15q0 -41 -25.5 -77.5t-60.5 -36.5q-23 0 -45 18q-63 51 -63 195v33.5 t2 33.5q4 59 15 129t30 152l-496 -35q-287 -330 -543 -499t-485 -169zM1552 485q78 2 192 6.5t259 10.5q96 332 197 516q16 33 35.5 63.5t39.5 59.5q-51 -16 -114.5 -56.5t-121 -85.5t-93.5 -77q-106 -96 -202 -208t-192 -229zM2267 1391q-18 0 -18 14q0 10 12 17 q20 16 36.5 26t28.5 19q27 16 78 45.5t105 68.5q23 16 37 17q18 0 45 -56q14 -31 53 -68.5t82 -37.5q16 0 29.5 3t23.5 11q12 10 25 11q8 0 8 -7q0 -6 -10 -16q-27 -25 -50.5 -36t-70.5 -11q-49 0 -93 36t-61 72q-8 20 -29 21q-16 0 -38 -16q-39 -29 -81 -51.5t-96 -57.5 q-4 -2 -8 -3t-8 -1z" />
<glyph unicode="&#xc3;" horiz-adv-x="2164" d="M469 -244q-119 0 -214 43t-155 117q-92 115 -92 285q0 121 45 219q90 209 299 358q207 147 404 148q123 0 207 -61.5t84 -176.5q0 -80 -42 -154.5t-106 -99.5q-4 0 -8 3t-2 5q35 49 63.5 103.5t28.5 120.5q0 63 -38 111t-96.5 76t-119.5 28q-84 0 -168 -39t-168 -103 q-180 -141 -246 -362q-31 -98 -30 -191q0 -176 121 -284q49 -43 104 -66.5t119 -23.5q207 0 451.5 150.5t519.5 455.5l-187 -4q-88 2 -88 37q0 41 86 86q35 12 47 12q18 0 23 -29q4 -27 18 -31q35 -2 74 -3t84 -1q193 236 349.5 393.5t292.5 254t263 143.5q18 8 45 8 q70 0 70 -43q0 -18 -21 -39q-274 -291 -401 -694q31 2 58.5 4t51.5 6q10 2 17.5 2h15.5q37 0 37 -10q0 -33 -192 -47q-51 -168 -52 -313q0 -135 41 -158q4 -2 8.5 -3t8.5 -1q18 0 37 20l20 19q4 -4 4 -15q0 -41 -25.5 -77.5t-60.5 -36.5q-23 0 -45 18q-63 51 -63 195v33.5 t2 33.5q4 59 15 129t30 152l-496 -35q-287 -330 -543 -499t-485 -169zM1552 485q78 2 192 6.5t259 10.5q96 332 197 516q16 33 35.5 63.5t39.5 59.5q-51 -16 -114.5 -56.5t-121 -85.5t-93.5 -77q-106 -96 -202 -208t-192 -229zM2575 1377q-31 0 -72 15t-80 36 q-39 23 -61.5 29t-34.5 6q-37 0 -61 -60q-6 -10 -13 -10q-10 0 -10 18q0 8 4 21.5t14 28.5q47 70 91 69q25 0 50 -13t58 -28l102 -45q27 -8 43 -2q14 2 25.5 12.5t22.5 24.5q10 12 15 20.5t9 14.5q6 10 12 10q10 0 5 -18q-4 -14 -7.5 -26.5t-19.5 -37.5q-16 -33 -42.5 -49 t-49.5 -16z" />
<glyph unicode="&#xc4;" horiz-adv-x="2164" d="M469 -244q-119 0 -214 43t-155 117q-92 115 -92 285q0 121 45 219q90 209 299 358q207 147 404 148q123 0 207 -61.5t84 -176.5q0 -80 -42 -154.5t-106 -99.5q-4 0 -8 3t-2 5q35 49 63.5 103.5t28.5 120.5q0 63 -38 111t-96.5 76t-119.5 28q-84 0 -168 -39t-168 -103 q-180 -141 -246 -362q-31 -98 -30 -191q0 -176 121 -284q49 -43 104 -66.5t119 -23.5q207 0 451.5 150.5t519.5 455.5l-187 -4q-88 2 -88 37q0 41 86 86q35 12 47 12q18 0 23 -29q4 -27 18 -31q35 -2 74 -3t84 -1q193 236 349.5 393.5t292.5 254t263 143.5q18 8 45 8 q70 0 70 -43q0 -18 -21 -39q-274 -291 -401 -694q31 2 58.5 4t51.5 6q10 2 17.5 2h15.5q37 0 37 -10q0 -33 -192 -47q-51 -168 -52 -313q0 -135 41 -158q4 -2 8.5 -3t8.5 -1q18 0 37 20l20 19q4 -4 4 -15q0 -41 -25.5 -77.5t-60.5 -36.5q-23 0 -45 18q-63 51 -63 195v33.5 t2 33.5q4 59 15 129t30 152l-496 -35q-287 -330 -543 -499t-485 -169zM1552 485q78 2 192 6.5t259 10.5q96 332 197 516q16 33 35.5 63.5t39.5 59.5q-51 -16 -114.5 -56.5t-121 -85.5t-93.5 -77q-106 -96 -202 -208t-192 -229zM2562 1393q-12 0 -25 25q-16 35 -19 39t-3 10 q0 37 106 37q57 0 58 -15q0 -2 -2 -4q-20 -8 -56 -31l-47 -55q-6 -6 -12 -6zM2318 1393q-12 0 -24 25q-16 35 -19.5 39t-3.5 10q0 37 106 37q57 0 58 -15q0 -2 -2 -4q-20 -8 -56 -31l-47 -55q-6 -6 -12 -6z" />
<glyph unicode="&#xc5;" horiz-adv-x="2164" d="M469 -244q-119 0 -214 43t-155 117q-92 115 -92 285q0 121 45 219q90 209 299 358q207 147 404 148q123 0 207 -61.5t84 -176.5q0 -80 -42 -154.5t-106 -99.5q-4 0 -8 3t-2 5q35 49 63.5 103.5t28.5 120.5q0 63 -38 111t-96.5 76t-119.5 28q-84 0 -168 -39t-168 -103 q-180 -141 -246 -362q-31 -98 -30 -191q0 -176 121 -284q49 -43 104 -66.5t119 -23.5q207 0 451.5 150.5t519.5 455.5l-187 -4q-88 2 -88 37q0 41 86 86q35 12 47 12q18 0 23 -29q4 -27 18 -31q35 -2 74 -3t84 -1q193 236 349.5 393.5t292.5 254t263 143.5q18 8 45 8 q70 0 70 -43q0 -18 -21 -39q-274 -291 -401 -694q31 2 58.5 4t51.5 6q10 2 17.5 2h15.5q37 0 37 -10q0 -33 -192 -47q-51 -168 -52 -313q0 -135 41 -158q4 -2 8.5 -3t8.5 -1q18 0 37 20l20 19q4 -4 4 -15q0 -41 -25.5 -77.5t-60.5 -36.5q-23 0 -45 18q-63 51 -63 195v33.5 t2 33.5q4 59 15 129t30 152l-496 -35q-287 -330 -543 -499t-485 -169zM1552 485q78 2 192 6.5t259 10.5q96 332 197 516q16 33 35.5 63.5t39.5 59.5q-51 -16 -114.5 -56.5t-121 -85.5t-93.5 -77q-106 -96 -202 -208t-192 -229zM2466 1385q-47 0 -79 31.5t-32 76.5 q0 61 46 107.5t106 46.5q49 0 80.5 -31t31.5 -78q0 -63 -46 -108t-107 -45zM2464 1418q29 0 55 27.5t37 70.5q2 8 3 15t1 16q0 29 -13.5 47t-35.5 18q-33 0 -64 -42t-31 -89q1 -63 48 -63z" />
<glyph unicode="&#xc6;" horiz-adv-x="2443" d="M358 -145q-133 0 -217 55q-96 68 -96 194q0 295 528 469q332 109 779 150q289 336 544 459q268 129 699 129q102 0 178 -6.5t123 -16.5q41 -10 41 -37q0 -33 -60 -28q-43 20 -174 20q-328 0 -430 -61q-55 -33 -395 -412q8 -8 23 -8q35 0 86 2t120 6q70 4 122 7t87 3 q174 0 174 -16t-75 -31q-27 -6 -109 -13t-217 -15q-199 -12 -317 -66q-51 -23 -158 -221q-106 -195 -107 -256q0 -147 228 -148q225 0 594 164q51 25 105 49.5t112 48.5q0 -2 -13 -18q-82 -115 -393 -229q-285 -104 -454 -105q-256 0 -256 207q0 219 253 549l-303 -23 q-100 -121 -178 -212t-131 -150q-100 -109 -178 -183.5t-135 -115.5q-193 -141 -400 -141zM1430 721q47 4 123.5 10t183.5 10l102 115q47 51 112.5 132t157.5 186q-6 12 -26 26q-162 -51 -357 -196q-181 -138 -296 -283zM326 -66q186 0 381 127q74 47 155.5 118t163.5 167 l270 311q-408 -45 -708 -145q-494 -156 -494 -401q0 -90 76 -136q64 -41 156 -41z" />
<glyph unicode="&#xc7;" horiz-adv-x="1509" d="M567 -215q-205 0 -325 133q-111 123 -111 311q0 139 64 279q115 250 330.5 452.5t537.5 329.5q154 61 295 62q139 0 225 -58.5t86 -156.5q0 -49 -15.5 -103.5t-62.5 -113.5q-113 -150 -264 -244q-78 -45 -144.5 -61.5t-125.5 -16.5q-145 0 -168 139v8q0 27 31 27 q29 0 30 -27q16 -104 115 -104q96 0 221 86q66 43 119 95t98 112q96 133 96 223q0 145 -206 146q-141 0 -295 -70q-156 -70 -289 -161t-244 -206q-168 -174 -252 -364q-61 -137 -61 -275q0 -158 82 -252q96 -109 278 -108q39 0 82 5t90 15q195 43 463 211q209 129 305 219 q66 61 88 62q4 0 5 -4q0 -14 -27 -39q-100 -88 -176 -151.5t-125 -98.5q-119 -86 -234.5 -145.5t-228.5 -100.5q-156 -55 -287 -55zM353 -616q-125 0 -142 61v4q0 16 11.5 30.5t21.5 14.5q8 0 16 -18q8 -25 40 -37t71 -12q61 0 100 24q20 16 30.5 38t10.5 38q0 29 -16 50.5 t-47 27.5q-4 2 -26.5 5t-65.5 3h-6.5t-10.5 -2q-12 -2 -20 0q-6 2 -13 12v6q-2 2 -1 4.5t1 4.5q2 10 20.5 25.5t25.5 23.5l159 139q6 8 13 8q10 0 12 -16l-55 -55q-8 -10 -32 -33t-43.5 -43.5t-19.5 -24.5h4l37 -2q63 0 115.5 -32.5t42.5 -86.5q-8 -45 -46 -80.5t-88 -56 t-99 -20.5z" />
<glyph unicode="&#xc8;" horiz-adv-x="1712" d="M778 -254q-170 0 -300 29.5t-236 99.5q-113 76 -171.5 182.5t-58.5 231.5q0 45 8.5 93t24.5 95q-156 20 -156 101q0 20 12.5 37.5t28.5 17.5q8 0 17 -6q33 -23 147 -39q63 119 172 222t260 194q236 141 545 227q246 70 383 69q213 0 303 -39.5t90 -142.5q0 -57 -47 -57 q-53 0 -43 72t-88 102q-61 20 -164 20q-266 0 -647 -165q-471 -207 -633 -512q33 -2 66 -2.5t65 -0.5h70t70 3q182 6 522 55q317 43 424 43q190 0 190 -98q0 -61 -45 -62q-25 0 -24 47q0 76 -115 76q-39 0 -142.5 -17.5t-269.5 -52.5q-172 -37 -310 -57t-241 -25 q-49 -2 -125.5 -7t-181.5 -9q-33 -78 -33 -170q0 -90 36 -181t118 -161q197 -160 494 -160q174 0 332.5 36t301.5 93q260 104 373 265q41 55 62 55q10 0 10 -15q0 -20 -19 -55q-74 -135 -337 -264q-164 -82 -353.5 -125t-384.5 -43zM1393 1397q-12 0 -49 12q-39 16 -92.5 49 t-102.5 66q-4 6 -8 14q0 16 12 32.5t25 18.5q8 0 14 -8q25 -27 74 -66.5t98 -76.5q35 -29 35 -37q0 -4 -6 -4z" />
<glyph unicode="&#xc9;" horiz-adv-x="1712" d="M778 -254q-170 0 -300 29.5t-236 99.5q-113 76 -171.5 182.5t-58.5 231.5q0 45 8.5 93t24.5 95q-156 20 -156 101q0 20 12.5 37.5t28.5 17.5q8 0 17 -6q33 -23 147 -39q63 119 172 222t260 194q236 141 545 227q246 70 383 69q213 0 303 -39.5t90 -142.5q0 -57 -47 -57 q-53 0 -43 72t-88 102q-61 20 -164 20q-266 0 -647 -165q-471 -207 -633 -512q33 -2 66 -2.5t65 -0.5h70t70 3q182 6 522 55q317 43 424 43q190 0 190 -98q0 -61 -45 -62q-25 0 -24 47q0 76 -115 76q-39 0 -142.5 -17.5t-269.5 -52.5q-172 -37 -310 -57t-241 -25 q-49 -2 -125.5 -7t-181.5 -9q-33 -78 -33 -170q0 -90 36 -181t118 -161q197 -160 494 -160q174 0 332.5 36t301.5 93q260 104 373 265q41 55 62 55q10 0 10 -15q0 -20 -19 -55q-74 -135 -337 -264q-164 -82 -353.5 -125t-384.5 -43zM1202 1397q-6 0 -6 4q0 8 35 37 q49 37 98 78t72 67q10 6 16 6q12 -2 24.5 -18t12.5 -33q-2 -8 -8 -14q-49 -33 -102.5 -65.5t-94.5 -47.5q-18 -6 -30.5 -10t-16.5 -4z" />
<glyph unicode="&#xca;" horiz-adv-x="1712" d="M778 -254q-170 0 -300 29.5t-236 99.5q-113 76 -171.5 182.5t-58.5 231.5q0 45 8.5 93t24.5 95q-156 20 -156 101q0 20 12.5 37.5t28.5 17.5q8 0 17 -6q33 -23 147 -39q63 119 172 222t260 194q236 141 545 227q246 70 383 69q213 0 303 -39.5t90 -142.5q0 -57 -47 -57 q-53 0 -43 72t-88 102q-61 20 -164 20q-266 0 -647 -165q-471 -207 -633 -512q33 -2 66 -2.5t65 -0.5h70t70 3q182 6 522 55q317 43 424 43q190 0 190 -98q0 -61 -45 -62q-25 0 -24 47q0 76 -115 76q-39 0 -142.5 -17.5t-269.5 -52.5q-172 -37 -310 -57t-241 -25 q-49 -2 -125.5 -7t-181.5 -9q-33 -78 -33 -170q0 -90 36 -181t118 -161q197 -160 494 -160q174 0 332.5 36t301.5 93q260 104 373 265q41 55 62 55q10 0 10 -15q0 -20 -19 -55q-74 -135 -337 -264q-164 -82 -353.5 -125t-384.5 -43zM1098 1395q-18 0 -18 14q0 10 12 17 q20 16 36.5 26t28.5 19q27 16 78 45.5t105 68.5q23 16 37 17q18 0 45 -56q14 -31 53 -68.5t82 -37.5q16 0 29.5 3t23.5 11q12 10 25 11q8 0 8 -7q0 -6 -10 -16q-27 -25 -50.5 -36t-70.5 -11q-49 0 -93 36t-61 72q-8 20 -29 21q-16 0 -38 -16q-39 -29 -81 -51.5t-96 -57.5 q-4 -2 -8 -3t-8 -1z" />
<glyph unicode="&#xcb;" horiz-adv-x="1712" d="M778 -254q-170 0 -300 29.5t-236 99.5q-113 76 -171.5 182.5t-58.5 231.5q0 45 8.5 93t24.5 95q-156 20 -156 101q0 20 12.5 37.5t28.5 17.5q8 0 17 -6q33 -23 147 -39q63 119 172 222t260 194q236 141 545 227q246 70 383 69q213 0 303 -39.5t90 -142.5q0 -57 -47 -57 q-53 0 -43 72t-88 102q-61 20 -164 20q-266 0 -647 -165q-471 -207 -633 -512q33 -2 66 -2.5t65 -0.5h70t70 3q182 6 522 55q317 43 424 43q190 0 190 -98q0 -61 -45 -62q-25 0 -24 47q0 76 -115 76q-39 0 -142.5 -17.5t-269.5 -52.5q-172 -37 -310 -57t-241 -25 q-49 -2 -125.5 -7t-181.5 -9q-33 -78 -33 -170q0 -90 36 -181t118 -161q197 -160 494 -160q174 0 332.5 36t301.5 93q260 104 373 265q41 55 62 55q10 0 10 -15q0 -20 -19 -55q-74 -135 -337 -264q-164 -82 -353.5 -125t-384.5 -43zM1393 1397q-12 0 -25 25q-16 35 -19 39 t-3 10q0 37 106 37q57 0 58 -15q0 -2 -2 -4q-20 -8 -56 -31l-47 -55q-6 -6 -12 -6zM1149 1397q-12 0 -24 25q-16 35 -19.5 39t-3.5 10q0 37 106 37q57 0 58 -15q0 -2 -2 -4q-20 -8 -56 -31l-47 -55q-6 -6 -12 -6z" />
<glyph unicode="&#xcc;" horiz-adv-x="1069" d="M403 -96q-96 0 -176 35.5t-126 99t-46 147.5q0 45 17 95q23 66 70.5 113.5t111.5 76.5q80 37 158 37q53 0 53 -16q0 -14 -35 -19q-131 -16 -199.5 -92t-68.5 -191q0 -113 72.5 -184.5t187.5 -71.5q133 0 253 79t218 211t170 294t108 330q23 111 35.5 203t12.5 163 q0 63 -13 66q-20 6 -78 -27q-39 -20 -83 -53t-93 -78q-45 -39 -86 -102q-51 -76 -51 -133q0 -49 43 -78q47 -33 90 -33q18 0 44 9.5t42 9.5q18 0 19 -9q0 -12 -60 -28q-55 -14 -116 -15q-61 0 -106.5 31t-45.5 90q0 109 141 234q242 217 396 217q55 0 71.5 -17.5t16.5 -64.5 q0 -109 -62 -336q-53 -195 -140 -374t-200.5 -318t-252 -220t-292.5 -81zM1368 1432q-12 0 -49 12q-39 16 -92.5 49t-102.5 66q-4 6 -8 14q0 16 12 32.5t25 18.5q8 0 14 -8q25 -27 74 -66.5t98 -76.5q35 -29 35 -37q0 -4 -6 -4z" />
<glyph unicode="&#xcd;" horiz-adv-x="1069" d="M403 -96q-96 0 -176 35.5t-126 99t-46 147.5q0 45 17 95q23 66 70.5 113.5t111.5 76.5q80 37 158 37q53 0 53 -16q0 -14 -35 -19q-131 -16 -199.5 -92t-68.5 -191q0 -113 72.5 -184.5t187.5 -71.5q133 0 253 79t218 211t170 294t108 330q23 111 35.5 203t12.5 163 q0 63 -13 66q-20 6 -78 -27q-39 -20 -83 -53t-93 -78q-45 -39 -86 -102q-51 -76 -51 -133q0 -49 43 -78q47 -33 90 -33q18 0 44 9.5t42 9.5q18 0 19 -9q0 -12 -60 -28q-55 -14 -116 -15q-61 0 -106.5 31t-45.5 90q0 109 141 234q242 217 396 217q55 0 71.5 -17.5t16.5 -64.5 q0 -109 -62 -336q-53 -195 -140 -374t-200.5 -318t-252 -220t-292.5 -81zM1178 1432q-6 0 -6 4q0 8 35 37q49 37 98 78t72 67q10 6 16 6q12 -2 24.5 -18t12.5 -33q-2 -8 -8 -14q-49 -33 -102.5 -65.5t-94.5 -47.5q-18 -6 -30.5 -10t-16.5 -4z" />
<glyph unicode="&#xce;" horiz-adv-x="1069" d="M403 -96q-96 0 -176 35.5t-126 99t-46 147.5q0 45 17 95q23 66 70.5 113.5t111.5 76.5q80 37 158 37q53 0 53 -16q0 -14 -35 -19q-131 -16 -199.5 -92t-68.5 -191q0 -113 72.5 -184.5t187.5 -71.5q133 0 253 79t218 211t170 294t108 330q23 111 35.5 203t12.5 163 q0 63 -13 66q-20 6 -78 -27q-39 -20 -83 -53t-93 -78q-45 -39 -86 -102q-51 -76 -51 -133q0 -49 43 -78q47 -33 90 -33q18 0 44 9.5t42 9.5q18 0 19 -9q0 -12 -60 -28q-55 -14 -116 -15q-61 0 -106.5 31t-45.5 90q0 109 141 234q242 217 396 217q55 0 71.5 -17.5t16.5 -64.5 q0 -109 -62 -336q-53 -195 -140 -374t-200.5 -318t-252 -220t-292.5 -81zM1073 1430q-18 0 -18 14q0 10 12 17q20 16 36.5 26t28.5 19q27 16 78 45.5t105 68.5q23 16 37 17q18 0 45 -56q14 -31 53 -68.5t82 -37.5q16 0 29.5 3t23.5 11q12 10 25 11q8 0 8 -7q0 -6 -10 -16 q-27 -25 -50.5 -36t-70.5 -11q-49 0 -93 36t-61 72q-8 20 -29 21q-16 0 -38 -16q-39 -29 -81 -51.5t-96 -57.5q-4 -2 -8 -3t-8 -1z" />
<glyph unicode="&#xcf;" horiz-adv-x="1069" d="M403 -96q-96 0 -176 35.5t-126 99t-46 147.5q0 45 17 95q23 66 70.5 113.5t111.5 76.5q80 37 158 37q53 0 53 -16q0 -14 -35 -19q-131 -16 -199.5 -92t-68.5 -191q0 -113 72.5 -184.5t187.5 -71.5q133 0 253 79t218 211t170 294t108 330q23 111 35.5 203t12.5 163 q0 63 -13 66q-20 6 -78 -27q-39 -20 -83 -53t-93 -78q-45 -39 -86 -102q-51 -76 -51 -133q0 -49 43 -78q47 -33 90 -33q18 0 44 9.5t42 9.5q18 0 19 -9q0 -12 -60 -28q-55 -14 -116 -15q-61 0 -106.5 31t-45.5 90q0 109 141 234q242 217 396 217q55 0 71.5 -17.5t16.5 -64.5 q0 -109 -62 -336q-53 -195 -140 -374t-200.5 -318t-252 -220t-292.5 -81zM1368 1432q-12 0 -25 25q-16 35 -19 39t-3 10q0 37 106 37q57 0 58 -15q0 -2 -2 -4q-20 -8 -56 -31l-47 -55q-6 -6 -12 -6zM1124 1432q-12 0 -24 25q-16 35 -19.5 39t-3.5 10q0 37 106 37 q57 0 58 -15q0 -2 -2 -4q-20 -8 -56 -31l-47 -55q-6 -6 -12 -6z" />
<glyph unicode="&#xd0;" horiz-adv-x="1673" d="M397 -190q-31 0 -65 20q-23 14 -35 20.5t-16 8.5q-74 35 -74 129q0 78 53 196q168 362 447 731q37 45 53 89q10 27 31 40q25 23 98 52q74 29 112 28q41 0 37 -28q-2 -8 -51 -43q-33 -25 -65.5 -53.5t-65.5 -63.5q-94 -94 -246 -326q-84 -129 -157.5 -268t-135.5 -291 q-25 -57 -24 -100q0 -70 65 -92q403 -16 822 231q408 242 559 569q43 92 43 185q0 190 -174 321q-176 133 -478 158q-57 4 -114.5 7t-112.5 3q-444 0 -717 -145q-236 -125 -235 -293q0 -160 217 -223q59 -10 59 -19q0 -12 -51 -20q-14 -2 -27.5 -3t-25.5 -1h-20.5t-20.5 2 q-272 68 -272 241q0 186 284 336q317 166 797 166q123 0 252 -12q350 -35 553 -176q205 -141 205 -350q0 -94 -43 -193q-137 -315 -568 -565q-438 -254 -893 -268zM269 430q-49 0 -54 2q-12 6 -18 27q-2 6 -2 14q0 12 8 15q18 10 227 10q313 0 314 -27q-2 -2 -3 -5t-5 -5 q-18 -16 -260 -24q-141 -7 -207 -7z" />
<glyph unicode="&#xd1;" horiz-adv-x="1755" d="M1655 -295q-25 0 -39 8q-84 43 -84 181q0 180 125 536q53 145 105.5 292.5t105.5 295.5q2 8 3 14t1 12q0 43 -43 43q-47 0 -135 -45q-195 -96 -422 -337q-281 -297 -498 -709q4 -10 24.5 -19.5t10.5 -17.5q0 -27 -86 -27q-76 0 -76 23q0 59 45 185t142 319l194 389 q59 115 85 198.5t26 133.5q0 109 -181 108q-158 0 -444 -135q-162 -78 -281 -209q-131 -139 -131 -258q0 -76 60.5 -126t152.5 -50q35 0 68 6l29 4q-125 -47 -174 -47q-61 0 -117 21q-106 39 -107 161q0 94 58 191q49 86 184 194q141 117 307 191q207 94 402 94t268 -121 q4 -12 4 -24q0 -47 -45 -167t-139 -315l-258 -532q4 -6 209 307q106 162 387 404q270 233 374 262q27 8 62 8q74 0 126 -42t52 -87q0 -16 -8 -27q-154 -233 -258 -577q-47 -156 -70.5 -286t-23.5 -232q0 -156 63 -148q20 8 51 17.5t74 23.5q6 2 16 2q31 0 -53 -43 q-82 -43 -141 -43zM1964 1239q-31 0 -72 15t-80 36q-39 23 -61.5 29t-34.5 6q-37 0 -61 -60q-6 -10 -13 -10q-10 0 -10 18q0 8 4 21.5t14 28.5q47 70 91 69q25 0 50 -13t58 -28l102 -45q27 -8 43 -2q14 2 25.5 12.5t22.5 24.5q10 12 15 20.5t9 14.5q6 10 12 10q10 0 5 -18 q-4 -14 -7.5 -26.5t-19.5 -37.5q-16 -33 -42.5 -49t-49.5 -16z" />
<glyph unicode="&#xd2;" horiz-adv-x="1910" d="M672 -143q-106 0 -191 18q-186 41 -297 176q-115 139 -114 330q0 141 64.5 286.5t182.5 276.5q-74 68 -73 162q0 139 149 240q162 106 430 106q111 0 217.5 -10t206.5 -31q57 8 106.5 12t90.5 4q154 0 207 -53q43 -45 43 -63q0 -8 -8 -8q-16 0 -46 18q-55 39 -172 29 q256 -96 385 -275q113 -156 113 -346q0 -221 -133 -391q-174 -219 -535 -358q-321 -123 -626 -123zM377 1006q145 139 326.5 233t396.5 145q-47 4 -93 7.5t-94 3.5h-40.5t-43.5 -2q-479 -18 -479 -275q0 -57 27 -112zM649 -82q270 0 592 133q322 135 453 309 q164 219 164 428q0 203 -152 355q-156 154 -438 215q-113 -4 -223.5 -32t-219.5 -75q-244 -106 -415 -303q14 -20 33.5 -45.5t21.5 -28.5q0 -4 -2 -6q-25 6 -46.5 15.5t-41.5 19.5q-217 -268 -217 -547q0 -215 143 -331q131 -107 348 -107zM1569 1536q-12 0 -49 12 q-39 16 -92.5 49t-102.5 66q-4 6 -8 14q0 16 12 32.5t25 18.5q8 0 14 -8q25 -27 74 -66.5t98 -76.5q35 -29 35 -37q0 -4 -6 -4z" />
<glyph unicode="&#xd3;" horiz-adv-x="1910" d="M672 -143q-106 0 -191 18q-186 41 -297 176q-115 139 -114 330q0 141 64.5 286.5t182.5 276.5q-74 68 -73 162q0 139 149 240q162 106 430 106q111 0 217.5 -10t206.5 -31q57 8 106.5 12t90.5 4q154 0 207 -53q43 -45 43 -63q0 -8 -8 -8q-16 0 -46 18q-55 39 -172 29 q256 -96 385 -275q113 -156 113 -346q0 -221 -133 -391q-174 -219 -535 -358q-321 -123 -626 -123zM377 1006q145 139 326.5 233t396.5 145q-47 4 -93 7.5t-94 3.5h-40.5t-43.5 -2q-479 -18 -479 -275q0 -57 27 -112zM649 -82q270 0 592 133q322 135 453 309 q164 219 164 428q0 203 -152 355q-156 154 -438 215q-113 -4 -223.5 -32t-219.5 -75q-244 -106 -415 -303q14 -20 33.5 -45.5t21.5 -28.5q0 -4 -2 -6q-25 6 -46.5 15.5t-41.5 19.5q-217 -268 -217 -547q0 -215 143 -331q131 -107 348 -107zM1378 1536q-6 0 -6 4q0 8 35 37 q49 37 98 78t72 67q10 6 16 6q12 -2 24.5 -18t12.5 -33q-2 -8 -8 -14q-49 -33 -102.5 -65.5t-94.5 -47.5q-18 -6 -30.5 -10t-16.5 -4z" />
<glyph unicode="&#xd4;" horiz-adv-x="1910" d="M672 -143q-106 0 -191 18q-186 41 -297 176q-115 139 -114 330q0 141 64.5 286.5t182.5 276.5q-74 68 -73 162q0 139 149 240q162 106 430 106q111 0 217.5 -10t206.5 -31q57 8 106.5 12t90.5 4q154 0 207 -53q43 -45 43 -63q0 -8 -8 -8q-16 0 -46 18q-55 39 -172 29 q256 -96 385 -275q113 -156 113 -346q0 -221 -133 -391q-174 -219 -535 -358q-321 -123 -626 -123zM377 1006q145 139 326.5 233t396.5 145q-47 4 -93 7.5t-94 3.5h-40.5t-43.5 -2q-479 -18 -479 -275q0 -57 27 -112zM649 -82q270 0 592 133q322 135 453 309 q164 219 164 428q0 203 -152 355q-156 154 -438 215q-113 -4 -223.5 -32t-219.5 -75q-244 -106 -415 -303q14 -20 33.5 -45.5t21.5 -28.5q0 -4 -2 -6q-25 6 -46.5 15.5t-41.5 19.5q-217 -268 -217 -547q0 -215 143 -331q131 -107 348 -107zM1274 1534q-18 0 -18 14 q0 10 12 17q20 16 36.5 26t28.5 19q27 16 78 45.5t105 68.5q23 16 37 17q18 0 45 -56q14 -31 53 -68.5t82 -37.5q16 0 29.5 3t23.5 11q12 10 25 11q8 0 8 -7q0 -6 -10 -16q-27 -25 -50.5 -36t-70.5 -11q-49 0 -93 36t-61 72q-8 20 -29 21q-16 0 -38 -16q-39 -29 -81 -51.5 t-96 -57.5q-4 -2 -8 -3t-8 -1z" />
<glyph unicode="&#xd5;" horiz-adv-x="1910" d="M672 -143q-106 0 -191 18q-186 41 -297 176q-115 139 -114 330q0 141 64.5 286.5t182.5 276.5q-74 68 -73 162q0 139 149 240q162 106 430 106q111 0 217.5 -10t206.5 -31q57 8 106.5 12t90.5 4q154 0 207 -53q43 -45 43 -63q0 -8 -8 -8q-16 0 -46 18q-55 39 -172 29 q256 -96 385 -275q113 -156 113 -346q0 -221 -133 -391q-174 -219 -535 -358q-321 -123 -626 -123zM377 1006q145 139 326.5 233t396.5 145q-47 4 -93 7.5t-94 3.5h-40.5t-43.5 -2q-479 -18 -479 -275q0 -57 27 -112zM649 -82q270 0 592 133q322 135 453 309 q164 219 164 428q0 203 -152 355q-156 154 -438 215q-113 -4 -223.5 -32t-219.5 -75q-244 -106 -415 -303q14 -20 33.5 -45.5t21.5 -28.5q0 -4 -2 -6q-25 6 -46.5 15.5t-41.5 19.5q-217 -268 -217 -547q0 -215 143 -331q131 -107 348 -107zM1581 1520q-31 0 -72 15t-80 36 q-39 23 -61.5 29t-34.5 6q-37 0 -61 -60q-6 -10 -13 -10q-10 0 -10 18q0 8 4 21.5t14 28.5q47 70 91 69q25 0 50 -13t58 -28l102 -45q27 -8 43 -2q14 2 25.5 12.5t22.5 24.5q10 12 15 20.5t9 14.5q6 10 12 10q10 0 5 -18q-4 -14 -7.5 -26.5t-19.5 -37.5q-16 -33 -42.5 -49 t-49.5 -16z" />
<glyph unicode="&#xd6;" horiz-adv-x="1910" d="M672 -143q-106 0 -191 18q-186 41 -297 176q-115 139 -114 330q0 141 64.5 286.5t182.5 276.5q-74 68 -73 162q0 139 149 240q162 106 430 106q111 0 217.5 -10t206.5 -31q57 8 106.5 12t90.5 4q154 0 207 -53q43 -45 43 -63q0 -8 -8 -8q-16 0 -46 18q-55 39 -172 29 q256 -96 385 -275q113 -156 113 -346q0 -221 -133 -391q-174 -219 -535 -358q-321 -123 -626 -123zM377 1006q145 139 326.5 233t396.5 145q-47 4 -93 7.5t-94 3.5h-40.5t-43.5 -2q-479 -18 -479 -275q0 -57 27 -112zM649 -82q270 0 592 133q322 135 453 309 q164 219 164 428q0 203 -152 355q-156 154 -438 215q-113 -4 -223.5 -32t-219.5 -75q-244 -106 -415 -303q14 -20 33.5 -45.5t21.5 -28.5q0 -4 -2 -6q-25 6 -46.5 15.5t-41.5 19.5q-217 -268 -217 -547q0 -215 143 -331q131 -107 348 -107zM1569 1536q-12 0 -25 25 q-16 35 -19 39t-3 10q0 37 106 37q57 0 58 -15q0 -2 -2 -4q-20 -8 -56 -31l-47 -55q-6 -6 -12 -6zM1325 1536q-12 0 -24 25q-16 35 -19.5 39t-3.5 10q0 37 106 37q57 0 58 -15q0 -2 -2 -4q-20 -8 -56 -31l-47 -55q-6 -6 -12 -6z" />
<glyph unicode="&#xd7;" horiz-adv-x="796" d="M117 317q-8 10 -3 24.5t13 25.5q4 2 25.5 18t49 35.5t50 37t29.5 21.5q-6 8 -28 32t-46.5 53.5t-38.5 54t-6 34.5q10 10 24.5 12.5t24.5 -8.5q35 -35 69.5 -66.5t69.5 -66.5q57 41 117.5 82t116.5 86q12 -10 -10.5 -36.5t-41.5 -45.5q-33 -35 -68.5 -66.5t-70.5 -62.5 q18 -18 38 -38.5t38 -41.5q43 -41 86 -75l-6 -7q-8 -10 -38 4.5t-65.5 38t-66.5 45t-41 29.5q-10 -8 -42 -29.5t-71 -45t-69.5 -37t-38.5 -7.5z" />
<glyph unicode="&#xd8;" horiz-adv-x="1910" d="M221 -338q-10 2 -8 14q23 92 115 244q39 61 119.5 174t187 256.5t226.5 300t236.5 307t219 278.5t174.5 214t96 111q14 16 41 12q25 -6 44.5 -26.5t10.5 -45.5q-154 -190 -319.5 -386.5t-330.5 -394.5t-315.5 -388.5t-275.5 -368.5q-49 -70 -80.5 -129t-39.5 -96 q-4 -25 -23.5 -42.5t-41.5 -26.5t-36 -7zM672 -143q-106 0 -191 18q-186 41 -297 176q-115 139 -114 330q0 141 64.5 286.5t182.5 276.5q-74 68 -73 162q0 139 149 240q162 106 430 106q111 0 217.5 -10t206.5 -31q57 8 106.5 12t90.5 4q154 0 207 -53q43 -45 43 -63 q0 -8 -8 -8q-16 0 -46 18q-55 39 -172 29q256 -96 385 -275q113 -156 113 -346q0 -221 -133 -391q-174 -219 -535 -358q-321 -123 -626 -123zM377 1006q145 139 326.5 233t396.5 145q-47 4 -93 7.5t-94 3.5h-40.5t-43.5 -2q-479 -18 -479 -275q0 -57 27 -112zM649 -82 q270 0 592 133q322 135 453 309q164 219 164 428q0 203 -152 355q-156 154 -438 215q-113 -4 -223.5 -32t-219.5 -75q-244 -106 -415 -303q14 -20 33.5 -45.5t21.5 -28.5q0 -4 -2 -6q-25 6 -46.5 15.5t-41.5 19.5q-217 -268 -217 -547q0 -215 143 -331q131 -107 348 -107z " />
<glyph unicode="&#xd9;" horiz-adv-x="1837" d="M1731 -172q-39 0 -89 59q-23 29 -22 88q0 195 199 613q-137 -250 -310 -412q-223 -209 -454 -209q-23 0 -47.5 2t-46.5 6q-127 25 -127 191q0 86 24.5 172t75.5 170l219 354q66 106 96.5 182t30.5 121q0 57 -49 72q-98 31 -191 31q-172 0 -426 -103q-166 -68 -305 -200 q-145 -141 -145 -256q0 -66 61 -113q49 -37 166 -37q23 0 84.5 6t161.5 21l-72 -21q-84 -25 -148.5 -36t-111.5 -11q-70 0 -129 19q-100 33 -100 147q0 92 57 174q121 172 449 332q252 121 528 121q242 0 268 -123q12 -53 -127 -303q-74 -131 -120 -213t-72.5 -129 t-40.5 -74t-22.5 -46.5t-18.5 -47.5q-47 -129 -47 -213q0 -147 139 -148q16 0 36.5 3t43.5 8q313 72 545 415q170 252 202 443q2 27 58 26q37 0 69.5 -13t32.5 -36q0 -2 -4 -14q-82 -131 -148.5 -262t-115.5 -262q-90 -236 -90 -363q0 -45 14 -65q27 -39 27 -58q0 -8 -8 -8z M1823 1159q-12 0 -49 12q-39 16 -92.5 49t-102.5 66q-4 6 -8 14q0 16 12 32.5t25 18.5q8 0 14 -8q25 -27 74 -66.5t98 -76.5q35 -29 35 -37q0 -4 -6 -4z" />
<glyph unicode="&#xda;" horiz-adv-x="1837" d="M1731 -172q-39 0 -89 59q-23 29 -22 88q0 195 199 613q-137 -250 -310 -412q-223 -209 -454 -209q-23 0 -47.5 2t-46.5 6q-127 25 -127 191q0 86 24.5 172t75.5 170l219 354q66 106 96.5 182t30.5 121q0 57 -49 72q-98 31 -191 31q-172 0 -426 -103q-166 -68 -305 -200 q-145 -141 -145 -256q0 -66 61 -113q49 -37 166 -37q23 0 84.5 6t161.5 21l-72 -21q-84 -25 -148.5 -36t-111.5 -11q-70 0 -129 19q-100 33 -100 147q0 92 57 174q121 172 449 332q252 121 528 121q242 0 268 -123q12 -53 -127 -303q-74 -131 -120 -213t-72.5 -129 t-40.5 -74t-22.5 -46.5t-18.5 -47.5q-47 -129 -47 -213q0 -147 139 -148q16 0 36.5 3t43.5 8q313 72 545 415q170 252 202 443q2 27 58 26q37 0 69.5 -13t32.5 -36q0 -2 -4 -14q-82 -131 -148.5 -262t-115.5 -262q-90 -236 -90 -363q0 -45 14 -65q27 -39 27 -58q0 -8 -8 -8z M1632 1159q-6 0 -6 4q0 8 35 37q49 37 98 78t72 67q10 6 16 6q12 -2 24.5 -18t12.5 -33q-2 -8 -8 -14q-49 -33 -102.5 -65.5t-94.5 -47.5q-18 -6 -30.5 -10t-16.5 -4z" />
<glyph unicode="&#xdb;" horiz-adv-x="1837" d="M1731 -172q-39 0 -89 59q-23 29 -22 88q0 195 199 613q-137 -250 -310 -412q-223 -209 -454 -209q-23 0 -47.5 2t-46.5 6q-127 25 -127 191q0 86 24.5 172t75.5 170l219 354q66 106 96.5 182t30.5 121q0 57 -49 72q-98 31 -191 31q-172 0 -426 -103q-166 -68 -305 -200 q-145 -141 -145 -256q0 -66 61 -113q49 -37 166 -37q23 0 84.5 6t161.5 21l-72 -21q-84 -25 -148.5 -36t-111.5 -11q-70 0 -129 19q-100 33 -100 147q0 92 57 174q121 172 449 332q252 121 528 121q242 0 268 -123q12 -53 -127 -303q-74 -131 -120 -213t-72.5 -129 t-40.5 -74t-22.5 -46.5t-18.5 -47.5q-47 -129 -47 -213q0 -147 139 -148q16 0 36.5 3t43.5 8q313 72 545 415q170 252 202 443q2 27 58 26q37 0 69.5 -13t32.5 -36q0 -2 -4 -14q-82 -131 -148.5 -262t-115.5 -262q-90 -236 -90 -363q0 -45 14 -65q27 -39 27 -58q0 -8 -8 -8z M1528 1157q-18 0 -18 14q0 10 12 17q20 16 36.5 26t28.5 19q27 16 78 45.5t105 68.5q23 16 37 17q18 0 45 -56q14 -31 53 -68.5t82 -37.5q16 0 29.5 3t23.5 11q12 10 25 11q8 0 8 -7q0 -6 -10 -16q-27 -25 -50.5 -36t-70.5 -11q-49 0 -93 36t-61 72q-8 20 -29 21 q-16 0 -38 -16q-39 -29 -81 -51.5t-96 -57.5q-4 -2 -8 -3t-8 -1z" />
<glyph unicode="&#xdc;" horiz-adv-x="1837" d="M1731 -172q-39 0 -89 59q-23 29 -22 88q0 195 199 613q-137 -250 -310 -412q-223 -209 -454 -209q-23 0 -47.5 2t-46.5 6q-127 25 -127 191q0 86 24.5 172t75.5 170l219 354q66 106 96.5 182t30.5 121q0 57 -49 72q-98 31 -191 31q-172 0 -426 -103q-166 -68 -305 -200 q-145 -141 -145 -256q0 -66 61 -113q49 -37 166 -37q23 0 84.5 6t161.5 21l-72 -21q-84 -25 -148.5 -36t-111.5 -11q-70 0 -129 19q-100 33 -100 147q0 92 57 174q121 172 449 332q252 121 528 121q242 0 268 -123q12 -53 -127 -303q-74 -131 -120 -213t-72.5 -129 t-40.5 -74t-22.5 -46.5t-18.5 -47.5q-47 -129 -47 -213q0 -147 139 -148q16 0 36.5 3t43.5 8q313 72 545 415q170 252 202 443q2 27 58 26q37 0 69.5 -13t32.5 -36q0 -2 -4 -14q-82 -131 -148.5 -262t-115.5 -262q-90 -236 -90 -363q0 -45 14 -65q27 -39 27 -58q0 -8 -8 -8z M1823 1159q-12 0 -25 25q-16 35 -19 39t-3 10q0 37 106 37q57 0 58 -15q0 -2 -2 -4q-20 -8 -56 -31l-47 -55q-6 -6 -12 -6zM1579 1159q-12 0 -24 25q-16 35 -19.5 39t-3.5 10q0 37 106 37q57 0 58 -15q0 -2 -2 -4q-20 -8 -56 -31l-47 -55q-6 -6 -12 -6z" />
<glyph unicode="&#xdd;" horiz-adv-x="1490" d="M133 -795q-152 0 -243 65.5t-91 197.5q0 139 117 239q16 12 23 12q12 0 12 -12q0 -23 -23 -41q-78 -68 -78 -166q0 -106 79 -171.5t192 -65.5q219 0 487 237q297 264 611 795q160 270 298 474t255 341q109 127 224 215t204 109q4 2 10 2h10q49 0 49 -33t-61 -60 q-154 -63 -382.5 -344.5t-551.5 -787.5q-180 -281 -340 -480.5t-303 -318.5q-250 -207 -498 -207zM860 -61q-14 0 -28.5 6t-12.5 16q27 119 47.5 236.5t20.5 236.5q0 279 -82 488q-117 297 -350 297q-84 0 -155 -51.5t-114 -134.5t-43 -175q0 -78 30 -148.5t85 -134.5 q113 -125 244 -124q18 0 48 8t42 8q16 0 16 -14q0 -23 -35 -35q-51 -18 -112 -19q-154 0 -275 115q-131 125 -131 309q0 74 27 152t77 145.5t122.5 109.5t167.5 42q274 0 421 -336q113 -252 113 -563q0 -98 -10 -194.5t-31 -190.5q-4 -20 -30.5 -34.5t-51.5 -14.5z M1208 1331q-6 0 -6 4q0 8 35 37q49 37 98 78t72 67q10 6 16 6q12 -2 24.5 -18t12.5 -33q-2 -8 -8 -14q-49 -33 -102.5 -65.5t-94.5 -47.5q-18 -6 -30.5 -10t-16.5 -4z" />
<glyph unicode="&#xde;" horiz-adv-x="1228" d="M227 -598q-43 0 -76.5 29.5t-33.5 93.5q0 53 28.5 146t71.5 214q41 109 97.5 239t122 270.5t132 277.5t127.5 258q-45 -16 -90 -47t-78.5 -65t-44.5 -60q-2 -8 -1 -16.5t-1 -18.5q-2 -4 -2 -8t-2 -8q0 -6 -6 -10.5t-10 -4.5q-10 0 -21 27q-4 12 -4 24q0 49 23 111 q16 53 51 84q33 29 93.5 54.5t135.5 43.5q72 141 134.5 250t99.5 162q6 6 13 7t15 1q23 0 40.5 -16.5t19.5 -59.5q-14 -20 -59.5 -105t-112.5 -208q61 6 145 6q86 0 178.5 -10t170 -38t125.5 -75t48 -121q0 -41 -18 -90q-41 -113 -135 -220t-224 -193t-279.5 -137.5 t-301.5 -51.5q-45 0 -89 5t-85 16q-39 -80 -70.5 -149.5t-52.5 -123.5q-8 -20 -17.5 -44.5t-19.5 -49.5q-23 -63 -38 -125.5t-15 -114.5q0 -33 7 -58t26 -44q4 -4 11 -12t7 -19q0 -16 -35 -16zM532 205q96 0 209 28.5t225.5 81t213 122t175.5 153.5t107 176q12 37 13 65 q0 57 -43 89t-113 44.5t-150 12.5q-98 0 -187 -4t-146 -15q-57 -109 -128 -240.5t-139.5 -262.5t-124.5 -244q41 -6 88 -6z" />
<glyph unicode="&#xdf;" horiz-adv-x="931" d="M-152 -264q-41 0 -76.5 17.5t-52.5 51.5q-8 18 -8 39q0 41 31 41q35 0 57 -59q14 -39 47 -39t76 31.5t84 81t70 100.5q35 66 77 154t82.5 177t73.5 162.5t47 108.5l-88 -14q-8 -2 -15 -2h-13q-53 0 -54 28q0 23 11.5 29t31.5 6h146q27 45 68.5 113.5t91.5 144.5 q63 84 118 117q27 12 65 21.5t89 9.5q88 0 132 -48.5t44 -119.5q0 -57 -27.5 -124t-87.5 -132q-29 -33 -45 -45.5t-37 -12.5q-90 0 -139 -33.5t-49 -72.5q0 -29 32 -54.5t97 -31.5q96 -10 153.5 -38t57.5 -79q0 -61 -44 -116.5t-116.5 -97.5t-156.5 -65.5t-164 -23.5 q-68 0 -123 19q-12 4 -12 18q0 10 7 18.5t21 3.5q25 -4 49.5 -6t49.5 -2q100 0 186 32t139 85t53 117q0 27 -29.5 42t-76.5 21q-51 6 -100.5 18.5t-82 35t-32.5 55.5q0 82 75.5 145.5t225.5 63.5q53 76 76.5 141.5t23.5 116.5q0 59 -26.5 92t-71.5 33q-39 0 -87 -28 t-101 -89q-29 -33 -63 -88t-66.5 -118.5t-58 -119t-40.5 -90.5q-33 -80 -80 -183.5t-102 -206.5t-114.5 -187t-119.5 -125q-55 -39 -129 -39z" />
<glyph unicode="&#xe0;" horiz-adv-x="737" d="M573 -23q-41 0 -74.5 27t-39.5 51q-6 29 76 205l-48 -67q-31 -45 -61.5 -80t-56.5 -62q-78 -74 -131 -61q-123 29 -123 139q0 88 84 225q27 41 67.5 82t93.5 80q137 100 265 100q78 0 147 -41q23 -16 23 -34q0 -14 -9 -15q-2 0 -4 2q-43 47 -114 47q-84 0 -182.5 -63 t-176.5 -170q-111 -154 -110 -250q0 -55 39 -69q49 -20 208 182q66 80 110 143.5t71 108.5q12 23 45 22q61 0 61 -37q0 -6 -2 -8q-178 -283 -178 -383q0 -25 14 -26q43 -12 144 63q121 90 227 240q23 31 41 30q6 0 6 -4q0 -10 -18 -39q-43 -68 -95.5 -127t-115.5 -110 q-90 -76 -148 -94q-15 -7 -35 -7zM742 725q-8 0 -47 16q-37 16 -88.5 53t-98.5 74q-6 6 -6 15q0 16 13.5 32.5t25.5 16.5q8 0 14 -8q23 -29 70 -72t92 -84q31 -31 31 -39q0 -4 -6 -4z" />
<glyph unicode="&#xe1;" horiz-adv-x="737" d="M573 -23q-41 0 -74.5 27t-39.5 51q-6 29 76 205l-48 -67q-31 -45 -61.5 -80t-56.5 -62q-78 -74 -131 -61q-123 29 -123 139q0 88 84 225q27 41 67.5 82t93.5 80q137 100 265 100q78 0 147 -41q23 -16 23 -34q0 -14 -9 -15q-2 0 -4 2q-43 47 -114 47q-84 0 -182.5 -63 t-176.5 -170q-111 -154 -110 -250q0 -55 39 -69q49 -20 208 182q66 80 110 143.5t71 108.5q12 23 45 22q61 0 61 -37q0 -6 -2 -8q-178 -283 -178 -383q0 -25 14 -26q43 -12 144 63q121 90 227 240q23 31 41 30q6 0 6 -4q0 -10 -18 -39q-43 -68 -95.5 -127t-115.5 -110 q-90 -76 -148 -94q-15 -7 -35 -7zM565 727q-4 0 -4 4q0 8 31 39q47 41 93 84t67 72q8 8 16 8q12 0 25.5 -16.5t13.5 -32.5q0 -8 -6 -15q-47 -37 -98.5 -73.5t-90.5 -53.5q-39 -16 -47 -16z" />
<glyph unicode="&#xe2;" horiz-adv-x="737" d="M573 -23q-41 0 -74.5 27t-39.5 51q-6 29 76 205l-48 -67q-31 -45 -61.5 -80t-56.5 -62q-78 -74 -131 -61q-123 29 -123 139q0 88 84 225q27 41 67.5 82t93.5 80q137 100 265 100q78 0 147 -41q23 -16 23 -34q0 -14 -9 -15q-2 0 -4 2q-43 47 -114 47q-84 0 -182.5 -63 t-176.5 -170q-111 -154 -110 -250q0 -55 39 -69q49 -20 208 182q66 80 110 143.5t71 108.5q12 23 45 22q61 0 61 -37q0 -6 -2 -8q-178 -283 -178 -383q0 -25 14 -26q43 -12 144 63q121 90 227 240q23 31 41 30q6 0 6 -4q0 -10 -18 -39q-43 -68 -95.5 -127t-115.5 -110 q-90 -76 -148 -94q-15 -7 -35 -7zM476 723q-18 0 -19 14q0 10 12 17q20 16 37 26t29 19q27 16 67.5 45.5t94.5 68.5q23 16 37 17q18 0 45 -56q14 -31 40.5 -68.5t69.5 -37.5q16 0 29.5 3t23.5 11q12 10 25 11q8 0 8 -7q0 -6 -10 -16q-27 -25 -50.5 -36t-70.5 -11 q-49 0 -80.5 36t-48.5 72q-8 20 -29 21q-16 0 -38 -16q-39 -29 -71 -51.5t-85 -57.5q-4 -2 -8 -3t-8 -1z" />
<glyph unicode="&#xe3;" horiz-adv-x="737" d="M573 -23q-41 0 -74.5 27t-39.5 51q-6 29 76 205l-48 -67q-31 -45 -61.5 -80t-56.5 -62q-78 -74 -131 -61q-123 29 -123 139q0 88 84 225q27 41 67.5 82t93.5 80q137 100 265 100q78 0 147 -41q23 -16 23 -34q0 -14 -9 -15q-2 0 -4 2q-43 47 -114 47q-84 0 -182.5 -63 t-176.5 -170q-111 -154 -110 -250q0 -55 39 -69q49 -20 208 182q66 80 110 143.5t71 108.5q12 23 45 22q61 0 61 -37q0 -6 -2 -8q-178 -283 -178 -383q0 -25 14 -26q43 -12 144 63q121 90 227 240q23 31 41 30q6 0 6 -4q0 -10 -18 -39q-43 -68 -95.5 -127t-115.5 -110 q-90 -76 -148 -94q-15 -7 -35 -7zM752 709q-31 0 -67 15t-75 36q-39 23 -61.5 29t-34.5 6q-37 0 -61 -60q-6 -10 -13 -10q-10 0 -10 18q0 8 4 21.5t14 28.5q47 70 93 69q23 0 49 -12t57 -29l92 -45q27 -8 43 -2q14 2 25.5 12.5t21.5 24.5q10 12 15.5 20.5t9.5 14.5 q6 10 12 10q14 0 4 -18q-4 -14 -7 -26.5t-19 -37.5q-18 -33 -43.5 -49t-48.5 -16z" />
<glyph unicode="&#xe4;" horiz-adv-x="737" d="M573 -23q-41 0 -74.5 27t-39.5 51q-6 29 76 205l-48 -67q-31 -45 -61.5 -80t-56.5 -62q-78 -74 -131 -61q-123 29 -123 139q0 88 84 225q27 41 67.5 82t93.5 80q137 100 265 100q78 0 147 -41q23 -16 23 -34q0 -14 -9 -15q-2 0 -4 2q-43 47 -114 47q-84 0 -182.5 -63 t-176.5 -170q-111 -154 -110 -250q0 -55 39 -69q49 -20 208 182q66 80 110 143.5t71 108.5q12 23 45 22q61 0 61 -37q0 -6 -2 -8q-178 -283 -178 -383q0 -25 14 -26q43 -12 144 63q121 90 227 240q23 31 41 30q6 0 6 -4q0 -10 -18 -39q-43 -68 -95.5 -127t-115.5 -110 q-90 -76 -148 -94q-15 -7 -35 -7zM774 725q-12 0 -24 25q-16 35 -19.5 39t-3.5 10q0 37 107 37q57 0 57 -15q0 -2 -2 -4q-20 -8 -55 -31l-47 -55q-7 -6 -13 -6zM545 725q-12 0 -24 25q-16 35 -19.5 39t-3.5 10q0 37 106 37q57 0 58 -15q0 -2 -2 -4q-20 -8 -56 -31l-47 -55 q-6 -6 -12 -6z" />
<glyph unicode="&#xe5;" horiz-adv-x="737" d="M573 -23q-41 0 -74.5 27t-39.5 51q-6 29 76 205l-48 -67q-31 -45 -61.5 -80t-56.5 -62q-78 -74 -131 -61q-123 29 -123 139q0 88 84 225q27 41 67.5 82t93.5 80q137 100 265 100q78 0 147 -41q23 -16 23 -34q0 -14 -9 -15q-2 0 -4 2q-43 47 -114 47q-84 0 -182.5 -63 t-176.5 -170q-111 -154 -110 -250q0 -55 39 -69q49 -20 208 182q66 80 110 143.5t71 108.5q12 23 45 22q61 0 61 -37q0 -6 -2 -8q-178 -283 -178 -383q0 -25 14 -26q43 -12 144 63q121 90 227 240q23 31 41 30q6 0 6 -4q0 -10 -18 -39q-43 -68 -95.5 -127t-115.5 -110 q-90 -76 -148 -94q-15 -7 -35 -7zM654 717q-47 0 -79 31.5t-32 76.5q0 61 46 107.5t106 46.5q49 0 80.5 -31t31.5 -78q0 -63 -46 -108t-107 -45zM652 750q29 0 55 27.5t37 70.5q2 8 3 15t1 16q0 29 -13.5 47t-35.5 18q-33 0 -64 -42t-31 -89q1 -63 48 -63z" />
<glyph unicode="&#xe6;" horiz-adv-x="946" d="M657 -16q-59 0 -104 28q-59 41 -59 119q0 47 20 100q-178 -264 -276 -241q-123 29 -123 139q0 88 84 225q27 41 67.5 82t93.5 80q137 100 265 100q106 0 157 -49q102 76 160 76q61 0 88 -39q16 -23 17 -51q0 -86 -140 -188q-41 -29 -87 -52.5t-99 -33.5l-88 -19 q-49 -88 -49 -147q0 -82 96 -82q76 0 184 63q145 84 250 234q16 25 31 24q6 0 6 -8q0 -10 -14 -31q-199 -299 -449 -327q-8 -2 -15.5 -2h-15.5zM657 295q57 0 148 51q129 72 178 184q14 29 14 48q0 18 -14 18q-27 0 -109 -66q-59 -51 -115.5 -109.5t-107.5 -123.5 q-2 -2 6 -2zM238 23q49 -20 208 182q66 80 110 143.5t71 108.5q16 25 51 22q18 18 38.5 35.5t41.5 34.5q-35 27 -90 26q-84 0 -182.5 -63t-176.5 -170q-111 -154 -110 -250q0 -55 39 -69z" />
<glyph unicode="&#xe7;" horiz-adv-x="577" d="M305 -16q-43 0 -87 20.5t-74.5 62.5t-30.5 101q0 82 61.5 186.5t161.5 184.5q63 51 106 69q61 27 117 27q70 0 109 -45q20 -20 20 -43q0 -37 -35 -37q-25 0 -37 31q-14 43 -61 43q-57 0 -129 -64q-80 -63 -145 -174q-72 -119 -72 -209q0 -88 53 -110q18 -8 47 -9 q98 0 223 82q137 88 236 228q23 31 41 30q6 0 6 -4q0 -10 -18 -39q-94 -145 -265 -249q-78 -47 -124 -64.5t-103 -17.5zM205 -317q-51 0 -78 18t-33 45q0 2 -1 3t-1 3q0 16 12.5 29.5t22.5 13.5q16 0 16 -18q-4 -35 22.5 -49.5t61.5 -14.5q25 0 47.5 5.5t36.5 11.5 q41 20 41 57q0 20 -12 37.5t-29 21.5q-4 2 -25.5 5.5t-64.5 3.5h-6t-10 -2q-14 -2 -21 0q-8 4 -12 12v6q-2 2 -2 8q4 10 19.5 25.5t27.5 23.5l92 74q8 8 14 8q10 0 11 -16l-54 -55q-14 -14 -26 -26.5t-19 -23.5q16 4 30.5 5.5t25.5 1.5q55 0 87.5 -15.5t32.5 -56.5v-12.5 t-2 -12.5q-6 -35 -39.5 -61.5t-78.5 -40.5t-86 -14z" />
<glyph unicode="&#xe8;" horiz-adv-x="516" d="M229 -16q-59 0 -104 28q-59 41 -59 119q0 84 71 205q96 158 283 276q47 31 94 31q61 0 88 -39q16 -23 16 -51q0 -86 -139 -188q-41 -29 -87 -52.5t-99 -33.5l-88 -19q-49 -88 -49 -147q0 -82 96 -82q76 0 184 63q145 84 250 234q16 25 31 24q6 0 6 -8q0 -10 -14 -31 q-199 -299 -449 -327q-8 -2 -15.5 -2h-15.5zM229 295q57 0 148 51q127 72 178 184q14 29 14 48q0 18 -14 18q-27 0 -109 -66q-59 -51 -115.5 -109.5t-107.5 -123.5q-2 -2 6 -2zM600 723q-8 0 -47 16q-37 16 -88.5 53t-98.5 74q-6 6 -6 15q0 16 13.5 32.5t25.5 16.5 q8 0 14 -8q23 -29 70 -72t92 -84q31 -31 31 -39q0 -4 -6 -4z" />
<glyph unicode="&#xe9;" horiz-adv-x="516" d="M229 -16q-59 0 -104 28q-59 41 -59 119q0 84 71 205q96 158 283 276q47 31 94 31q61 0 88 -39q16 -23 16 -51q0 -86 -139 -188q-41 -29 -87 -52.5t-99 -33.5l-88 -19q-49 -88 -49 -147q0 -82 96 -82q76 0 184 63q145 84 250 234q16 25 31 24q6 0 6 -8q0 -10 -14 -31 q-199 -299 -449 -327q-8 -2 -15.5 -2h-15.5zM229 295q57 0 148 51q127 72 178 184q14 29 14 48q0 18 -14 18q-27 0 -109 -66q-59 -51 -115.5 -109.5t-107.5 -123.5q-2 -2 6 -2zM424 725q-4 0 -4 4q0 8 31 39q47 41 93 84t67 72q8 8 16 8q12 0 25.5 -16.5t13.5 -32.5 q0 -8 -6 -15q-47 -37 -98.5 -73.5t-90.5 -53.5q-39 -16 -47 -16z" />
<glyph unicode="&#xea;" horiz-adv-x="516" d="M229 -16q-59 0 -104 28q-59 41 -59 119q0 84 71 205q96 158 283 276q47 31 94 31q61 0 88 -39q16 -23 16 -51q0 -86 -139 -188q-41 -29 -87 -52.5t-99 -33.5l-88 -19q-49 -88 -49 -147q0 -82 96 -82q76 0 184 63q145 84 250 234q16 25 31 24q6 0 6 -8q0 -10 -14 -31 q-199 -299 -449 -327q-8 -2 -15.5 -2h-15.5zM229 295q57 0 148 51q127 72 178 184q14 29 14 48q0 18 -14 18q-27 0 -109 -66q-59 -51 -115.5 -109.5t-107.5 -123.5q-2 -2 6 -2zM334 721q-18 0 -19 14q0 10 12 17q20 16 37 26t29 19q27 16 67.5 45.5t94.5 68.5q23 16 37 17 q18 0 45 -56q14 -31 40.5 -68.5t69.5 -37.5q16 0 29.5 3t23.5 11q12 10 25 11q8 0 8 -7q0 -6 -10 -16q-27 -25 -50.5 -36t-70.5 -11q-49 0 -80.5 36t-48.5 72q-8 20 -29 21q-16 0 -38 -16q-39 -29 -71 -51.5t-85 -57.5q-4 -2 -8 -3t-8 -1z" />
<glyph unicode="&#xeb;" horiz-adv-x="516" d="M229 -16q-59 0 -104 28q-59 41 -59 119q0 84 71 205q96 158 283 276q47 31 94 31q61 0 88 -39q16 -23 16 -51q0 -86 -139 -188q-41 -29 -87 -52.5t-99 -33.5l-88 -19q-49 -88 -49 -147q0 -82 96 -82q76 0 184 63q145 84 250 234q16 25 31 24q6 0 6 -8q0 -10 -14 -31 q-199 -299 -449 -327q-8 -2 -15.5 -2h-15.5zM229 295q57 0 148 51q127 72 178 184q14 29 14 48q0 18 -14 18q-27 0 -109 -66q-59 -51 -115.5 -109.5t-107.5 -123.5q-2 -2 6 -2zM632 723q-12 0 -24 25q-16 35 -19.5 39t-3.5 10q0 37 107 37q57 0 57 -15q0 -2 -2 -4 q-20 -8 -55 -31l-47 -55q-7 -6 -13 -6zM403 723q-12 0 -24 25q-16 35 -19.5 39t-3.5 10q0 37 106 37q57 0 58 -15q0 -2 -2 -4q-20 -8 -56 -31l-47 -55q-6 -6 -12 -6z" />
<glyph unicode="&#xec;" horiz-adv-x="466" d="M211 -20q-119 27 -119 94q0 33 80 231q23 39 60.5 114t95.5 183q10 16 45 16q31 0 60.5 -9t23.5 -17q-270 -383 -271 -531q0 -43 29 -43q55 0 174 78q141 96 238 232q20 33 41 32q6 0 6 -6q0 -10 -19 -39q-90 -141 -249 -249q-144 -98 -195 -86zM514 723q-8 0 -47 16 q-37 16 -88.5 53t-98.5 74q-6 6 -6 15q0 16 13.5 32.5t25.5 16.5q8 0 14 -8q23 -29 70 -72t92 -84q31 -31 31 -39q0 -4 -6 -4z" />
<glyph unicode="&#xed;" horiz-adv-x="466" d="M211 -20q-119 27 -119 94q0 33 80 231q23 39 60.5 114t95.5 183q10 16 45 16q31 0 60.5 -9t23.5 -17q-270 -383 -271 -531q0 -43 29 -43q55 0 174 78q141 96 238 232q20 33 41 32q6 0 6 -6q0 -10 -19 -39q-90 -141 -249 -249q-144 -98 -195 -86zM338 725q-4 0 -4 4 q0 8 31 39q47 41 93 84t67 72q8 8 16 8q12 0 25.5 -16.5t13.5 -32.5q0 -8 -6 -15q-47 -37 -98.5 -73.5t-90.5 -53.5q-39 -16 -47 -16z" />
<glyph unicode="&#xee;" horiz-adv-x="466" d="M211 -20q-119 27 -119 94q0 33 80 231q23 39 60.5 114t95.5 183q10 16 45 16q31 0 60.5 -9t23.5 -17q-270 -383 -271 -531q0 -43 29 -43q55 0 174 78q141 96 238 232q20 33 41 32q6 0 6 -6q0 -10 -19 -39q-90 -141 -249 -249q-144 -98 -195 -86zM248 721q-18 0 -19 14 q0 10 12 17q20 16 37 26t29 19q27 16 67.5 45.5t94.5 68.5q23 16 37 17q18 0 45 -56q14 -31 40.5 -68.5t69.5 -37.5q16 0 29.5 3t23.5 11q12 10 25 11q8 0 8 -7q0 -6 -10 -16q-27 -25 -50.5 -36t-70.5 -11q-49 0 -80.5 36t-48.5 72q-8 20 -29 21q-16 0 -38 -16 q-39 -29 -71 -51.5t-85 -57.5q-4 -2 -8 -3t-8 -1z" />
<glyph unicode="&#xef;" horiz-adv-x="466" d="M211 -20q-119 27 -119 94q0 33 80 231q23 39 60.5 114t95.5 183q10 16 45 16q31 0 60.5 -9t23.5 -17q-270 -383 -271 -531q0 -43 29 -43q55 0 174 78q141 96 238 232q20 33 41 32q6 0 6 -6q0 -10 -19 -39q-90 -141 -249 -249q-144 -98 -195 -86zM546 723q-12 0 -24 25 q-16 35 -19.5 39t-3.5 10q0 37 107 37q57 0 57 -15q0 -2 -2 -4q-20 -8 -55 -31l-47 -55q-7 -6 -13 -6zM317 723q-12 0 -24 25q-16 35 -19.5 39t-3.5 10q0 37 106 37q57 0 58 -15q0 -2 -2 -4q-20 -8 -56 -31l-47 -55q-6 -6 -12 -6z" />
<glyph unicode="&#xf0;" horiz-adv-x="737" d="M254 -2q-51 0 -75.5 38t-24.5 97q0 86 41 191q33 88 87 168.5t122.5 133t144.5 52.5q47 0 75.5 -21.5t28.5 -44.5q0 -12 -2 -16q-4 -14 -17 -26.5t-24 -12.5q-12 0 -12 14q-4 18 -18.5 45t-47.5 27q-23 0 -55.5 -34t-66 -85t-62.5 -108q-6 -10 -18.5 -40t-28.5 -67 q-18 -49 -32.5 -101t-14.5 -89q0 -53 35 -53q37 0 83 44t89 106.5t77.5 120.5t49.5 87q29 53 53.5 106.5t42.5 104.5q25 63 39 122.5t14 106.5q0 29 -6 54l-156 -95q-8 -6 -14 -6q-8 0 -11 7t-3 14q0 4 1 10t3 10q4 14 18 23l142 90q-41 59 -140 59q-18 0 -40.5 -6 t-47.5 -14q-2 -2 -10 -2q-10 0 -10 8q0 4 10 14t37 17q37 8 67.5 12t57.5 4q49 0 85 -13.5t60 -35.5l129 82q4 6 15 6q16 0 16 -25q-2 -2 -2 -6t-2 -8q-2 -12 -16 -27l-107 -65q20 -43 21 -111q0 -92 -43 -207l-7 -14q-20 -55 -61 -136t-96.5 -169t-119 -164t-128 -124 t-125.5 -48z" />
<glyph unicode="&#xf1;" horiz-adv-x="774" d="M553 -20q-45 -4 -86 23.5t-41 62.5q0 63 121 243q133 199 133 230q0 18 -18 20q-59 -4 -185 -119q-178 -166 -334 -450q-4 -4 -22 -4q-88 0 -80 24q23 59 79 178t146 299q61 121 125 121q20 0 27 -10q4 -6 -86 -176q-43 -82 -67.5 -130t-35.5 -63q35 35 83 86.5 t112 118.5q100 113 221 168q29 12 66 12q84 0 84 -61q0 -39 -39 -92q-221 -309 -221 -416q0 -23 14 -29q33 -14 162 68q152 98 258 244q23 31 41 30q6 0 6 -4q0 -10 -19 -39q-90 -141 -249 -249q-144 -94 -195 -86zM814 707q-31 0 -67 15t-75 36q-39 23 -61.5 29t-34.5 6 q-37 0 -61 -60q-6 -10 -13 -10q-10 0 -10 18q0 8 4 21.5t14 28.5q47 70 93 69q23 0 49 -12t57 -29l92 -45q27 -8 43 -2q14 2 25.5 12.5t21.5 24.5q10 12 15.5 20.5t9.5 14.5q6 10 12 10q14 0 4 -18q-4 -14 -7 -26.5t-19 -37.5q-18 -33 -43.5 -49t-48.5 -16z" />
<glyph unicode="&#xf2;" horiz-adv-x="641" d="M264 -23q-150 0 -149 185q0 184 147 352q2 2 -2 15.5t-4 19.5q0 12 8 18q72 57 168 58q27 0 43 -11q20 -8 38.5 -16t35.5 -18q78 -47 108 -99q51 2 86 4t54 4h8q18 0 18 -14q0 -4 -8 -6q-23 -4 -58.5 -10t-86.5 -13q6 -14 6 -32q0 -14 -2 -21q-31 -166 -162 -291 q-127 -125 -248 -125zM608 481q-33 51 -129 51q-74 0 -96 -16q-6 -2 -12 -8t-15 -14q115 -15 252 -13zM270 10q90 0 207 129q119 129 141 250l3.5 17.5t1.5 13.5q0 12 -5 24q-39 -2 -79.5 -2h-81.5h-75t-60 2q-82 -111 -103 -178q-25 -76 -24 -145q-1 -111 75 -111zM629 723 q-8 0 -47 16q-37 16 -88.5 53t-98.5 74q-6 6 -6 15q0 16 13.5 32.5t25.5 16.5q8 0 14 -8q23 -29 70 -72t92 -84q31 -31 31 -39q0 -4 -6 -4z" />
<glyph unicode="&#xf3;" horiz-adv-x="641" d="M264 -23q-150 0 -149 185q0 184 147 352q2 2 -2 15.5t-4 19.5q0 12 8 18q72 57 168 58q27 0 43 -11q20 -8 38.5 -16t35.5 -18q78 -47 108 -99q51 2 86 4t54 4h8q18 0 18 -14q0 -4 -8 -6q-23 -4 -58.5 -10t-86.5 -13q6 -14 6 -32q0 -14 -2 -21q-31 -166 -162 -291 q-127 -125 -248 -125zM608 481q-33 51 -129 51q-74 0 -96 -16q-6 -2 -12 -8t-15 -14q115 -15 252 -13zM270 10q90 0 207 129q119 129 141 250l3.5 17.5t1.5 13.5q0 12 -5 24q-39 -2 -79.5 -2h-81.5h-75t-60 2q-82 -111 -103 -178q-25 -76 -24 -145q-1 -111 75 -111zM452 725 q-4 0 -4 4q0 8 31 39q47 41 93 84t67 72q8 8 16 8q12 0 25.5 -16.5t13.5 -32.5q0 -8 -6 -15q-47 -37 -98.5 -73.5t-90.5 -53.5q-39 -16 -47 -16z" />
<glyph unicode="&#xf4;" horiz-adv-x="641" d="M264 -23q-150 0 -149 185q0 184 147 352q2 2 -2 15.5t-4 19.5q0 12 8 18q72 57 168 58q27 0 43 -11q20 -8 38.5 -16t35.5 -18q78 -47 108 -99q51 2 86 4t54 4h8q18 0 18 -14q0 -4 -8 -6q-23 -4 -58.5 -10t-86.5 -13q6 -14 6 -32q0 -14 -2 -21q-31 -166 -162 -291 q-127 -125 -248 -125zM608 481q-33 51 -129 51q-74 0 -96 -16q-6 -2 -12 -8t-15 -14q115 -15 252 -13zM270 10q90 0 207 129q119 129 141 250l3.5 17.5t1.5 13.5q0 12 -5 24q-39 -2 -79.5 -2h-81.5h-75t-60 2q-82 -111 -103 -178q-25 -76 -24 -145q-1 -111 75 -111zM363 721 q-18 0 -19 14q0 10 12 17q20 16 37 26t29 19q27 16 67.5 45.5t94.5 68.5q23 16 37 17q18 0 45 -56q14 -31 40.5 -68.5t69.5 -37.5q16 0 29.5 3t23.5 11q12 10 25 11q8 0 8 -7q0 -6 -10 -16q-27 -25 -50.5 -36t-70.5 -11q-49 0 -80.5 36t-48.5 72q-8 20 -29 21q-16 0 -38 -16 q-39 -29 -71 -51.5t-85 -57.5q-4 -2 -8 -3t-8 -1z" />
<glyph unicode="&#xf5;" horiz-adv-x="641" d="M264 -23q-150 0 -149 185q0 184 147 352q2 2 -2 15.5t-4 19.5q0 12 8 18q72 57 168 58q27 0 43 -11q20 -8 38.5 -16t35.5 -18q78 -47 108 -99q51 2 86 4t54 4h8q18 0 18 -14q0 -4 -8 -6q-23 -4 -58.5 -10t-86.5 -13q6 -14 6 -32q0 -14 -2 -21q-31 -166 -162 -291 q-127 -125 -248 -125zM608 481q-33 51 -129 51q-74 0 -96 -16q-6 -2 -12 -8t-15 -14q115 -15 252 -13zM270 10q90 0 207 129q119 129 141 250l3.5 17.5t1.5 13.5q0 12 -5 24q-39 -2 -79.5 -2h-81.5h-75t-60 2q-82 -111 -103 -178q-25 -76 -24 -145q-1 -111 75 -111zM639 707 q-31 0 -67 15t-75 36q-39 23 -61.5 29t-34.5 6q-37 0 -61 -60q-6 -10 -13 -10q-10 0 -10 18q0 8 4 21.5t14 28.5q47 70 93 69q23 0 49 -12t57 -29l92 -45q27 -8 43 -2q14 2 25.5 12.5t21.5 24.5q10 12 15.5 20.5t9.5 14.5q6 10 12 10q14 0 4 -18q-4 -14 -7 -26.5t-19 -37.5 q-18 -33 -43.5 -49t-48.5 -16z" />
<glyph unicode="&#xf6;" horiz-adv-x="628" d="M393 737q-12 0 -24 25q-16 35 -19.5 39t-3.5 10q0 37 107 37q57 0 57 -14q0 -2 -2 -5q-20 -8 -55 -30l-47 -56q-7 -6 -13 -6zM637 737q-12 0 -25 25q-16 35 -19 39t-3 10q0 37 106 37q57 0 58 -14q0 -2 -2 -5q-20 -8 -56 -30l-47 -56q-6 -6 -12 -6zM264 -23 q-150 0 -149 185q0 184 147 352q2 2 -2 15.5t-4 19.5q0 12 8 18q72 57 168 58q27 0 43 -11q20 -8 38.5 -16t35.5 -18q78 -47 108 -99q51 2 86 4t54 4h8q18 0 18 -14q0 -4 -8 -6q-23 -4 -58.5 -10t-86.5 -13q6 -14 6 -32q0 -14 -2 -21q-31 -166 -162 -291 q-127 -125 -248 -125zM608 481q-33 51 -129 51q-74 0 -96 -16q-6 -2 -12 -8t-15 -14q115 -15 252 -13zM270 10q90 0 207 129q119 129 141 250l3.5 17.5t1.5 13.5q0 12 -5 24q-39 -2 -79.5 -2h-81.5h-75t-60 2q-82 -111 -103 -178q-25 -76 -24 -145q-1 -111 75 -111z" />
<glyph unicode="&#xf7;" horiz-adv-x="655" d="M336 565q-53 0 -53 51t53 52q53 0 53 -52q0 -51 -53 -51zM168 408q-43 0 -47 2q-8 4 -17 22q-2 6 -2 12q0 12 9 15q16 8 200 8q242 0 242 -23q-2 -2 -3 -5t-3 -5q-8 -4 -56.5 -10t-138.5 -10q-125 -6 -184 -6zM319 227q-55 0 -55 52q0 51 55 51q53 0 54 -51 q-1 -52 -54 -52z" />
<glyph unicode="&#xf8;" horiz-adv-x="641" d="M-39 -242q-10 0 -10 6q4 49 55 125q23 35 55.5 78t73.5 90q-20 41 -20 105q0 184 147 352q2 2 -2 15.5t-4 19.5q0 12 8 18q72 57 168 58q27 0 43 -11q37 -14 123 -69q39 41 69.5 75.5t55.5 63.5q70 82 104 82q10 0 9 -21q-39 -45 -91.5 -100t-119.5 -125q20 -18 32 -39 q51 2 86 4t54 4h8q18 0 18 -14q0 -4 -8 -6q-23 -4 -58.5 -10t-86.5 -13q6 -14 6 -32q0 -14 -2 -21q-31 -166 -162 -291q-127 -125 -248 -125q-57 0 -98 37q-18 -25 -34.5 -49t-33.5 -47q-27 -39 -39 -67.5t-14 -47.5q-2 -12 -33 -28.5t-51 -16.5zM537 481l32 35 q-39 16 -90 16q-74 0 -96 -16q-6 -2 -12 -8t-15 -14q77 -9 181 -13zM195 125q37 41 112.5 120t190.5 197q-53 -2 -97.5 -1t-78.5 3q-80 -109 -102.5 -180t-24.5 -139zM270 10q90 0 207 129q119 129 141 250l3.5 17.5t1.5 13.5q0 12 -5 24q-16 -2 -34.5 -2h-34.5 q-119 -121 -206 -216t-140 -165q14 -51 67 -51z" />
<glyph unicode="&#xf9;" horiz-adv-x="698" d="M522 -14q-53 12 -100 57q-10 10 -10 31q0 82 73 229q-57 -74 -94 -121t-55 -67q-80 -92 -133 -111q-18 -6 -37 -6q-76 0 -88 61q-8 18 -8 52q0 100 133 383q31 66 69 65q29 0 56 -43l-86 -170q-45 -88 -68.5 -151.5t-23.5 -98.5q0 -49 32 -49q53 0 172 137q63 74 124 164 t120 197q12 25 37 24q20 0 39.5 -17t15.5 -26q-199 -412 -198 -473q0 -25 16 -20q166 14 356 293q10 18 23 20q12 4 12 -8q0 -8 -8 -23q-90 -141 -215 -247q-111 -92 -154 -82zM582 670q-8 0 -47 16q-37 16 -88.5 53t-98.5 74q-6 6 -6 15q0 16 13.5 32.5t25.5 16.5 q8 0 14 -8q23 -29 70 -72t92 -84q31 -31 31 -39q0 -4 -6 -4z" />
<glyph unicode="&#xfa;" horiz-adv-x="698" d="M522 -14q-53 12 -100 57q-10 10 -10 31q0 82 73 229q-57 -74 -94 -121t-55 -67q-80 -92 -133 -111q-18 -6 -37 -6q-76 0 -88 61q-8 18 -8 52q0 100 133 383q31 66 69 65q29 0 56 -43l-86 -170q-45 -88 -68.5 -151.5t-23.5 -98.5q0 -49 32 -49q53 0 172 137q63 74 124 164 t120 197q12 25 37 24q20 0 39.5 -17t15.5 -26q-199 -412 -198 -473q0 -25 16 -20q166 14 356 293q10 18 23 20q12 4 12 -8q0 -8 -8 -23q-90 -141 -215 -247q-111 -92 -154 -82zM405 672q-4 0 -4 4q0 8 31 39q47 41 93 84t67 72q8 8 16 8q12 0 25.5 -16.5t13.5 -32.5 q0 -8 -6 -15q-47 -37 -98.5 -73.5t-90.5 -53.5q-39 -16 -47 -16z" />
<glyph unicode="&#xfb;" horiz-adv-x="698" d="M522 -14q-53 12 -100 57q-10 10 -10 31q0 82 73 229q-57 -74 -94 -121t-55 -67q-80 -92 -133 -111q-18 -6 -37 -6q-76 0 -88 61q-8 18 -8 52q0 100 133 383q31 66 69 65q29 0 56 -43l-86 -170q-45 -88 -68.5 -151.5t-23.5 -98.5q0 -49 32 -49q53 0 172 137q63 74 124 164 t120 197q12 25 37 24q20 0 39.5 -17t15.5 -26q-199 -412 -198 -473q0 -25 16 -20q166 14 356 293q10 18 23 20q12 4 12 -8q0 -8 -8 -23q-90 -141 -215 -247q-111 -92 -154 -82zM316 668q-18 0 -19 14q0 10 12 17q20 16 37 26t29 19q27 16 67.5 45.5t94.5 68.5q23 16 37 17 q18 0 45 -56q14 -31 40.5 -68.5t69.5 -37.5q16 0 29.5 3t23.5 11q12 10 25 11q8 0 8 -7q0 -6 -10 -16q-27 -25 -50.5 -36t-70.5 -11q-49 0 -80.5 36t-48.5 72q-8 20 -29 21q-16 0 -38 -16q-39 -29 -71 -51.5t-85 -57.5q-4 -2 -8 -3t-8 -1z" />
<glyph unicode="&#xfc;" horiz-adv-x="698" d="M522 -14q-53 12 -100 57q-10 10 -10 31q0 82 73 229q-57 -74 -94 -121t-55 -67q-80 -92 -133 -111q-18 -6 -37 -6q-76 0 -88 61q-8 18 -8 52q0 100 133 383q31 66 69 65q29 0 56 -43l-86 -170q-45 -88 -68.5 -151.5t-23.5 -98.5q0 -49 32 -49q53 0 172 137q63 74 124 164 t120 197q12 25 37 24q20 0 39.5 -17t15.5 -26q-199 -412 -198 -473q0 -25 16 -20q166 14 356 293q10 18 23 20q12 4 12 -8q0 -8 -8 -23q-90 -141 -215 -247q-111 -92 -154 -82zM614 670q-12 0 -24 25q-16 35 -19.5 39t-3.5 10q0 37 107 37q57 0 57 -15q0 -2 -2 -4 q-20 -8 -55 -31l-47 -55q-7 -6 -13 -6zM385 670q-12 0 -24 25q-16 35 -19.5 39t-3.5 10q0 37 106 37q57 0 58 -15q0 -2 -2 -4q-20 -8 -56 -31l-47 -55q-6 -6 -12 -6z" />
<glyph unicode="&#xfd;" horiz-adv-x="712" d="M18 -631q-78 0 -77 78q0 63 55 152q35 55 89 117.5t130 131.5q135 131 287 228q35 86 60.5 163.5t43.5 145.5q-14 -25 -157 -192q-174 -205 -240 -205q-8 0 -12 2l-62 33q-29 16 -35 31.5t-6 31.5q0 55 33 157.5t102 250.5q31 66 70 65q29 0 55 -43l-90 -178 q-96 -188 -96 -262q0 -49 33 -49q66 0 245 223q59 72 109.5 138.5t91.5 129.5q14 20 41 21q49 0 49 -37q0 -8 -6 -19q-16 -57 -44 -140t-66 -196q66 39 104 39q16 0 16 -8q0 -20 -51 -39q-20 -8 -43.5 -18t-50.5 -25q-143 -356 -346 -588q-123 -139 -232 -139zM61 -588 q39 0 95 64q182 205 319 536q-272 -203 -405 -422q-45 -72 -45 -127q-1 -51 36 -51zM432 670q-4 0 -4 4q0 8 31 39q47 41 93 84t67 72q8 8 16 8q12 0 25.5 -16.5t13.5 -32.5q0 -8 -6 -15q-47 -37 -98.5 -73.5t-90.5 -53.5q-39 -16 -47 -16z" />
<glyph unicode="&#xfe;" horiz-adv-x="632" d="M-4 -563q-33 0 -62 22q-33 29 -30 62q6 78 37.5 186.5t75.5 228t94.5 235.5t93.5 208q31 66 72.5 158t90 192t95.5 187.5t86 142.5q16 23 37.5 30t66.5 3q25 -2 25 -23q0 -14 -12 -27q-68 -68 -129.5 -166t-116.5 -207.5t-99.5 -210t-78.5 -169.5q6 10 48 54t99 108 q145 154 215 153q14 -4 39 -7t59 -7q41 0 41 -66q0 -139 -125 -309q-66 -90 -169 -166q-119 -82 -207 -82q-82 0 -123 74q-133 -270 -142 -537q0 -23 29 -32q29 -10 23 -21q-8 -14 -33 -14zM205 31q59 0 168 71q53 35 94 76t70 86q109 170 108 254q0 39 -31 39 q-82 0 -270 -211q-178 -193 -178 -278q0 -37 39 -37z" />
<glyph unicode="&#xff;" horiz-adv-x="712" d="M18 -631q-78 0 -77 78q0 63 55 152q35 55 89 117.5t130 131.5q135 131 287 228q35 86 60.5 163.5t43.5 145.5q-14 -25 -157 -192q-174 -205 -240 -205q-8 0 -12 2l-62 33q-29 16 -35 31.5t-6 31.5q0 55 33 157.5t102 250.5q31 66 70 65q29 0 55 -43l-90 -178 q-96 -188 -96 -262q0 -49 33 -49q66 0 245 223q59 72 109.5 138.5t91.5 129.5q14 20 41 21q49 0 49 -37q0 -8 -6 -19q-16 -57 -44 -140t-66 -196q66 39 104 39q16 0 16 -8q0 -20 -51 -39q-20 -8 -43.5 -18t-50.5 -25q-143 -356 -346 -588q-123 -139 -232 -139zM61 -588 q39 0 95 64q182 205 319 536q-272 -203 -405 -422q-45 -72 -45 -127q-1 -51 36 -51zM641 668q-12 0 -24 25q-16 35 -19.5 39t-3.5 10q0 37 107 37q57 0 57 -15q0 -2 -2 -4q-20 -8 -55 -31l-47 -55q-7 -6 -13 -6zM412 668q-12 0 -24 25q-16 35 -19.5 39t-3.5 10q0 37 106 37 q57 0 58 -15q0 -2 -2 -4q-20 -8 -56 -31l-47 -55q-6 -6 -12 -6z" />
<glyph unicode="&#x131;" horiz-adv-x="466" d="M211 -20q-119 27 -119 94q0 33 80 231q23 39 60.5 114t95.5 183q10 16 45 16q31 0 60.5 -9t23.5 -17q-270 -383 -271 -531q0 -43 29 -43q55 0 174 78q141 96 238 232q20 33 41 32q6 0 6 -6q0 -10 -19 -39q-90 -141 -249 -249q-144 -98 -195 -86z" />
<glyph unicode="&#x152;" horiz-adv-x="2443" d="M1559 -76q-256 0 -256 207q0 20 2 41t6 41q-90 -61 -190.5 -111.5t-213.5 -89.5q-233 -82 -442 -82q-326 0 -326 258q0 84 41 185q-172 78 -172 245q0 215 215 400q170 145 410 233q270 96 534 97q231 0 394 -82q203 -100 221 -310q217 248 286 289q115 68 455 68 q184 0 258 -29q31 -8 31 -33q0 -33 -59 -28q-43 20 -177 20q-326 0 -428 -61q-55 -33 -395 -412q6 -8 21 -8q35 0 86 2t120 6q70 4 123.5 7t87.5 3q172 0 172 -16q0 -14 -73 -31q-27 -4 -108 -11t-218 -17q-201 -12 -319 -66q-49 -23 -156 -221q-109 -199 -109 -256 q0 -147 228 -148q227 0 596 164q51 25 105 49.5t112 48.5l-13 -18q-82 -115 -393 -229q-288 -105 -456 -105zM487 -35q217 0 459 105q227 98 400 254q45 113 136 250t228 300q4 23 7 43.5t3 40.5q0 182 -168 275q-135 74 -333 74q-254 0 -551 -115q-221 -90 -389 -217 q-229 -174 -230 -357q0 -160 148 -206q117 211 350 426q238 219 448 307q111 47 185 49h12q14 0 14 -14q0 -20 -26 -23q-94 -14 -181 -61q-51 -27 -105 -64t-114 -84q-70 -53 -140.5 -117.5t-141.5 -138.5q-193 -201 -213 -303q27 -4 52 -7t52 -3q219 0 449 201l53 55 q43 43 49 43q2 0 6 -10q-96 -139 -250 -230q-158 -94 -323 -94q-59 0 -103 14q-47 -90 -47 -168q0 -109 80 -170q73 -55 184 -55z" />
<glyph unicode="&#x153;" horiz-adv-x="972" d="M264 -23q-150 0 -149 185q0 184 147 352q2 2 -2 15.5t-4 19.5q0 12 8 18q72 57 168 58q29 0 43 -11q49 -8 92 -28q92 -45 109 -129q72 78 190 155q47 31 92 31q63 0 91 -39q14 -20 14 -51q0 -88 -137 -188q-82 -57 -187 -86l-88 -19q-51 -88 -51 -147q0 -82 98 -82 q74 0 183 63q147 84 252 234q16 25 30 24q6 0 6 -8q0 -10 -14 -31q-203 -299 -448 -327q-8 -2 -15.5 -2h-15.5q-63 0 -108.5 29.5t-55.5 88.5q-125 -125 -248 -125zM674 295q55 0 149 51q127 72 178 184q12 31 13 48q0 18 -15 18q-27 0 -108 -66q-119 -100 -221 -233 q-2 -2 4 -2zM270 10q111 0 246 172q10 43 55 125l47 82q2 8 2.5 15.5t0.5 13.5q0 119 -152 119q-66 0 -86 -21q-8 -4 -61 -72q-78 -102 -102.5 -178t-24.5 -145q-1 -111 75 -111z" />
<glyph unicode="&#x178;" horiz-adv-x="1490" d="M133 -795q-152 0 -243 65.5t-91 197.5q0 139 117 239q16 12 23 12q12 0 12 -12q0 -23 -23 -41q-78 -68 -78 -166q0 -106 79 -171.5t192 -65.5q219 0 487 237q297 264 611 795q160 270 298 474t255 341q109 127 224 215t204 109q4 2 10 2h10q49 0 49 -33t-61 -60 q-154 -63 -382.5 -344.5t-551.5 -787.5q-180 -281 -340 -480.5t-303 -318.5q-250 -207 -498 -207zM860 -61q-14 0 -28.5 6t-12.5 16q27 119 47.5 236.5t20.5 236.5q0 279 -82 488q-117 297 -350 297q-84 0 -155 -51.5t-114 -134.5t-43 -175q0 -78 30 -148.5t85 -134.5 q113 -125 244 -124q18 0 48 8t42 8q16 0 16 -14q0 -23 -35 -35q-51 -18 -112 -19q-154 0 -275 115q-131 125 -131 309q0 74 27 152t77 145.5t122.5 109.5t167.5 42q274 0 421 -336q113 -252 113 -563q0 -98 -10 -194.5t-31 -190.5q-4 -20 -30.5 -34.5t-51.5 -14.5z M1399 1331q-12 0 -25 25q-16 35 -19 39t-3 10q0 37 106 37q57 0 58 -15q0 -2 -2 -4q-20 -8 -56 -31l-47 -55q-6 -6 -12 -6zM1155 1331q-12 0 -24 25q-16 35 -19.5 39t-3.5 10q0 37 106 37q57 0 58 -15q0 -2 -2 -4q-20 -8 -56 -31l-47 -55q-6 -6 -12 -6z" />
<glyph unicode="&#x2c6;" horiz-adv-x="595" d="M66 721q-18 0 -19 14q0 10 12 17q20 16 37 26t29 19q27 16 67.5 45.5t94.5 68.5q23 16 37 17q18 0 45 -56q14 -31 40.5 -68.5t69.5 -37.5q16 0 29.5 3t23.5 11q12 10 25 11q8 0 8 -7q0 -6 -10 -16q-27 -25 -50.5 -36t-70.5 -11q-49 0 -80.5 36t-48.5 72q-8 20 -29 21 q-16 0 -38 -16q-39 -29 -71 -51.5t-85 -57.5q-4 -2 -8 -3t-8 -1z" />
<glyph unicode="&#x2dc;" horiz-adv-x="442" d="M322 707q-31 0 -67 15t-75 36q-39 23 -61.5 29t-34.5 6q-37 0 -61 -60q-6 -10 -13 -10q-10 0 -10 18q0 8 4 21.5t14 28.5q47 70 93 69q23 0 49 -12t57 -29l92 -45q27 -8 43 -2q14 2 25.5 12.5t21.5 24.5q10 12 15.5 20.5t9.5 14.5q6 10 12 10q14 0 4 -18q-4 -14 -7 -26.5 t-19 -37.5q-18 -33 -43.5 -49t-48.5 -16z" />
<glyph unicode="&#x300;" d="M240 723q-8 0 -47 16q-37 16 -88.5 53t-98.5 74q-6 6 -6 15q0 16 13.5 32.5t25.5 16.5q8 0 14 -8q23 -29 70 -72t92 -84q31 -31 31 -39q0 -4 -6 -4z" />
<glyph unicode="&#x301;" d="M6 725q-4 0 -4 4q0 8 31 39q47 41 93 84t67 72q8 8 16 8q12 0 25.5 -16.5t13.5 -32.5q0 -8 -6 -15q-47 -37 -98.5 -73.5t-90.5 -53.5q-39 -16 -47 -16z" />
<glyph unicode="&#x302;" d="M66 721q-18 0 -19 14q0 10 12 17q20 16 37 26t29 19q27 16 67.5 45.5t94.5 68.5q23 16 37 17q18 0 45 -56q14 -31 40.5 -68.5t69.5 -37.5q16 0 29.5 3t23.5 11q12 10 25 11q8 0 8 -7q0 -6 -10 -16q-27 -25 -50.5 -36t-70.5 -11q-49 0 -80.5 36t-48.5 72q-8 20 -29 21 q-16 0 -38 -16q-39 -29 -71 -51.5t-85 -57.5q-4 -2 -8 -3t-8 -1z" />
<glyph unicode="&#x303;" d="M322 707q-31 0 -67 15t-75 36q-39 23 -61.5 29t-34.5 6q-37 0 -61 -60q-6 -10 -13 -10q-10 0 -10 18q0 8 4 21.5t14 28.5q47 70 93 69q23 0 49 -12t57 -29l92 -45q27 -8 43 -2q14 2 25.5 12.5t21.5 24.5q10 12 15.5 20.5t9.5 14.5q6 10 12 10q14 0 4 -18q-4 -14 -7 -26.5 t-19 -37.5q-18 -33 -43.5 -49t-48.5 -16z" />
<glyph unicode="&#x304;" d="M51 739q-33 0 -37 2q-2 4 -6 9.5t-6 15.5q-2 25 4 27q18 14 158 14q111 0 166 -3t55 -20q-2 -2 -3 -5t-5 -5q-10 -12 -180 -29q-101 -6 -146 -6z" />
<glyph unicode="&#x308;" d="M276 723q-12 0 -24 25q-16 35 -19.5 39t-3.5 10q0 37 107 37q57 0 57 -15q0 -2 -2 -4q-20 -8 -55 -31l-47 -55q-7 -6 -13 -6zM47 723q-12 0 -24 25q-16 35 -19.5 39t-3.5 10q0 37 106 37q57 0 58 -15q0 -2 -2 -4q-20 -8 -56 -31l-47 -55q-6 -6 -12 -6z" />
<glyph unicode="&#x30a;" d="M111 715q-47 0 -79 31.5t-32 76.5q0 61 46 107.5t106 46.5q49 0 80.5 -31t31.5 -78q0 -63 -46 -108t-107 -45zM109 748q29 0 55 27.5t37 70.5q2 8 3 15t1 16q0 29 -13.5 47t-35.5 18q-33 0 -64 -42t-31 -89q1 -63 48 -63z" />
<glyph unicode="&#x327;" d="M113 -317q-51 0 -78 18t-33 45q0 2 -1 3t-1 3q0 16 12.5 29.5t22.5 13.5q16 0 16 -18q-4 -35 22.5 -49.5t61.5 -14.5q25 0 47.5 5.5t36.5 11.5q41 20 41 57q0 20 -12 37.5t-29 21.5q-4 2 -25.5 5.5t-64.5 3.5h-6t-10 -2q-14 -2 -21 0q-8 4 -12 12v6q-2 2 -2 8 q4 10 19.5 25.5t27.5 23.5l92 74q8 8 14 8q10 0 11 -16l-54 -55q-14 -14 -26 -26.5t-19 -23.5q16 4 30.5 5.5t25.5 1.5q55 0 87.5 -15.5t32.5 -56.5v-12.5t-2 -12.5q-6 -35 -39.5 -61.5t-78.5 -40.5t-86 -14z" />
<glyph unicode="&#x2000;" horiz-adv-x="870" />
<glyph unicode="&#x2001;" horiz-adv-x="1741" />
<glyph unicode="&#x2002;" horiz-adv-x="870" />
<glyph unicode="&#x2003;" horiz-adv-x="1741" />
<glyph unicode="&#x2004;" horiz-adv-x="580" />
<glyph unicode="&#x2005;" horiz-adv-x="435" />
<glyph unicode="&#x2006;" horiz-adv-x="290" />
<glyph unicode="&#x2007;" horiz-adv-x="290" />
<glyph unicode="&#x2008;" horiz-adv-x="217" />
<glyph unicode="&#x2009;" horiz-adv-x="348" />
<glyph unicode="&#x200a;" horiz-adv-x="96" />
<glyph unicode="&#x2010;" horiz-adv-x="655" d="M242 444q-49 0 -54 2q-12 6 -18 27q-2 6 -2 14q0 12 8 15q18 10 227 10q313 0 314 -27q-2 -2 -3 -5t-5 -5q-18 -16 -260 -24q-141 -7 -207 -7z" />
<glyph unicode="&#x2011;" horiz-adv-x="655" d="M242 444q-49 0 -54 2q-12 6 -18 27q-2 6 -2 14q0 12 8 15q18 10 227 10q313 0 314 -27q-2 -2 -3 -5t-5 -5q-18 -16 -260 -24q-141 -7 -207 -7z" />
<glyph unicode="&#x2012;" horiz-adv-x="655" d="M242 444q-49 0 -54 2q-12 6 -18 27q-2 6 -2 14q0 12 8 15q18 10 227 10q313 0 314 -27q-2 -2 -3 -5t-5 -5q-18 -16 -260 -24q-141 -7 -207 -7z" />
<glyph unicode="&#x2013;" horiz-adv-x="655" d="M254 449q-57 0 -66 2h-2q-25 10 -24 24q0 10 12 19l416 14q131 0 131 -25q0 -4 -6 -10q-12 -4 -78 -10t-186 -10q-63 -2 -112.5 -3t-84.5 -1z" />
<glyph unicode="&#x2014;" horiz-adv-x="1241" d="M188 444q-8 0 -18 16.5t-10 31.5q0 14 12 14h633h30.5t59.5 2q41 2 73.5 2h55.5q147 0 147 -23q0 -4 -6 -10q-25 -10 -473 -22q-188 -4 -304 -7.5t-159 -3.5h-41z" />
<glyph unicode="&#x2018;" horiz-adv-x="325" d="M391 1026q6 0 6 -4q0 -8 -25.5 -31.5t-49.5 -58.5q-18 -27 -32 -55.5t-14 -51.5t9.5 -33t27.5 -20q16 -8 28.5 -22.5t12.5 -36.5q0 -37 -53 -70q-16 -12 -33 -12q-35 0 -67.5 20.5t-32.5 69.5q0 37 22.5 88t57.5 100t72.5 83t70.5 34z" />
<glyph unicode="&#x2019;" horiz-adv-x="620" d="M285 649q-6 0 -6 4q0 8 25.5 33t49.5 57q18 27 31.5 55.5t13.5 51.5t-9 33t-28 20q-14 10 -27 23.5t-13 36.5q0 37 53 69q16 12 33 12q35 0 67.5 -20t32.5 -70q0 -37 -22.5 -88t-57.5 -100t-72.5 -83t-70.5 -34z" />
<glyph unicode="&#x201a;" horiz-adv-x="434" d="M84 -234q-6 0 -6 4q0 8 25.5 33t49.5 57q18 27 31.5 55.5t13.5 51.5t-9 33t-28 20q-14 10 -27 23.5t-13 36.5q0 37 53 69q16 12 33 12q35 0 67.5 -20t32.5 -70q0 -37 -22.5 -88t-57.5 -100t-72.5 -83t-70.5 -34z" />
<glyph unicode="&#x201c;" horiz-adv-x="602" d="M647 1051q6 0 6 -4q0 -8 -25.5 -32t-49.5 -59q-18 -27 -32 -55.5t-14 -50.5q0 -23 9.5 -33t27.5 -20q16 -8 28.5 -22.5t12.5 -37.5q0 -37 -53 -69q-16 -12 -33 -13q-35 0 -67.5 20.5t-32.5 69.5q0 37 22.5 88.5t57.5 100.5t72.5 83t70.5 34zM387 1051q6 0 6 -4 q0 -8 -25.5 -32t-50.5 -59q-18 -27 -31.5 -55.5t-13.5 -50.5q0 -23 9.5 -33t27.5 -20q16 -8 28.5 -22.5t12.5 -37.5q0 -37 -53 -69q-16 -12 -33 -13q-35 0 -67.5 20.5t-32.5 69.5q0 37 22.5 88.5t57.5 100.5t72.5 83t70.5 34z" />
<glyph unicode="&#x201d;" horiz-adv-x="782" d="M285 655q-6 0 -6 4q0 8 25.5 33t49.5 57q18 27 31.5 55.5t13.5 51.5t-9 33t-28 20q-14 10 -27 23.5t-13 36.5q0 37 53 69q16 12 33 12q35 0 67.5 -20t32.5 -70q0 -37 -22.5 -88t-57.5 -100t-72.5 -83t-70.5 -34zM545 655q-6 0 -6 4q0 8 25.5 33t49.5 57q18 27 31.5 55.5 t13.5 51.5t-9 33t-28 20q-14 10 -27 23.5t-13 36.5q0 37 53 69q16 12 33 12q35 0 67.5 -20t32.5 -70q0 -37 -22.5 -88t-57.5 -100t-72.5 -83t-70.5 -34z" />
<glyph unicode="&#x201e;" horiz-adv-x="659" d="M84 -234q-6 0 -6 4q0 8 25.5 33t49.5 57q18 27 31.5 55.5t13.5 51.5t-9 33t-28 20q-14 10 -27 23.5t-13 36.5q0 37 53 69q16 12 33 12q35 0 67.5 -20t32.5 -70q0 -37 -22.5 -88t-57.5 -100t-72.5 -83t-70.5 -34zM334 -234q-6 0 -6 4q0 8 25.5 33t49.5 57q18 27 31.5 55.5 t13.5 51.5t-9 33t-28 20q-14 10 -27 23.5t-13 36.5q0 37 53 69q16 12 33 12q35 0 67.5 -20t32.5 -70q0 -37 -22.5 -88t-57.5 -100t-72.5 -83t-70.5 -34z" />
<glyph unicode="&#x2022;" horiz-adv-x="1159" d="M580 315q-143 0 -250 103q-104 102 -105 250q0 150 105 250q104 104 250 104q150 0 249 -104q104 -100 105 -250q0 -147 -105 -250q-102 -103 -249 -103z" />
<glyph unicode="&#x2026;" horiz-adv-x="1415" d="M756 14q-35 -4 -74 8.5t-31 32.5q2 18 27 49q37 45 43 55.5t22 10.5q41 0 74 -45q0 -2 1 -3t1 -3q0 -8 -7 -21.5t-17 -34.5q-27 -49 -39 -49zM260 14q-33 -4 -70.5 7.5t-37.5 29.5q0 12 8 25.5t20 27.5q35 43 42 54.5t24 11.5q39 0 71 -45q2 -2 2 -8q0 -18 -20 -54 q-27 -49 -39 -49zM1284 14q-35 -4 -72.5 8.5t-33.5 32.5q6 25 26 49q35 45 42 55.5t26 10.5q45 0 71 -45q2 -2 3 -8q0 -14 -23 -54q-27 -49 -39 -49z" />
<glyph unicode="&#x202f;" horiz-adv-x="348" />
<glyph unicode="&#x2039;" horiz-adv-x="815" d="M590 244q-23 0 -94 53q-63 51 -133 102.5t-132.5 95.5t-109.5 68q-20 14 -19 27q4 16 26 35.5t48 33.5q74 70 157 152t157.5 150.5t123.5 99.5q72 45 93 45q29 0 -76 -119q-84 -90 -171 -187.5t-153 -176.5q53 -51 108.5 -104.5t99.5 -101.5t63 -85q25 -51 24 -74 q0 -14 -12 -14z" />
<glyph unicode="&#x203a;" horiz-adv-x="815" d="M109 244q-27 0 77 118q84 90 171 188.5t153 178.5q-53 49 -109.5 102.5t-100.5 102.5t-62 84q-25 53 -25 74q0 14 12 14q20 0 97 -53q63 -49 131.5 -101.5t132 -96.5t110.5 -69q20 -12 17 -26q-4 -16 -26.5 -35.5t-49.5 -34.5q-70 -70 -153 -151.5t-158.5 -150.5 t-124.5 -99q-72 -45 -92 -45z" />
<glyph unicode="&#x205f;" horiz-adv-x="435" />
<glyph unicode="&#x20ac;" horiz-adv-x="1478" d="M582 39q-199 0 -287 84t-88 211q0 72 26 155q-37 0 -58 1.5t-32 1.5h-2q-39 12 -39 32q0 12 21 25h131q43 102 115 205h-24.5h-22.5q-43 0 -67 1t-34 1h-4q-37 12 -37 32q0 12 19 25h215q92 115 215 209t263 150.5t290 56.5q106 0 171.5 -44t65.5 -120q0 -37 -12 -78 t-47 -86q-35 -47 -66 -47q-18 0 -18 18q0 16 16 39q74 102 74 170q0 111 -158 111q-100 0 -223 -53q-240 -106 -403 -279q-23 -23 -43 -47l395 2q47 0 75.5 -3t28.5 -13q0 -6 -10 -13q-18 -6 -119.5 -13t-285.5 -13q-35 -2 -68 -3t-63 -1q-61 -82 -103 -172q-8 -16 -14 -35 l461 2q59 0 92 -3t33 -13q0 -6 -9 -13q-18 -6 -119.5 -14t-285.5 -12q-55 -2 -102.5 -3t-88.5 -4q-14 -57 -14 -114q0 -121 64 -191q70 -82 210 -82q29 0 62 3.5t70 11.5q147 35 350 159q80 49 138 92.5t95 75.5q45 45 66 45q4 0 4 -2q0 -10 -21 -28q-76 -70 -133 -117 t-96 -74q-88 -66 -177 -110.5t-173 -75.5q-119 -43 -219 -43z" />
<glyph unicode="&#x2122;" horiz-adv-x="1343" d="M145 659q-37 0 -36 27q0 25 77 215q25 59 49.5 117.5t51.5 116.5q25 72 24 86q0 18 -57 18q-25 0 -74 -5t-74 -5q-43 0 -51 26q14 27 277 45q100 8 178 12.5t135 4.5q45 0 45 -17q0 -25 -141 -40q-150 -14 -166 -43q-16 -33 -35.5 -82.5t-42.5 -114.5 q-14 -51 -30.5 -102.5t-32.5 -102.5q-14 -51 -54 -137q-12 -19 -43 -19zM543 672q-23 0 -23 14q0 6 78 203q41 102 64.5 161.5t27.5 73.5q2 27 5 51.5t5 49.5q10 72 50 71q14 0 26 -45q10 -59 20.5 -119.5t18.5 -119.5q41 -176 109 -176q61 0 202 221q145 221 148 221 q25 0 24 -55q0 -10 -3 -27.5t-7 -42.5q-8 -29 -11 -47.5t-5 -28.5q-2 -82 -10.5 -168t-18.5 -178q-23 -35 -72 -35q-23 0 -22 19v6t2 10q10 57 26.5 141t39.5 197q-215 -276 -314 -276q-104 0 -182 276q-23 -49 -59 -188q-16 -63 -32 -107.5t-32 -68.5q-20 -33 -55 -33z" />
<glyph unicode="&#x25fc;" horiz-adv-x="696" d="M0 696h696v-696h-696v696z" />
<glyph unicode="&#xfb03;" horiz-adv-x="1409" d="M244 -100q-88 0 -88 108q0 90 55 244q10 33 47 120t98 230l-88 -14q-27 -4 -43 -7t-24 -1q-6 4 -6 12q0 45 18 49l172 25q27 45 63.5 105t86.5 136q63 84 118 117q27 12 65 21.5t89 9.5q78 0 104 -62q8 -18 9 -39q0 -41 -31 -41q-35 0 -58 60q-12 35 -51 35 q-57 0 -102 -52q-14 -14 -35.5 -44.5t-54.5 -77.5q-35 -51 -58.5 -91.5t-37.5 -68.5q6 2 26.5 4t52.5 4q25 2 47.5 3t43.5 1q86 0 81 -8q-20 -18 -280 -64q-63 -111 -141 -303q-98 -236 -99 -334q0 -39 21.5 -50t21.5 -13q1 -14 -22 -14zM715 -100q-88 0 -88 108 q0 90 55 244q10 33 47 120t98 230l-88 -14q-27 -4 -43 -7t-24 -1q-6 4 -6 12q0 45 18 49l172 25q27 45 63.5 105t86.5 136q63 84 118 117q27 12 65 21.5t89 9.5q78 0 104 -62q8 -18 9 -39q0 -41 -31 -41q-35 0 -58 60q-12 35 -51 35q-57 0 -102 -52q-14 -14 -35.5 -44.5 t-54.5 -77.5q-35 -51 -58.5 -91.5t-37.5 -68.5q6 2 26.5 4t52.5 4q25 2 47.5 3t43.5 1q86 0 81 -8q-20 -18 -280 -64q-63 -111 -141 -303q-98 -236 -99 -334q0 -39 21.5 -50t21.5 -13q1 -14 -22 -14zM1462 719q-33 -4 -70.5 8t-37.5 31q0 12 8 25.5t20 27.5q35 43 41 54.5 t23 11.5q47 0 74 -46q2 -2 2 -8q0 -18 -21 -53q-27 -49 -39 -51zM1153 -20q-119 27 -119 94q0 33 80 231q23 39 60.5 114t95.5 183q10 16 45 16q31 0 60.5 -9t23.5 -17q-270 -383 -271 -531q0 -43 29 -43q55 0 174 78q141 96 238 232q20 33 41 32q6 0 6 -6q0 -10 -19 -39 q-90 -141 -249 -249q-144 -98 -195 -86z" />
<glyph unicode="&#xfb04;" horiz-adv-x="1357" d="M244 -100q-88 0 -88 108q0 90 55 244q10 33 47 120t98 230l-88 -14q-27 -4 -43 -7t-24 -1q-6 4 -6 12q0 45 18 49l172 25q27 45 63.5 105t86.5 136q63 84 118 117q27 12 65 21.5t89 9.5q78 0 104 -62q8 -18 9 -39q0 -41 -31 -41q-35 0 -58 60q-12 35 -51 35 q-57 0 -102 -52q-14 -14 -35.5 -44.5t-54.5 -77.5q-35 -51 -58.5 -91.5t-37.5 -68.5q6 2 26.5 4t52.5 4q25 2 47.5 3t43.5 1q86 0 81 -8q-20 -18 -280 -64q-63 -111 -141 -303q-98 -236 -99 -334q0 -39 21.5 -50t21.5 -13q1 -14 -22 -14zM715 -100q-88 0 -88 108 q0 90 55 244q10 33 47 120t98 230l-88 -14q-27 -4 -43 -7t-24 -1q-6 4 -6 12q0 45 18 49l172 25q27 45 63.5 105t86.5 136q63 84 118 117q27 12 65 21.5t89 9.5q78 0 104 -62q8 -18 9 -39q0 -41 -31 -41q-35 0 -58 60q-12 35 -51 35q-57 0 -102 -52q-14 -14 -35.5 -44.5 t-54.5 -77.5q-35 -51 -58.5 -91.5t-37.5 -68.5q6 2 26.5 4t52.5 4q25 2 47.5 3t43.5 1q86 0 81 -8q-20 -18 -280 -64q-63 -111 -141 -303q-98 -236 -99 -334q0 -39 21.5 -50t21.5 -13q1 -14 -22 -14zM1200 -39q-145 31 -145 135q0 61 39 178q29 88 79 202t125 253 q182 342 277 356q8 2 26 2q100 0 101 -94q0 -129 -217 -366q-121 -135 -267 -240q-86 -205 -86 -301q0 -63 39 -76q31 -8 144 74q129 94 221 229q14 20 27 21q8 0 8 -8t-11 -25q-78 -125 -202 -238q-121 -110 -158 -102zM1241 442q74 55 123 111l121 143q168 199 168 293 q0 18 -21 19q-35 0 -110 -101q-23 -33 -47.5 -63.5t-49.5 -63.5q-31 -45 -56.5 -88t-47.5 -88q-6 -8 -25.5 -49t-54.5 -113z" />
<glyph d="M0 723q-6 0 -6 4q0 8 35 37q49 37 98 78t72 67q10 6 16 6q12 -2 24.5 -18t12.5 -33q-2 -8 -8 -14q-49 -33 -102.5 -65.5t-94.5 -47.5q-18 -6 -30.5 -10t-16.5 -4z" />
<glyph d="M109 -440q-125 0 -142 61v4q0 16 11.5 30.5t21.5 14.5q8 0 16 -18q8 -25 40 -37t71 -12q61 0 100 24q20 16 30.5 38t10.5 38q0 29 -16 50.5t-47 27.5q-4 2 -26.5 5t-65.5 3h-6.5t-10.5 -2q-12 -2 -20 0q-6 2 -13 12v6q-2 2 -1 4.5t1 4.5q2 10 20.5 25.5t25.5 23.5 l159 139q6 8 13 8q10 0 12 -16l-55 -55q-8 -10 -32 -33t-43.5 -43.5t-19.5 -24.5h4l37 -2q63 0 115.5 -32.5t42.5 -86.5q-8 -45 -46 -80.5t-88 -56t-99 -20.5z" />
<glyph d="M45 721q-18 0 -18 14q0 10 12 17q20 16 36.5 26t28.5 19q27 16 78 45.5t105 68.5q23 16 37 17q18 0 45 -56q14 -31 53 -68.5t82 -37.5q16 0 29.5 3t23.5 11q12 10 25 11q8 0 8 -7q0 -6 -10 -16q-27 -25 -50.5 -36t-70.5 -11q-49 0 -93 36t-61 72q-8 20 -29 21 q-16 0 -38 -16q-39 -29 -81 -51.5t-96 -57.5q-4 -2 -8 -3t-8 -1z" />
<glyph d="M291 723q-12 0 -25 25q-16 35 -19 39t-3 10q0 37 106 37q57 0 58 -15q0 -2 -2 -4q-20 -8 -56 -31l-47 -55q-6 -6 -12 -6zM47 723q-12 0 -24 25q-16 35 -19.5 39t-3.5 10q0 37 106 37q57 0 58 -15q0 -2 -2 -4q-20 -8 -56 -31l-47 -55q-6 -6 -12 -6z" />
<glyph d="M248 723q-12 0 -49 12q-39 16 -92.5 49t-102.5 66q-4 6 -8 14q0 16 12 32.5t25 18.5q8 0 14 -8q25 -27 74 -66.5t98 -76.5q35 -29 35 -37q0 -4 -6 -4z" />
<glyph d="M111 715q-47 0 -79 31.5t-32 76.5q0 61 46 107.5t106 46.5q49 0 80.5 -31t31.5 -78q0 -63 -46 -108t-107 -45zM109 748q29 0 55 27.5t37 70.5q2 8 3 15t1 16q0 29 -13.5 47t-35.5 18q-33 0 -64 -42t-31 -89q1 -63 48 -63z" />
<glyph d="M332 707q-31 0 -72 15t-80 36q-39 23 -61.5 29t-34.5 6q-37 0 -61 -60q-6 -10 -13 -10q-10 0 -10 18q0 8 4 21.5t14 28.5q47 70 91 69q25 0 50 -13t58 -28l102 -45q27 -8 43 -2q14 2 25.5 12.5t22.5 24.5q10 12 15 20.5t9 14.5q6 10 12 10q10 0 5 -18q-4 -14 -7.5 -26.5 t-19.5 -37.5q-16 -33 -42.5 -49t-49.5 -16z" />
</font>
</defs>
</svg>
